/* XPM */
static char *result[] = {
/* columns rows colors chars-per-pixel */
"80 80 255 2 ",
"   c #3A0808",
".  c #39170C",
"X  c #271A19",
"o  c #351C13",
"O  c #3A1D14",
"+  c #371A18",
"@  c #2E0C0B",
"#  c #3C260D",
"$  c #2B241B",
"%  c #3C2115",
"&  c #34241B",
"*  c #3C231B",
"=  c #372818",
"-  c #3B341B",
";  c #381C27",
":  c #2D1B28",
">  c #2A2823",
",  c #3B2523",
"<  c #3B2D24",
"1  c #372929",
"2  c #3D3424",
"3  c #3D312B",
"4  c #343229",
"5  c #3B2C36",
"6  c #392F34",
"7  c #1F1A13",
"8  c #4C0D0A",
"9  c #470808",
"0  c #580A08",
"q  c #49150D",
"w  c #57120C",
"e  c #460C16",
"r  c #550A15",
"t  c #4A1A1A",
"y  c #481816",
"u  c #591616",
"i  c #6C0C0B",
"p  c #670A0A",
"a  c #770C0A",
"s  c #68140C",
"d  c #79130B",
"f  c #760B11",
"g  c #681916",
"h  c #7A1313",
"j  c #761818",
"k  c #6D0D14",
"l  c #57290F",
"z  c #432215",
"x  c #44231B",
"c  c #4C261C",
"v  c #442C1D",
"b  c #4B2C1D",
"n  c #4A2714",
"m  c #56261A",
"M  c #48351B",
"N  c #57381A",
"B  c #4E2D0C",
"V  c #64231D",
"C  c #6A2018",
"Z  c #782A1A",
"A  c #683918",
"S  c #7A3B17",
"D  c #6D3C0E",
"F  c #481A23",
"G  c #591E26",
"H  c #550921",
"J  c #661A27",
"K  c #791923",
"L  c #442C23",
"P  c #4B2D24",
"I  c #442D2C",
"U  c #482627",
"Y  c #522C23",
"T  c #572825",
"R  c #423123",
"E  c #4A3224",
"W  c #43312A",
"Q  c #4C3929",
"!  c #53332C",
"~  c #583826",
"^  c #462C34",
"/  c #4A3734",
"(  c #593432",
")  c #682927",
"_  c #772825",
"`  c #663827",
"'  c #773629",
"]  c #663934",
"[  c #753234",
"{  c #324038",
"}  c #564315",
"|  c #6B4719",
" . c #78481A",
".. c #785619",
"X. c #6F5013",
"o. c #7D631D",
"O. c #756509",
"+. c #57453A",
"@. c #51462E",
"#. c #684825",
"$. c #764726",
"%. c #654439",
"&. c #764934",
"*. c #72562E",
"=. c #7B6A26",
"-. c #0C3A73",
";. c #2F295C",
":. c #4E3E45",
">. c #673447",
",. c #2B527F",
"<. c #4F4947",
"1. c #635748",
"2. c #73524B",
"3. c #7B6350",
"4. c #716B6A",
"5. c #5A636A",
"6. c #850C0C",
"7. c #84120C",
"8. c #88180C",
"9. c #94150C",
"0. c #9B1C0D",
"q. c #94180B",
"w. c #880C12",
"e. c #871717",
"r. c #971914",
"t. c #960D0D",
"y. c #A61B0C",
"u. c #A41B17",
"i. c #B81D1E",
"p. c #872618",
"a. c #9B2313",
"s. c #962519",
"d. c #972810",
"f. c #A8260B",
"g. c #B4220B",
"h. c #A52618",
"j. c #B62916",
"k. c #A7351D",
"l. c #BB3014",
"z. c #841924",
"x. c #9A1D29",
"c. c #962A24",
"v. c #883629",
"b. c #973826",
"n. c #8A3737",
"m. c #903430",
"M. c #A62625",
"N. c #A7362A",
"B. c #B73725",
"V. c #B33029",
"C. c #B61924",
"Z. c #C8290F",
"A. c #C63B24",
"S. c #874A1A",
"D. c #875618",
"F. c #965918",
"G. c #87580E",
"H. c #88681A",
"J. c #986914",
"K. c #937717",
"L. c #B4780C",
"P. c #A96817",
"I. c #A77614",
"U. c #B97916",
"Y. c #B66B14",
"T. c #885527",
"R. c #8F4E31",
"E. c #A84836",
"W. c #B64935",
"Q. c #AB482E",
"!. c #976928",
"~. c #95742B",
"^. c #866835",
"/. c #966A32",
"(. c #AA7127",
"). c #AB571C",
"_. c #C2461D",
"`. c #C74728",
"'. c #C87D15",
"]. c #9F3944",
"[. c #9A4E47",
"{. c #AA5249",
"}. c #907255",
"|. c #AE6A4A",
" X c #8B746E",
".X c #C1665A",
"XX c #9C8615",
"oX c #A98917",
"OX c #B98615",
"+X c #BD9619",
"@X c #B68E0F",
"#X c #928337",
"$X c #AB8529",
"%X c #B88B27",
"&X c #AE8F31",
"*X c #C9990E",
"=X c #C78718",
"-X c #D09410",
";X c #CDA412",
":X c #E6B212",
">X c #C89627",
",X c #C9962E",
"<X c #DBAD2E",
"1X c #ECB622",
"2X c #978249",
"3X c #9B8855",
"4X c #B48F48",
"5X c #95856D",
"6X c #B19672",
"7X c #B9A779",
"8X c #CA966F",
"9X c #CCAE69",
"0X c #E7AF7D",
"qX c #D4A254",
"wX c #F1CD7B",
"eX c #1B4B8A",
"rX c #275B91",
"tX c #3E739B",
"yX c #506E89",
"uX c #6197B9",
"iX c #3F97D2",
"pX c #71A6C7",
"aX c #969391",
"sX c #A9948F",
"dX c #B3A78C",
"fX c #93A5B1",
"gX c #B5A9AB",
"hX c #A0AEA8",
"jX c #9E9EA7",
"kX c #D7B889",
"lX c #CBBA98",
"zX c #CDB18C",
"xX c #E7B28D",
"cX c #C8B6AC",
"vX c #D59E85",
"bX c #DBC690",
"nX c #EBD69B",
"mX c #F9D996",
"MX c #F3CE8D",
"NX c #FBE59B",
"BX c #FEE184",
"VX c #CFCCA3",
"CX c #EED7A8",
"ZX c #FCECAB",
"AX c #FAE6A7",
"SX c #FCEBB3",
"DX c #FBE8B7",
"FX c #FCF2B8",
"GX c #ECE7AE",
"HX c #9EB7D4",
"JX c #ADC6D1",
"KX c #E4D7CE",
"LX c #F7F6C5",
"PX c #FBF1D2",
"IX c None",
/* pixels */
"IXIXIXIXIXIXIXIXIXIXIXIXIXIXIXIXIXIXIXIXIXIXIXIXIXIXIXIXIXIXIXIXIXIXIXIXIXIXIXIXIXIXIXIXIXIXIXIXIXIXIXIXIXIXIXIXIXIXIXIXIXIXIXIXIXIXIXIXIXIXIXIXIXIXIXIXIXIXIXIX",
"IXIXIXIXIXIXIXIXIXIXIXIXIXIXIXIXIXIXIXIXIXIXIXIXIXIXIXIXIXIXIXIXIXIXIXIXIXIXIXIXIXIXIXIXIXIXIXIXIXIXIXIXIXIXIXIXIXIXIXIXIXIXIXIXIXIXIXIXIXIXIXIXIXIXIXIXIXIXIXIX",
"IXIXIXIXIXIXIXIXIXIXIXIXIXIXIXIXIXIXIXIXIXIXIXIXIXIXIXIXIXIXIXIXIXIXIXIXIXIXIXIXIXIXIXIXIXIXIXIXIXIXIXIXIXIXIXIXIXIXIXIXIXIXIXIXIXIXIXIXIXIXIXIXIXIXIXIXIXIXIXIX",
"IXIXIXIXIXIXIXIXIXIXIXIXIXIXIXIXIXIXIXIXIXIXIXIXIXIXIXIXIXIXIXIXIXIXIXIXIXIXIXIXIXIXIXIXIXIXIXIXIXIXIXIXIXIXIXIXIXIXIXIXIXIXIXIXIXIXIXIXIXIXIXIXIXIXIXIXIXIXIXIX",
"IXIXIXIXIXIXIXIXIXIXIXIXIXIXIXIXIXIXIXIXIXIXIXIXIXIXIXIXIXIXIXIXIXIXIXIXIXIXIXIXIXIXIXIXIXIXIXIXIXIXIXIXIXIXIXIXIXIXIXIXIXIXIXIXIXIXIXIXIXIXIXIXIXIXIXIXIXIXIXIX",
"IXIXIXIXIXIXIXIXIXIXIXIXIXIXIXIXIXIXIXIXIXIXIXIXIXIXIXIXIXIXIXIXIXIXIXIXIX` $.IXIXIXIXIXIXIXIXIXIXIXIXIXIXIXIXIXIXIXIXIXIXIXIXIXIXIXIXIXIXIXIXIXIXIXIXIXIXIXIXIX",
"IXIXIXIXIXIXIXIXIXIXIXIXIXIXIXIXIXIXIXIXIXIXIXIXIXIXIXIXIXIXIXIXIXG.IXIXIXb X.P IXIXIXIXIXIXIXIXIXIXIXIXIXIXIXIXIXIXIXIXIXIXIXIXIXIXIXIXIXIXIXIXIXIXIXIXIXIXIXIX",
"IXIXIXIXIXIXIXIXIXIXIXIXIXIXIXIXIXIXIXIXIXIXIXIXIXIXIXIXIXIXIXIXIXJ.X.IXIX> N R.IXIXIXIXIXIXIXIXIXIXIXIXIXIXIXIXIXIXIXIXIXIXIXIXIXIXIXIXIXIXIXIXIXIXIXIXIXIXIXIX",
"IXIXIXIXIXIXIXIXIXIXIXIXIXIXIXIXIXIXIXIXIXIXIXIXIXIXIXIXIXIXIXIXIX/.H.E IX>  .).IXIXIXIXIXIXIXIXIXIXIXIXIXIXIXIXIXIXIXIXIXIXIXIXIXIXIXIXIXIXIXIXIXIXIXIXIXIXIXIX",
"IXIXIXIXIXIXIXIXIXIXIXIXIXIXIXIXIXIXIXIXIXIXIXIXIXIXIXIXIXIXIXIXIX~ J.F.! S.G.F.IXIXIXIXIXIXIXIXIXIXIXIXIXIXIXIXIXIXIXIXIXIXIXIXIXIXIXIXIXIXIXIXIXIXIXIXIXIXIXIX",
"IXIXIXIXIXIXIXIXIXIXIXIXIXIXIXIXIXIXIXIXIXIXIXIXIXIXIXIXIXIXIXIXIXIXT U.+X:X'.} IXIXIXIXIXIXIXIXIXIXIXIXIXIXIXIXIXIXIXIXIXIXIXIXIXIXIXIXIXIXIXIXIXIXIXIXIXIXIXIX",
"IXIXIXIXIXIXIXIXIXIXIXIXIXIXIXIXIXIXIXIXIXIXIXIXIXIXIXIXIXIXIXIXIXIX* l S ..*XB IXIXIXIXIXIXIXIXIXIXIXIXIXIXIXIXIXIXIXIXIXIXIXIXIXIXIXIXIXIXIXIXIXIXIXIXIXIXIXIX",
"IXIXIXIXIXIXIXIXIXIXIXIXIXIXIXIXIXIXIXIXIXIXIXIXIXIXIXIXIXIXIXIXIXIXIXz n ~ -X| 1 IXIXIXIXIXIXIXIXIXIXIXIXIXIXIXIXIXIXIXIXIXIXIXIXIXIXIXIXIXIXIXIXIXIXIXIXIXIXIX",
"IXIXIXIXIXIXIXIXIXIXIXIXIXIXIXIXIXIXIXIXIXIXIXIXIXIXIXIXIXIXIXIXIXIXIXL ) !.*XN 1 IXIXIXIXIXIXIXIXIXIXIXIXIXIXIXIXIXIXIXIXIXIXIXIXIXIXIXIXIXIXIXIXIXIXIXIXIXIXIX",
"IXIXIXIXIXIXIXIXIXIXIXIXIXIXIXIXIXIXIXIXIXIXIXIXIXIXIXIXIXIXIXIXIXIXIXU Z ;X(.! N = IXIXIXIXIXIXIXIXIXIXIXIXIXIXIXIXIXIXIXIXIXIXIXIXIXIXIXIXIXIXIXIXIXIXIXIXIXIX",
"IXIXIXIXIXIXIXIXIXIXIXIXIXIXIXIXIXIXIXIXIXIXIXIXIXIXIXIXIXIXIXIXIXIXIXx n D Y.OXY.b IXIXIXIXIXIXIXIXIXIXIXIXIXIXIXIXIXIXIXIXIXIXIXIXIXIXIXIXIXIXIXIXIXIXIXIXIXIX",
"IXIXIXIXIXIXIXIXIXIXIXIXIXIXIXIXIXIXIXIXIXIXIXIXIXIXIXIXIXIXIXIXIXIXIXy y x $.1XF.E * IXIXIXIXIXIXIXIXIXIXIXIXIXIXIXIXIXIXIXIXIXIXIXIXIXIXIXIXIXIXIXIXIXIXIXIXIX",
"IXIXIXIXIXIXIXIXIXIXIXIXIXIXIXIXIXIXIXIXIXIXIXIXIXIXIXIXIXIXIXIXIXIXIXz x v Y @XD.! M IXIXIXIXIXIXIXIXIXIXIXIXIXIXIXIXIXIXIXIXIXIXIXIXIXIXIXIXIXIXIXIXIXIXIXIXIX",
"IXIXIXIXIXIXIXIXIXIXIXIXIXIXIXIXIXIXIXIXIXIXIXIXIXIXIXIXIXIXIXIXIXIX* v z n N OX..H.#.: IXIXIXIXIXIXIXIXIXIXIXIXIXIXIXIXIXIXIXIXIXIXIXIXIXIXIXIXIXIXIXIXIXIXIXIX",
"IXIXIXIXIXIXIXIXIXIXIXIXIXIXIXIXIXIXIXIXIXIXIXIXIXIXIXIXIXIXIXIXIXIX* z * S *X%X! I.~ 2 IXIXIXIXIXIXIXIXIXIXIXIXIXIXIXIXIXIXIXIXIXIXIXIXIXIXIXIXIXIXIXIXIXIXIXIX",
"IXIXIXIXIXIXIXIXIXIXIXIXIXIXIXIXIXIXIXIXIXIXIXIXIXIXIXIXIXIXIXIXIXIX* n * m F.>X+X:XK.^ , IXIXIXIXIXIXIXIXIXIXIXIXIXIXIXIXIXIXIXIXIXIXIXIXIXIXIXIXIXIXIXIXIXIXIX",
"IXIXIXIXIXIXIXIXIXIXIXIXIXIXIXIXIXIXIXIXIXIXIXIXIXIXIXIXIXIXIXIXIXIX* z & - b I.;X(.>X.., $ IXIXIXIXIXIXIXIXIXIXIXIXIXIXIXIXIXIXIXIXIXIXIXIXIXIXIXIXIXIXIXIXIXIX",
"IXIXIXIXIXIXIXIXIXIXIXIXIXIXIXIXIXIXIXIXIXIXIXIXIXIXIXIXIXIXIXIXIXO z % + v ( &.| 4 K.I.P 6 IXIXIXIXIXIXIXIXIXIXIXIXIXIXIX, IXIXIXIXIXIXIXIXIXIXIXIXIXIXIXIXIXIX",
"IXIXIXIXIXIXIXIXIXIXIXIXIXIXIXIXIXIXIXIXIXIXIXIXIXIXIXIXIXIXIXIXIX% z # y U H.,XH.Y ..=X..L , IXIXIXIXIXIXIXIXIXIXIXIXIXE } IXIXIXIXIXIXIXIXIXIXIXIXIXIXIXIXIXIX",
"IXIXIXIXIXIXIXIXIXIXIXIXIXIXIXIXIXIXIXIXIXIXIXIXIXIXIXIXIXIXIXIXIX* z O z L %X~.*X@X@XL.Y.- 5 > IXIXIXIXIXIXIXIXIXIXIX! ..X.IXIXIXIXIXIXIXIXIXIXIXIXIXIXIXIXIXIX",
"IXIXIXIXIXIXIXIXIXIXIXIXIXIXIXIXIXIXIXIXIXIXIXIXIXIXIXIXIXIXIXIX+ O O % 1 ` oX&.P.OX| =X*XN - < & , IXIXIXIXIXIXIX< 5 | OX] IXIXIXIXIXIXIXIXIXIXIXIXIXIXIXIXIXIX",
"IXIXIXIXIXIXIXIXIXIXIXIXIXIXIXIXIXIXIXIXIXIXIXIXIXIXIXIXIXIXIXIX& o O + } OXOX(.#.A I ` -X} 2 E < < & $ > > 4 < 2 3 W I.U.( IXIXIXIXIXIXIXIXIXIXIXIXIXIXIXIXIXIX",
"IXIXIXIXIXIXIXIXIXIXIXIXIXIXIXIXIXIXIXIXIXIXIXIXIXIXIXIXIXIXIXO O o . O A <X:XH.~ E I W ' Q | I W W 3 < I I W 3 2 ^ ^ K.Y.^ IXIXIXIXIXIXIXIXIXIXIXIXIXIXIXIXIXIX",
"IXIXIXIXIXIXIXIXIXIXIXIXIXIXIXIXIXIXIXIXIXIXIXIXIXIXIXIXIXIX$ o o o o x I X.-XT.!.~.H.I.F.I.H.3 W ^ 2 - - L 2 W 6 2 #.*XH.: IXIXIXIXIXIXIXIXIXIXIXIXIXIXIXIXIXIX",
"IXIXIXIXIXIXIXIXIXIXIXIXIX< v * IXIXIXIXIXIXIXIXIXIXIXIXIX& & % # o % L W P /.=XOX1X<X(.).F.E I ^ W 2 M 3 3 5 W ^ 4 | -XO.* IXIXIXIXIXIXIXIXIXIXIXIXIXIXIXIXIXIX",
"IXIXIXIXIXIXIXIXIXIXIXIXIXIXv m b x IXIXIXIXIXIXIXIXIX, * x % % o % P P W T Y ..D.=X:X~ 4 4 W E I W R I 5 @.#.2 ..#.I.U.< IXIXIXIXIXIXIXIXIXIXIXIXIXIXIXIXIXIXIX",
"IXIXIXIXIXIXIXIXIXIXIXIXIXIX, c n l n b x * % o = * * * x * x % x P E E E P M U - $.:X$XR ..H.Q 6 R M ~ 2 H.I.4 o.=XP.~ 1 IXIXIXIXIXIXIXIXIXIXIXIXIXIXIXIXIXIXIX",
"IXIXIXIXIXIXIXIXIXIXIXIXIXIXIX% t l  .V c n n n n x x c z y x v v W b E R b I ~ #.] <X:X*X=XH.$.! } XX%X..oX-X+.H.OX| , 1 IXIXIXIXIXIXIXIXIXIXIXIXIXIXIXIXIXIXIX",
"IXIXIXIXIXIXIXIXIXIXIXIXIXIXIX* c t A S.| N T x c b b c n x L b M ^ Y P ~ H.A ~ $X$X,XY.L.=X*X@XR X.*.T.-XU.OX;X*XX., $ IXIXIXIXIXIXIXIXIXIXIXIXIXIXIXIXIXIXIXIX",
"IXIXIXIXIXIXIXIXIXIXIXIXIXIXIXIX& t t ..-X).A c P b Y Y b b L P m E R I ~.U.#./ >X>X$X..~  .&.*XJ. .$.L.I. .! #.T.M $ IXIXIXIXIXIXIXIXIXIXIXIXIXIXIXIXIXIXIXIXIX",
"IXIXIXIXIXIXIXIXIXIXIXIXIXIXIXIX= B z A Y.Y.` Y # U b b P P b E T Y Q ( ,X!.*.U.Y.T | N 2 3 ^ #.XX@XL.=.! - 6 1 = : > IXIXIXIXIXIXIXIXIXIXIXIXIXIXIXIXIXIXIXIXIX",
"IXIXIXIXIXIXIXIXIXIXIXIXIXIXIXIXIX# # c $.S.S.S.c U n c P P P M v | XXD.OX=XU...^ 5 ] 3.}.2X3X|.3.^.*.1 e = > X > X IXIXIXIXIXIXIXIXIXIXIXIXIXIXIXIXIXIXIXIXIXIX",
"IXIXIXIXIXIXIXIXIXIXIXIXIXIXIXIXIXIXz z c A P.>XJ.$.N b L Y T ^ P &.,XP.` ~ 2 x u T 9XwXwXwXMXwXwXwX0X$.p 0 @ + $ IXIXIXIXIXIXIXIXIXIXIXIXIXIXIXIXIXIXIXIXIXIXIX",
"IXIXIXIXIXIXIXIXIXIXIXIXIXIXIXIXIXIXIX* = n c F.I.*XJ.F.S. .~.T.L.Y...^ 2 % . f j &XwXNXBXmXmXMXNXMXzX6XC j . IXIXIXIXIXIXIXIXIXIXIXIXIXIXIXIXIXIXIXIXIXIXIXIXIX",
"IXIXIXIXIXIXIXIXIXIXIXIXIXIXIXIXIXIXIXIXz y , x $.Y.=X'.<XL.+X:XL.| ^ F y r i h |.wX6XxXAXmXAXmXAX9XbXMX[.d s IXIXIXIXIXIXIXIXIXIXIXIXIXIXIXIXIXIXIXIXIXIXIXIXIX",
"IXIXIXIXIXIXIXIXIXIXIXIXIXIXIXIXIXIXIXIXIXU O z * U S A F.P.P.I.N U ; 0 p p k g 6XbXkX9XmXNXNXNXzX9XNXwX9Xp.w.IXIXIXIXIXIXIXIXIXIXIXIXIXIXIXIXIXIXIXIXIXIXIXIXIX",
"IXIXIXIXIXIXIXIXIXIXIXIXIXIXIXIXIXIXIXIXIXIX1 , z z $ 1 M n , P U 8 p f 0 a : : { 1.6XMXNXNXSXAXnX6X}.6X9Xc.t.IXIXIXIXIXIXIXIXIXIXIXIXIXIXIXIXIXIXIXIXIXIXIXIXIX",
"IXIXIXIXIXIXIXIXIXIXIXIXIXIXIXIXIXIXIXIXIXIXIXIX, n t v 3 L F e e p 6.6.i t -.rXJX4.*.bXZXNXZXFX7X<.jXaX}.p.h u IXIXIXIXIXIXIXIXIXIXIXIXIXIXIXIXIXIXIXIXIXIXIXIX",
"IXIXIXIXIXIXIXIXIXIXIXIXIXIXIXIXIXIXIXIXIXIXIXIXIXIXIXIXIXIXq 0 0 a w.6.s ;.-.eXHXjXgXVXZXSXZXNX5.-.pXJX4.l s e IXIXIXIXIXIXIXIXIXIXIXIXIXIXIXIXIXIXIXIXIXIXIXIX",
"IXIXIXIXIXIXIXIXIXIXIXIXIXIXIXIXIXIXIXIXIXIXIXIXIXIXIXIXIXw a p p 6.w.t.g 5.eX,.,.5.KXAXNXSXZXAXaXtXrXfX8Xp.k 8 IXIXIXIXIXIXIXIXIXIXIXIXIXIXIXIXIXIXIXIXIXIXIXIX",
"IXIXIXIXIXIXIXIXIXIXIXIXIXIXIXIXIXIXIXIXIXIXIXIXIXIXIXz.e.a p a a 8.6.r._ tXiXiXtXhXPXZXZXFXZXNXVXuXpXcX8Xj.p.9 IXIXIXIXIXIXIXIXIXIXIXIXIXIXIXIXIXIXIXIXIXIXIXIX",
"IXIXIXIXIXIXIXIXIXIXIXIXIXIXIXIXIXIXIXIXIXIXIXIXg e.7.7.6.a i 6.9.r.a r.8.2.yXyXaXKXDXSXFXFXZXZXSXbXbXnXxXc.A.s u IXIXIXIXIXIXIXIXIXIXIXIXIXIXIXIXIXIXIXIXIXIXIX",
"IXIXIXIXIXIXIXIXIXIXIXIXIXIXIXIXIXIXc.k.s.s.0.0.9.9.9.7.d 7.t.t.y.r.p 8.f..XvX8XlXnXZXFXFXFXZXAXSXZXmXMXnX&.r.M.' &.IXIXIXIXIXIXIXIXIXIXIXIXIXIXIXIXIXIXIXIXIXIX",
"IXIXIXIXIXIXIXIXIXIXIXIXIXIXIXIXIXM.M.IXIXc.h.y.r.8.9.9.9.8.s.h.r.7.0 8.j.B.xXxXCXDXGXLXLXFXDXLXFXZXAXCXbX) 8 j m.R.[ IXIXIXIXIXIXIXIXIXIXIXIXIXIXIXIXIXIXIXIXIX",
"IXIXIXIXIXIXIXIXIXIXIXIXIXIXIXIXr.IXIXIXy.g.0.q.0.r.q.q.c.M.N.M.p.d 0 d Z.A.vXCXnXDXFXGXnXCXnXCXFXFXDXnX&.9 e @ G m.c.' IXIXIXIXIXIXIXIXIXIXIXIXIXIXIXIXIXIXIXIX",
"IXIXIXIXIXIXIXIXIXIXIXIXIXIXIXIXz.IXIXe.f.y.h.f.f.r.u.M.N.N.Q.M.7.d 0 8.Z.j.}.xXDXLXLXGXnX0XxXCXPXGX7X]   9 p r e ) ' v.[.[ IXIXIXIXIXIXIXIXIXIXIXIXIXIXIXIXIXIX",
"IXIXIXIXIXIXIXIXIXIXIXIXIXIXIXIXe.IXIXr.0.s.j.g.r.l.l.V.Q.E.E._ 6.k 8 8.Z.h.9 P 3.6XlXCXCXzXlXdX5X] + 9   e r H X...S v.N.E.n.' IXIXIXIXIXIXIXIXIXIXIXIXIXIXIXIX",
"IXIXIXIXIXIXIXIXIXIXIXIXIXIXIXIXz.IXIXu.p.f.f.a.A.`.B.{.{.|.[.' p.g 8 d.f.d     @ T  XvX}.] t   @ t q 9 8 . . ~ &X/ ) v.E.E.b.b.v.IXIXIXIXIXIXIXIXIXIXIXIXIXIXIX",
"IXIXIXIXIXIXIXIXIXIXIXIXIXIXIXIXe.IXIXj p.s.s.B.`._.A..X4XqX4X*.v.u j s.Z     @   5XLXDXnXdXm 9     z b | ..^.~.#X6 Q R.{.W.R.k.d.IXIXIXIXIXIXIXIXIXIXIXIXIXIXIX",
"IXIXIXIXIXIXIXIXIXIXIXIXIXIXIXIXIXK IXu r.s.s.B.A.A._.|.4X}.6XqX' T [ S.J 9 8   O lXVXKXcXcXsXU     o 3 2 v *.4X^.<.+.R.E.W.Q.v.' IXIXIXIXIXIXIXIXIXIXIXIXIXIXIX",
"IXIXIXIXIXIXIXIXIXIXIXIXIXIXIXIXIXIXK 8 9.6.a.h.B.`.`.|./.2.+.4X&XH.2.=.l q 0 9 F }. XdXcXcXaXU   q - Q t e ! #X=.<.@.S E.W.N.' ) IXIXIXIXIXIXIXIXIXIXIXIXIXIXIX",
"IXIXIXIXIXIXIXIXIXIXi.i.h.C.M.IXIXIXK 0 a 6.r.j.k.Q.{./.=.+.<.*.qX$X*.@.2.sX}.T }.&.( ( 1.3.^ : IXIX! &.j k u =.=.{ #.S.v.m.m.G x IXIXIXIXIXIXIXIXIXIXIXIXIXIXIX",
"IXIXIXIXIXIXIXIXIXIXi.e.IXIXIXx.IXIXIXO 0 a t.r.b.b.[.{.^.+.<.] &X(.! / 1.jXKX5X6XV >. XI ] 3.1.gX4./ g d h e.d.^.+.T.).v.j ) t IXIXIXIXIXIXIXIXIXIXIXIXIXIXIXIX",
"IXIXIXIXIXIXIXIXIXIXe.IXIXIXIXIXu j IXX 9 a a _ n.[.{.E./.5.<.:.&X%X( ) }.1.gXaXy 9 T 6X3XbXnX7XsXgX Xr a e.0.a.R.R.E.N._ V ) IXIXIXIXIXIXIXIXIXIXIXIXIXIXIXIXIX",
"IXIXIXIXIXIXIXIXIXIXIXIXIXIXy.9.0.f.s @   9 0 j m.[.[.E./.*./ :.2X$XA m ] 4.IX2.8 9 q zXSXAXNXGX5XsX X9 a w.d.c.M.b.b.d._ T P IXIXIXIXIXIXIXIXIXIXIXIXIXIXIXIXIX",
"IXIXIXIXIXIXIXIXIXIXIXIXIXr.0.y.y.g.9.@ @ @ 9 u Z Z m.n.' ^.@.5 K.^.G c !  XIXe 9   Y lXSXAXCX9X%.4.3.8 p s d h.V.N.c.Z ) L * Y ) _ IXIXIXIXIXIXIXIXIXIXIXIXIXIX",
"IXIXIXIXIXIXIXIXIXIXIXIX_ y.q.0.h.Z.0.i 7 IXU q u V ) [ _ S./.&.oX&.r t 8 ! ] 0 9 9 N *.2X2X^.} # R IX8 i 0 8.r.h.e.j u t & * _ h.M._ IXIXIXIXIXIXIXIXIXIXIXIXIX",
"IXIXIXIXIXIXIXIXIXIXIXIXp.0.8.h.h.g.h.p.IXIXIXt j _ _ m.n.' $.%XI.n y r s w e 0 9 . } M Q N b < b P IXIXp p w s k s 8 e + & Y m.k.a.p.) IXIXIXIXIXIXIXIXIXIXIXIX",
"IXIXIXIXIXIXIXIXIXIXIXIX0.q.8.a.8.q.8.z.IXIXIXIX+ u g j _ [ [ ' [ T l u s p w 9 9 o ` #.} W / , b IXIXIXg w.t.p 0 0 y IXIXIX' s.b.Z j K IXIXIXIXIXIXIXIXIXIXIXIX",
"IXIXIXIXIXIXIXIXIXIXIXIX0.q.j r.d d g IXIXIXIXIXIXIXx J _ v.2.) G G u g s w 8 0   IXIXIX5 ] ) m + IXIXIXIXIXh k r w IXIXIXIXj e.h s C j IXIXIXIXIXIXIXIXIXIXIXIX",
"IXIXIXIXIXIXIXIXIXIXIXIXs.9.k 7.d u IXIXIXIXIXIXIXIXIXIXIXIXIXIXIXP O y q . e y IXIXIXIX# ~ %.` x IXIXIXIXIXIXIXIXIXIXIXIXIXIX_ f f 7.j IXIXIXIXIXIXIXIXIXIXIXIX",
"IXIXIXIXIXIXIXIXIXIXIXIXp.r.w d h q IXIXIXIXIXIXIXIXIXIXIXIXIXIXIXIX+ @ IXIXIXIX4 IX$ R M n ` ] P IXIXIXIXIXIXIXIXIXIXIXIXIXIXIXj s h h IXIXIXIXIXIXIXIXIXIXIXIX",
"IXIXIXIXIXIXIXIXIXIXIXIXIXM.s i p t IXIXIXIXIXIXIXIXIXIXIXIXIXIXIXJ m g V IXIX! - = $ @.b b ( ( W IXIXIXIXIXIXIXIXIXIXIXIXIXIXIXIXk i h IXIXIXIXIXIXIXIXIXIXIXIX",
"IXIXIXIXIXIXIXIXIXIXIXIXIXc.7.p w y IXIXIXIXIXIXIXIXIXIXIXIXIXIXT e.s.a.q.m IXIXIXIXIXW & o + 1 IXIXIXIXIXIXIXIXIXIXIXIXIXIXIXIXIXK i g IXIXIXIXIXIXIXIXIXIXIXIX",
"IXIXIXIXIXIXIXIXIXIXIXIXIXIXe.i w t IXIXIXIXIXIXIXIXIXIXIXIXIXIXg e.r.q.8.t IXIXIXIXIXIX# % $ , IXIXIXIXIXIXIXIXIXIXIXIXIXIXIXIXIXIXp ) IXIXIXIXIXIXIXIXIXIXIXIX",
"IXIXIXIXIXIXIXIXIXIXIXIXIXIXIXh w q IXIXIXIXIXIXIXIXIXIXIXIXIXIX[ f 7.8.g IXIXIXIXIXIXIX= - = IXIXIXIXIXIXIXIXIXIXIXIXIXT IXIXIXIXIX8 IXIXIXIXIXIXIXIXIXIXIXIXIX",
"IXIXIXIXIXIXIXIXIXIXIXIXIXIXIXIXg r IXIXIXIX].IXIXIXIXIXIXIXIXIXIXh f t.m IXIXIXIXIXIXIX7 > IXIXIXIXIXIXIXIXIXIXIXIXIXIXz.IXIXIXIXr u IXIXIXIXIXIXIXIXIXIXIXIXIX",
"IXIXIXIXIXIXIXIXIXIXIXIXIXIXIXIXIXG e F IXM.IXIXIXIXIXIXIXIXIXIXIXK d 7.IXIXIXIXIXIXIXIX> IXIXIXIXIXIXIXIXIXIXIXIXIXIXIXz.z.IXF u J IXIXIXIXIXIXIXIXIXIXIXIXIXIX",
"IXIXIXIXIXIXIXIXIXIXIXIXIXIXIXIXIXIXIXIXIXIXIXIXIXIXIXIXIXIXIXIXIXJ k j p.IXG IXIXIXIX> IXIXIXIXIXIXIXIXIXIXIXIXIXIXIXIXIXK [ ) IXIXIXIXIXIXIXIXIXIXIXIXIXIXIXIX",
"IXIXIXIXIXIXIXIXIXIXIXIXIXIXIXIXIXIXIXIXIXIXIXIXIXIXIXIXIXIXIXIXIXIXIXg J J G IXIXIXIX4 IXIXIXIXIXIXIXIXIXIXIXIXIXIXIXIXIXIXIXIXIXIXIXIXIXIXIXIXIXIXIXIXIXIXIXIX",
"IXIXIXIXIXIXIXIXIXIXIXIXIXIXIXIXIXIXIXIXIXIXIXIXIXIXIXIXIXIXIXIXIXIXIXIXIXIXIXIXIXIXIX> IXIXIXIXIXIXIXIXIXIXIXIXIXIXIXIXIXIXIXIXIXIXIXIXIXIXIXIXIXIXIXIXIXIXIXIX",
"IXIXIXIXIXIXIXIXIXIXIXIXIXIXIXIXIXIXIXIXIXIXIXIXIXIXIXIXIXIXIXIXIXIXIXIXIXIXIXIXIXIXIXIXIXIXIXIXIXIXIXIXIXIXIXIXIXIXIXIXIXIXIXIXIXIXIXIXIXIXIXIXIXIXIXIXIXIXIXIX",
"IXIXIXIXIXIXIXIXIXIXIXIXIXIXIXIXIXIXIXIXIXIXIXIXIXIXIXIXIXIXIXIXIXIXIXIXIXIXIXIXIXIXIXIXIXIXIXIXIXIXIXIXIXIXIXIXIXIXIXIXIXIXIXIXIXIXIXIXIXIXIXIXIXIXIXIXIXIXIXIX",
"IXIXIXIXIXIXIXIXIXIXIXIXIXIXIXIXIXIXIXIXIXIXIXIXIXIXIXIXIXIXIXIXIXIXIXIXIXIXIXIXIXIXIXIXIXIXIXIXIXIXIXIXIXIXIXIXIXIXIXIXIXIXIXIXIXIXIXIXIXIXIXIXIXIXIXIXIXIXIXIX",
"IXIXIXIXIXIXIXIXIXIXIXIXIXIXIXIXIXIXIXIXIXIXIXIXIXIXIXIXIXIXIXIXIXIXIXIXIXIXIXIXIXIXIXIXIXIXIXIXIXIXIXIXIXIXIXIXIXIXIXIXIXIXIXIXIXIXIXIXIXIXIXIXIXIXIXIXIXIXIXIX"
};
