/* XPM */
static char *result[] = {
/* columns rows colors chars-per-pixel */
"80 80 210 2 ",
"   c #15140A",
".  c #19170B",
"X  c #16190D",
"o  c #1C1B0D",
"O  c #1C1E10",
"+  c #161D10",
"@  c #221D0E",
"#  c #221F11",
"$  c #1D2111",
"%  c #1F2B17",
"&  c #24210F",
"*  c #2A240E",
"=  c #2C280F",
"-  c #31270E",
";  c #332A0E",
":  c #392F0F",
">  c #3A300F",
",  c #242312",
"<  c #2A2512",
"1  c #252A14",
"2  c #2C2A14",
"3  c #2C2A19",
"4  c #342C14",
"5  c #392E13",
"6  c #332E1A",
"7  c #302710",
"8  c #2C3216",
"9  c #353215",
"0  c #3B3215",
"q  c #3D3A17",
"w  c #35311B",
"e  c #3B341B",
"r  c #3C3A1B",
"t  c #373B19",
"y  c #3A3621",
"u  c #3E3A23",
"i  c #363320",
"p  c #413616",
"a  c #443916",
"s  c #493B17",
"d  c #42361A",
"f  c #443B1B",
"g  c #4A3E1B",
"h  c #503E19",
"j  c #443D23",
"k  c #493F21",
"l  c #4C421D",
"z  c #43411C",
"x  c #53451D",
"c  c #56481F",
"v  c #5B4A1F",
"b  c #464223",
"n  c #4C4323",
"m  c #4C4A24",
"M  c #47422A",
"N  c #4C452A",
"B  c #4F4A2D",
"V  c #474A26",
"C  c #524523",
"Z  c #544A23",
"A  c #5B4D25",
"S  c #524628",
"D  c #554B2A",
"F  c #5B4D2B",
"G  c #4F5326",
"H  c #5E5225",
"J  c #5D512C",
"K  c #575B2B",
"L  c #4F4930",
"P  c #534D32",
"I  c #565034",
"U  c #5B5333",
"Y  c #5F583A",
"T  c #595636",
"R  c #614E25",
"E  c #635326",
"W  c #62542C",
"Q  c #645A2C",
"!  c #6A5B2D",
"~  c #6C5927",
"^  c #725F2D",
"/  c #635632",
"(  c #665A34",
")  c #6B5C35",
"_  c #645B3B",
"`  c #6B5E39",
"'  c #705F30",
"]  c #6A602E",
"[  c #71612D",
"{  c #6D6233",
"}  c #6E613A",
"|  c #676B3A",
" . c #736334",
".. c #7A6634",
"X. c #756832",
"o. c #7C6C35",
"O. c #72643C",
"+. c #76693D",
"@. c #7C6C3C",
"#. c #7A673C",
"$. c #7C733E",
"%. c #737138",
"&. c #6D6443",
"*. c #6F6847",
"=. c #756943",
"-. c #7B6C43",
";. c #786B45",
":. c #7D7144",
">. c #7E724A",
",. c #777047",
"<. c #826E3C",
"1. c #806D37",
"2. c #84733E",
"3. c #806E42",
"4. c #837344",
"5. c #8B7644",
"6. c #857B45",
"7. c #8D7A44",
"8. c #84754A",
"9. c #897749",
"0. c #87794D",
"q. c #8B7B4D",
"w. c #937C44",
"e. c #917D49",
"r. c #857B54",
"t. c #8C7D52",
"y. c #907F52",
"u. c #8C814A",
"i. c #8D8044",
"p. c #94834C",
"a. c #9A844B",
"s. c #95894F",
"d. c #9C8A4E",
"f. c #988347",
"g. c #8E8054",
"h. c #8E835A",
"j. c #928355",
"k. c #998652",
"l. c #9B8A54",
"z. c #948559",
"x. c #97885D",
"c. c #9C8C5C",
"v. c #958A55",
"b. c #9D9056",
"n. c #9F935D",
"m. c #A28A4F",
"M. c #A28C53",
"N. c #A08E5C",
"B. c #A59456",
"V. c #AB9354",
"C. c #A4925C",
"Z. c #AB955C",
"A. c #A69E5E",
"S. c #AC995A",
"D. c #B49B5C",
"F. c #B99E5E",
"G. c #B19758",
"H. c #BBA15E",
"J. c #998C60",
"K. c #A39363",
"L. c #A89764",
"P. c #AA9966",
"I. c #A59B69",
"U. c #AC9C6A",
"Y. c #A49965",
"T. c #B19F6C",
"R. c #B39B61",
"E. c #AFA06E",
"W. c #AFA164",
"Q. c #B4A165",
"!. c #BCA364",
"~. c #B2A26E",
"^. c #BCA66C",
"/. c #BDA96B",
"(. c #AEA072",
"). c #B5A572",
"_. c #B8A772",
"`. c #BBAA75",
"'. c #BCAD7A",
"]. c #B4A778",
"[. c #B9B17D",
"{. c #C1A666",
"}. c #C0A76A",
"|. c #C4AB6B",
" X c #C9AE6D",
".X c #C1A864",
"XX c #CBB16F",
"oX c #C3AD73",
"OX c #C9AF70",
"+X c #C1AE78",
"@X c #CDB474",
"#X c #C5B47D",
"$X c #C9B67E",
"%X c #CFBD7F",
"&X c #D2BA7D",
"*X c #D0B776",
"=X c #BCAE82",
"-X c #BEB181",
";X c #CCBB83",
":X c #C8B987",
">X c #D2BE83",
",X c #CFC086",
"<X c #D4C185",
"1X c #D5C48A",
"2X c #D9C58A",
"3X c #DBC88F",
"4X c #DCCA93",
"5X c #D4C890",
"6X c #E1D19D",
"7X c None",
/* pixels */
"7X7X7X7X7X7X7X7X7X7X7X7X7X7X7X7X7X7X7X7X7X7X7X7X7X7X7X7X7X7X7X7X7X7X7X7X7X7X7X7X7X7X7X7X7X7X7X7X7X7X7X7X7X7X7X7X7X7X7X7X7X7X7X7X7X7X7X7X7X7X7X7X7X7X7X7X7X7X7X7X",
"7X7X7X7X7X7X7X7X7X7X7X7X7X7X7X7X7X7X7X7X7X7X7X7X7X7X7X7X7X7X7X7X7X7X7X7X7X7X7X7X7X7X7X7X7X7X7X7X7X7X7X7X7X7X7X7X7X7X7X7X7X7X7X7X7X7X7X7X7X7X7X7X7X7X7X7X7X7X7X7X",
"7X7X7X7X7X7X7X7X7X7X7X7X7X7X7X7X7X7X7X7X7X7X7X7X7X7X7X7X7X7X7X7X7X7X7X7X7X7X7X7X7X7X7X7X7X7X7X7X7X7X7X7X7X7X7X7X7X7X7X7X7X7X7X7X7X7X7X7X7X7X7X7X7X7X7X7X7X7X7X7X",
"7X7X7X7X7X7X7X7X7X7X7X7X7X7X7X7X7X7X7X7X7X7X7X7X7X7X7X7X7X7X7X7X7X7X7X7X7X7X7X7X7X7X7X7X7X7X7X7X7X7X7X7X7X7X7X7X7X7X7X7X7X7X7X7X7X7X7X7X7X7X7X7X7X7X7X7X7X7X7X7X",
"7X7X7X7X7X7X7X7X7X7X7X7X7X7X7X7X7X7X7X7X7X7X7X7X7X7X7X7X7X7X7X7X7X7X7X7X7X7X7X7X7X7X7X7X7X7X7X7X7X7X7X7X7X7X7X7X7X7X7X7X7X7X7X7X7X7X7X7X7X7X7X7X7X7X7X7X7X7X7X7X",
"7X7X7X7X7X7X7X7X7X7X7X7X7X7X7X7X7X7X7X7X7X7X7X7X7X7X7X7X7X7X7X7X7X7X7X7X7X7X7X7X7X7X7X7X7X7X7X7X7X7X7X7X7X7X7X7X7X7X7X7X7X7X7X7X7X7X7X7X7X7X7X7X7X7X7X7X7X7X7X7X",
"7X7X7X7X7X7X7X7X7X7X7X7X7X7X7X7X7X7X7X7X7X7X7X7X7X7X7X7X7X7X7X7X7X7X7X7X7X7X7X7X7X7X7X7X7X7X7X7X7X7X7X7X7X7X7X7X7X7X7X7X7X7X7X7X7X7X7X7X7X7X7X7X7X7X7X7X7X7X7X7X",
"7X7X7X7X7X7X7X7X7X7X7X7X7X7X7X7X7X7X7X7X7X7X7X7X7X7X7X7X7X7X7X7X7X7X7X7X7X7X7X7X7X7X7X7X7X7X7X7X7X7X7X7X7X7X7X7X7X7X7X7X7X7X7X7X7X7X7X7X7X7X7X7X7X7X7X7X7X7X7X7X",
"7X7X7X7X7X7X7X7X7X7X7X7X7X7X7X7X7X7X7X7X7X7X7X7X7X7X7X7X7X7X7X7X7X7X7X7X7X7X7X7X7X7X7X7X7X7X7X7X7X7X7X7X7X7X7X7X7X7X7X7X7X7X7X7X7X7X7X7X7X7X7X7X7X7X7X7X7X7X7X7X",
"7X7X7X7X7X7X7X7X7X7X7X7X7X7X7X7X7X7X7X7X7X7X7X7X7X7X7X7X7X7X7X7X7X7X7X7X7X7X7X7X7X7X7X7X7X7X7X7X7X7X7X7X7X7X7X7X7X7X7X7X7X7X7X7X7X7X7X7X7X7X7X7X7X7X7X7X7X7X7X7X",
"7X7X7X7X7X7X7X7X7X7X7X7X7X7X7X7X7X7X7X7X7X7X7X7X7X7X7X7X7X7X7X7X7X7X7X7X7X7X7X7X7X7X7X7X7X7X7X7X7X7X7X7X7X7X7X7X7X7X7X7X7X7X7X7X7X7X7X7X7X7X7X7X7X7X7X7X7X7X7X7X",
"7X7X7X7X7X7X7X7X7X7X7X7X7X7X7X7X7X7X7X7X7X7X7X7X7X7X7X7X7X7X7X7X7X7X7X~.~.`.`.`.`.`.`.`.).`.`.`.7X7X7X7X7X7X7X7X7X7X7X7X7X7X7X7X7X7X7X7X7X7X7X7X7X7X7X7X7X7X7X7X",
"7X7X7X7X7X7X7X7X7X7X7X7X7X7X7X7X7X7X7X7X7X7X7X7X7X7X7X7X7X7X7X7XP._.`.~.~.U.P.U.P.P.P.U.U.U.U.~.).`.`.7X7X7X7X7X7X7X7X7X7X7X7X7X7X7X7X7X7X7X7X7X7X7X7X7X7X7X7X7X",
"7X7X7X7X7X7X7X7X7X7X7X7X7X7X7X7X7X7X7X7X7X7X7X7X7X7X7X7X7X7XT.`.#X`.~.U.P.L.P.U.P.U.U.P.P.Y.P.P.P.P.U.U.).7X7X7X7X7X7X7X7X7X7X7X7X7X7X7X7X7X7X7X7X7X7X7X7X7X7X7X",
"7X7X7X7X7X7X7X7X7X7X7X7X7X7X7X7X7X7X7X7X7X7X7X7X7X7X7X7XU.+X#X+X`.`.~.U.~.~.~.E.E.U.E.~.~.).~.U.P.K.c.c.K.U.`.7X7X7X7X7X7X7X7X7X7X7X7X7X7X7X7X7X7X7X7X7X7X7X7X7X",
"7X7X7X7X7X7X7X7X7X7X7X7X7X7X7X7X7X7X7X7X7X7X7X7X7X7X7X+X;X;X+X`.+X`.~.K.r.*.Y P L B L I _ ,.j.L.~.P.C.c.c.L.U.).).7X7X7X7X7X7X7X7X7X7X7X7X7X7X7X7X7X7X7X7X7X7X7X",
"7X7X7X7X7X7X7X7X7X7X7X7X7X7X7X7X7X7X7X7X7X7X7X7X7X7X`.#X;X;X#X`.U.r.T j 6 6 4 4 6 6 2 2 < < 6 j _ j.L.L.K.K.K.K.U._.7X7X7X7X7X7X7X7X7X7X7X7X7X7X7X7X7X7X7X7X7X7X",
"7X7X7X7X7X7X7X7X7X7X7X7X7X7X7X7X7X7X7X7X7X7X7X7X~.U.P.).+X$XU.>.L i 6 6 3 , # @ @ < 6 < # @ o o @ 6 U q.L.U.K.N.K.~.`.7X7X7X7X7X7X7X7X7X7X7X7X7X7X7X7X7X7X7X7X7X",
"7X7X7X7X7X7X7X7X7X7X7X7X7X7X7X7X7X7X7X7X7X7X7XP.L.k.x.K.T.h.P u 6 3 , + O O , < 4 S -.B < , $ # @ . @ 6 ( z.P.K.P.T.).).7X7X7X7X7X7X7X7X7X7X7X7X7X7X7X7X7X7X7X7X",
"7X7X7X7X7X7X7X7X7X7X7X7X7X7X7X7X7X7X7X7X7X7XK.L.j.y.z.J.*.j u 3 O o O $ < , < w ( y.y.` 4 < , < @ @ @ . # k -.L.T.U.P.L.U.7X7X7X7X7X7X7X7X7X7X7X7X7X7X7X7X7X7X7X",
"7X7X7X7X7X7X7X7X7X7X7X7X7X7X7X7X7X7X7X7X7XJ.U.c.j.j.z._ u y , + O # 1 , * < 7 9 -.Y.c.} n e , , 7 @ @ # @ @ j ` K.U.K.c.K.T.7X7X7X7X7X7X7X7X7X7X7X7X7X7X7X7X7X7X",
"7X7X7X7X7X7X7X7X7X7X7X7X7X7X7X7X7X7X7X7X7X_.).K.c.h.T y 6 $ O < # 3 1 , < * < < k j.j.4.6.0./ 6 < 7 2 3 # @ o e ` c.K.z.J.T.).7X7X7X7X7X7X7X7X7X7X7X7X7X7X7X7X7X",
"7X7X7X7X7X7X7X7X7X7X7X7X7X7X7X7X7X7X7X7X~.#X+X_.K.Y u w O O 4 5 6 4 3 < < < < , 9 W -.t.U :.Y.=.6 6 4 5 5 @ @ . d O.c.L.P.~._.7X7X7X7X7X7X7X7X7X7X7X7X7X7X7X7X7X",
"7X7X7X7X7X7X7X7X7X7X7X7X7X7X7X7X7X7X7XK.#X;X;X`.*.j y $ o , 9 p d 4 4 3 < 2 2 < f +.U.'.U r :.I./ 5 6 5 6 2 @   # j =.K.).).`.`.7X7X7X7X7X7X7X7X7X7X7X7X7X7X7X7X",
"7X7X7X7X7X7X7X7X7X7X7X7X7X7X7X7X7X7X7X).;X;X#Xr.j j , , < * 9 a g d 9 1 e G e 9 f Q Y.[.I 9 Q E.J.j 9 0 4 2 < $ X < S 3.T._.+X+X).7X7X7X7X7X7X7X7X7X7X7X7X7X7X7X",
"7X7X7X7X7X7X7X7X7X7X7X7X7X7X7X7X7X7XJ.L._.:XK.B j i u P n 9 4 s l 0 , , H 0.N 0 z ] Y.[.U t | ~.).F e f 9 4 f j 6 O 6 / y.'.:X>X#X7X7X7X7X7X7X7X7X7X7X7X7X7X7X7X",
"7X7X7X7X7X7X7X7X7X7X7X7X7X7X7X7X7X7Xz.q.N.T.&.j y 8 _ I C S 9 p 5 4 r 4 ] C._ 9 f $.).`.} m >.`.`.Y f z e a C C / 3 @ k ` L.;X2X>X).7X7X7X7X7X7X7X7X7X7X7X7X7X7X",
"7X7X7X7X7X7X7X7X7X7X7X7X7X7X7X7X7Xz.8.-.0.r.j k < 2 U S f ( r 2 k 2.O.D ! s.x.n z 6.E.].>.K b.#XT.B l n e l g C ` y . 2 U 0.#X3X1X:X7X7X7X7X7X7X7X7X7X7X7X7X7X7X",
"7X7X7X7X7X7X7X7X7X7X7X7X7X7X7X7X7Xq.` ` 8.( j e @ & 9 4 f ) r r u.C.W @.0.X._.n._ =.g.J.0.:.).:Xh.e m C r Z C r k 4 o # j ` L.1X1X:XU.7X7X7X7X7X7X7X7X7X7X7X7X7X",
"7X7X7X7X7X7X7X7X7X7X7X7X7X7X7X7X0.-./ ) ,.j f < @ = 2 9 A R q { W.b.{ A.`.X.7.;X:X[.].I.~.:X5X].U 2 n A g ! ) 0 7 @ @ o 6 F 9.:X>X;XT.7X7X7X7X7X7X7X7X7X7X7X7X7X",
"7X7X7X7X7X7X7X7X7X7X7X7X7X7X7X7X0.` W ` ` e e @ * = q g R h d :.+X^.Q.#X,X(.O.6._.6X).,.#X5X).} Z f e H x ! <.C 5 - * o # k ` U.#X'.U.7X7X7X7X7X7X7X7X7X7X7X7X7X",
"7X7X7X7X7X7X7X7X7X7X7X7X7X7X7X7X0.( W =.L e 2 @ * 9 a x R F S u.oX@X%X,X1X4X=X8.Q s.'.'.'.h.) O.c.9.e C R A #.E a 0 * O # e / y.).L.K.v.7X7X7X7X7X7X7X7X7X7X7X7X",
"7X7X7X7X7X7X7X7X7X7X7X7X7X7X7X>.8.` ) *.r d * & ; 9 g R ) y.,.N. X@X&X>X2X4X6X:X} Q 6.I.>.J -.^./.Q.+.f R A E E g s = & o 4 D -.J.z.c.c.7X7X7X7X7X7X7X7X7X7X7X7X",
"7X7X7X7X7X7X7X7X7X7X7X7X7X7X7Xt.8.O.-._ 6 9 @ * : a v ~ ! M.T.^.OX&X:X>X2X3X4X+X{ p.h.( s.c.+.Q.W.Q.Z.U h R C R S g 0 = o , n ) j.x.K.K.7X7X7X7X7X7X7X7X7X7X7X7X",
"7X7X7X7X7X7X7X7X7X7X7X7X7X7X7Xt.t.3.0.P 6 4 @ ; a x E ~ R e.}.|.@X;XL.oX2X2X<X>X{ 7.:Xj.~.N.@.^.Q.!.^.8.d E h R E V r 2 o O j U t.K.T.U.7X7X7X7X7X7X7X7X7X7X7X7X",
"7X7X7X7X7X7X7X7X7X7X7X7X7X7X7Xj.z.t.t.j 6 2 < r l Z ^ A f ..R. XoX+Xk.c.>X>X;X-XJ o.#XC.s.@.s.}.!.T.p.9.g C R C ] K V 4 @ o e D 8.T._.T.x.7X7X7X7X7X7X7X7X7X7X7X",
"7X7X7X7X7X7X7X7X7X7X7X7X7X7X7Xz.K.N.t.j 4 , 8 z l H [ z r v M.|.N.P.`.v.1X:Xq.3.a ^ /.c.E  .D.}.}.Z.) W f g ! C E Q m z , X 3 n =.U._.).z.7X7X7X7X7X7X7X7X7X7X7X",
"7X7X7X7X7X7X7X7X7X7X7X7X7X7X7XK.~.~.t.y w , w m E  .Q V l p o.^.L.'.'.4.+XU.n a 0 ~ C.O.! B.}.{.Z.j.t.n p f ! E A { H l 1 $ 2 j ` U.).U.z.7X7X7X7X7X7X7X7X7X7X7X",
"7X7X7X7X7X7X7X7X7X7X7X7X7X7X7XU.:X;Xh.6 4 1 u K X.X.A K ! f g k.^.;XU./ c.h.4 0 a ! 1.2.V.|.{.e...e.L.A d d ! ^ Z +.X.Z 4 O 1 e / K.U.L.z.7X7X7X7X7X7X7X7X7X7X7X",
"7X7X7X7X7X7X7X7X7X7X7X7X7X7X7X~.;X:Xh.6 4 1 b ] 6.+.G &.@.x 5 A 3.9.U J j.} 0 Z X.f.G.}.}.G.7.~ 5.B.4.C h g ) 1.H O.4.! d O , e F x.K.J.z.7X7X7X7X7X7X7X7X7X7X7X",
"7X7X7X7X7X7X7X7X7X7X7X7X7X7X7X~.;X;Xh.3 6 1 r n u.4.K ,.u.H : : 5 A 9.L.Y.) E d. X*X|.F.f.1.1.m.}.M.k g E x @.2.H } 6.A r o 1 6 D z.J.N.y.7X7X7X7X7X7X7X7X7X7X7X",
"7X7X7X7X7X7X7X7X7X7X7X7X7X7X7XP.$X$Xh.3 2 3 z ] d.0.J :.d.~ s g g s ..<.E ! V.&X2XQ.a.5.w.V.F..XT.' p c v l 4.a.( +.s.A t & < w P j.c.z.t.7X7X7X7X7X7X7X7X7X7X7X",
"7X7X7X7X7X7X7X7X7X7X7X7X7X7X7XK.'.+Xg.6 2 2 b X.i.6.W +.p.' s c c a p x o.H.&X$XR.l.l.G.H.H.R.R. .d f x l C -.7.{ +.p.X.d @ , w F y.z.z.r.7X7X7X7X7X7X7X7X7X7X7X",
"7X7X7X7X7X7X7X7X7X7X7X7X7X7X7Xx.~.~.g.i < , q ] o.4.} W @. .g g l a c 1./.*X@X/.R.F.!.!.H.F.k./ d s g z f E o...H :.2.] 9 o < w U y.k.y.-.7X7X7X7X7X7X7X7X7X7X7X",
"7X7X7X7X7X7X7X7X7X7X7X7X7X7X7Xt.K.K.t.u < < 4 c H { 3.J H ! A a > z %.Q.@XXX@X.XF.G.G.R.m.5.A 5 C ) A w f )  .E Q :.! Z 2 o 3 w ( t.j.t.;.7X7X7X7X7X7X7X7X7X7X7X",
"7X7X7X7X7X7X7X7X7X7X7X7X7X7X7X-.j.x.y.M , < < 2 r H  .W Z S A l 9 G v.|.XXXX|.H.G.V.V.#.C 3. .d 0 W 3.f g A Z Z } ! l 9 , , 6 d ` t.t.0.7X7X7X7X7X7X7X7X7X7X7X7X",
"7X7X7X7X7X7X7X7X7X7X7X7X7X7X7X=.j.K.J.Y , 2 & * 5 x H ^ A l x C t K b. XXXXXH.H.G.V.<.^ ! e.4.k e R w.W f x n E ! A e 1 $ # w k ;.t.q.8.7X7X7X7X7X7X7X7X7X7X7X7X",
"7X7X7X7X7X7X7X7X7X7X7X7X7X7X7X&.y.P.P.*.< < @ * 4 q g Z H g r g t | W.XX XH.H.H.G.7.) M.e.9.<.f r ! w. .e f l H c a w 1 O < j D -.0.0.=.7X7X7X7X7X7X7X7X7X7X7X7X",
"7X7X7X7X7X7X7X7X7X7X7X7X7X7X7X7Xr.L.L.t.y , # + , 2 q p l l p 9 8 | Q.XX|.H.H.S.5.A C M.e.e.3.t m @.a.4.e g x l a 9 1 $ , 6 n ( 4.0.8.O.7X7X7X7X7X7X7X7X7X7X7X7X",
"7X7X7X7X7X7X7X7X7X7X7X7X7X7X7X7X;.z.c.t.P # # + O w g 9 p g s 0 8 K B.l.B.H.S.B.H a g a.p.q.<.m +.f.m.4.a l a 0 0 q $ o 1 j D O.8.8.;.7X7X7X7X7X7X7X7X7X7X7X7X7X",
"7X7X7X7X7X7X7X7X7X7X7X7X7X7X7X7X` 8.q.0.` 3 # # & z l 4 : 5 p p 9 t J l 2.D.D.S...r a w.q.7...} f.m.M.J > p : ; p l 1 , w D ( ;.4.>.O.7X7X7X7X7X7X7X7X7X7X7X7X7X",
"7X7X7X7X7X7X7X7X7X7X7X7X7X7X7X7X7XO.-.-.=.j # , , b C 0 ; : : : 4 ; ; n a.F.S.B.l.} x w.4.9.^ / s.l.3.w = 8 9 > a C w 3 k / ` -.3.;._ 7X7X7X7X7X7X7X7X7X7X7X7X7X",
"7X7X7X7X7X7X7X7X7X7X7X7X7X7X7X7X7X( =.-.-.U < , , 2 r q > > : : l 0 4 x  .4.V.B.A.k.H 2.<.5.! ~ s.4.e g j 1 9 > s 5 6 i / ` &.3.-.O.7X7X7X7X7X7X7X7X7X7X7X7X7X7X",
"7X7X7X7X7X7X7X7X7X7X7X7X7X7X7X7X7X7X` #.;.&.j # , , 2 9 ; ; > A [ g 0 p p l 7.S.A.s.~ 2.3.w.R ) 3.f 4 ~ ! z 8 ; 4 2 6 D ` ` #.-.=.( 7X7X7X7X7X7X7X7X7X7X7X7X7X7X",
"7X7X7X7X7X7X7X7X7X7X7X7X7X7X7X7X7X7XU O.#.O.( 3 & $ $ , = p x E X.x 0 4 4 4 Z 7.S.p.F } e.w.h d w - g  .Q x r < , 6 j ( ` O.O.=.` 7X7X7X7X7X7X7X7X7X7X7X7X7X7X7X",
"7X7X7X7X7X7X7X7X7X7X7X7X7X7X7X7X7X7X7X` O.O.&.S , # o X 2 s g v ! x p 5 < , 4 s E A S 4.e.5.j @ - s c Z c z 0 2 3 w F ( ` ` #.` U 7X7X7X7X7X7X7X7X7X7X7X7X7X7X7X",
"7X7X7X7X7X7X7X7X7X7X7X7X7X7X7X7X7X7X7XD ` O.#.O.j O @ o & 4 a a a s a p ; 1 $ ; ; = n 7.e.' @ 7 p g a 0 0 w 3 3 6 S / ( ` #.` ) 7X7X7X7X7X7X7X7X7X7X7X7X7X7X7X7X",
"7X7X7X7X7X7X7X7X7X7X7X7X7X7X7X7X7X7X7X7XU O.-.-.` y # @ o @ < 4 ; 5 9 q 2 % 8 f , $ D 2.#.j @ 7 ; ; ; = * , < 6 j U / ) ` ` ) 7X7X7X7X7X7X7X7X7X7X7X7X7X7X7X7X7X",
"7X7X7X7X7X7X7X7X7X7X7X7X7X7X7X7X7X7X7X7X7X/ ;.-.-._ i # @ . . # < = 2 1 1 6 l W 4 , F #.C 7 5 5 * * & $ $ $ 3 e S W ( ` ` ) F 7X7X7X7X7X7X7X7X7X7X7X7X7X7X7X7X7X",
"7X7X7X7X7X7X7X7X7X7X7X7X7X7X7X7X7X7X7X7X7XS ) ;.-.-.` u # @ . X o o o & 4 p 5 w 4 3 W W @ @ 7 5 < o X $ , 3 e k F / ) ) ( F 7X7X7X7X7X7X7X7X7X7X7X7X7X7X7X7X7X7X",
"7X7X7X7X7X7X7X7X7X7X7X7X7X7X7X7X7X7X7X7X7X7XS ` -.8.8.&.j < # O X   X , < , @ @ # 6 k # . . . o @ o # < 3 w k F W ) ) / F 7X7X7X7X7X7X7X7X7X7X7X7X7X7X7X7X7X7X7X",
"7X7X7X7X7X7X7X7X7X7X7X7X7X7X7X7X7X7X7X7X7X7X7XS O.0.q.y.3.I 6 # @ . X . X . . . o 3 o         o o , < 3 y k F / ) / / F 7X7X7X7X7X7X7X7X7X7X7X7X7X7X7X7X7X7X7X7X",
"7X7X7X7X7X7X7X7X7X7X7X7X7X7X7X7X7X7X7X7X7X7X7X7XS ` 0.y.j.t.&.j < # O . .     . o . .       o O , < w j C W / / W W D 7X7X7X7X7X7X7X7X7X7X7X7X7X7X7X7X7X7X7X7X7X",
"7X7X7X7X7X7X7X7X7X7X7X7X7X7X7X7X7X7X7X7X7X7X7X7X7Xn ( 8.y.y.q.;._ j 6 , O o o . X . . . . o # 3 i j S F / W W / F C 7X7X7X7X7X7X7X7X7X7X7X7X7X7X7X7X7X7X7X7X7X7X",
"7X7X7X7X7X7X7X7X7X7X7X7X7X7X7X7X7X7X7X7X7X7X7X7X7X7X7XU =.8.3.;.=.O.( D j y 6 3 3 3 3 i i j j k A F W / F W F S n 7X7X7X7X7X7X7X7X7X7X7X7X7X7X7X7X7X7X7X7X7X7X7X",
"7X7X7X7X7X7X7X7X7X7X7X7X7X7X7X7X7X7X7X7X7X7X7X7X7X7X7X7XS / ) O.#.O.O.O.` / A S S S S S D A F F F W W W F F C 7X7X7X7X7X7X7X7X7X7X7X7X7X7X7X7X7X7X7X7X7X7X7X7X7X",
"7X7X7X7X7X7X7X7X7X7X7X7X7X7X7X7X7X7X7X7X7X7X7X7X7X7X7X7X7X7XS J ( ` O.O.) W F W F W J F / F W F W W F C n 7X7X7X7X7X7X7X7X7X7X7X7X7X7X7X7X7X7X7X7X7X7X7X7X7X7X7X",
"7X7X7X7X7X7X7X7X7X7X7X7X7X7X7X7X7X7X7X7X7X7X7X7X7X7X7X7X7X7X7X7XC D / / W F F F F F W F F D A A S k k 7X7X7X7X7X7X7X7X7X7X7X7X7X7X7X7X7X7X7X7X7X7X7X7X7X7X7X7X7X",
"7X7X7X7X7X7X7X7X7X7X7X7X7X7X7X7X7X7X7X7X7X7X7X7X7X7X7X7X7X7X7X7X7X7X7Xn n C S C C C C C C C k j 7X7X7X7X7X7X7X7X7X7X7X7X7X7X7X7X7X7X7X7X7X7X7X7X7X7X7X7X7X7X7X7X",
"7X7X7X7X7X7X7X7X7X7X7X7X7X7X7X7X7X7X7X7X7X7X7X7X7X7X7X7X7X7X7X7X7X7X7X7X7X7X7X7X7X7X7X7X7X7X7X7X7X7X7X7X7X7X7X7X7X7X7X7X7X7X7X7X7X7X7X7X7X7X7X7X7X7X7X7X7X7X7X7X",
"7X7X7X7X7X7X7X7X7X7X7X7X7X7X7X7X7X7X7X7X7X7X7X7X7X7X7X7X7X7X7X7X7X7X7X7X7X7X7X7X7X7X7X7X7X7X7X7X7X7X7X7X7X7X7X7X7X7X7X7X7X7X7X7X7X7X7X7X7X7X7X7X7X7X7X7X7X7X7X7X",
"7X7X7X7X7X7X7X7X7X7X7X7X7X7X7X7X7X7X7X7X7X7X7X7X7X7X7X7X7X7X7X7X7X7X7X7X7X7X7X7X7X7X7X7X7X7X7X7X7X7X7X7X7X7X7X7X7X7X7X7X7X7X7X7X7X7X7X7X7X7X7X7X7X7X7X7X7X7X7X7X",
"7X7X7X7X7X7X7X7X7X7X7X7X7X7X7X7X7X7X7X7X7X7X7X7X7X7X7X7X7X7X7X7X7X7X7X7X7X7X7X7X7X7X7X7X7X7X7X7X7X7X7X7X7X7X7X7X7X7X7X7X7X7X7X7X7X7X7X7X7X7X7X7X7X7X7X7X7X7X7X7X",
"7X7X7X7X7X7X7X7X7X7X7X7X7X7X7X7X7X7X7X7X7X7X7X7X7X7X7X7X7X7X7X7X7X7X7X7X7X7X7X7X7X7X7X7X7X7X7X7X7X7X7X7X7X7X7X7X7X7X7X7X7X7X7X7X7X7X7X7X7X7X7X7X7X7X7X7X7X7X7X7X",
"7X7X7X7X7X7X7X7X7X7X7X7X7X7X7X7X7X7X7X7X7X7X7X7X7X7X7X7X7X7X7X7X7X7X7X7X7X7X7X7X7X7X7X7X7X7X7X7X7X7X7X7X7X7X7X7X7X7X7X7X7X7X7X7X7X7X7X7X7X7X7X7X7X7X7X7X7X7X7X7X",
"7X7X7X7X7X7X7X7X7X7X7X7X7X7X7X7X7X7X7X7X7X7X7X7X7X7X7X7X7X7X7X7X7X7X7X7X7X7X7X7X7X7X7X7X7X7X7X7X7X7X7X7X7X7X7X7X7X7X7X7X7X7X7X7X7X7X7X7X7X7X7X7X7X7X7X7X7X7X7X7X",
"7X7X7X7X7X7X7X7X7X7X7X7X7X7X7X7X7X7X7X7X7X7X7X7X7X7X7X7X7X7X7X7X7X7X7X7X7X7X7X7X7X7X7X7X7X7X7X7X7X7X7X7X7X7X7X7X7X7X7X7X7X7X7X7X7X7X7X7X7X7X7X7X7X7X7X7X7X7X7X7X",
"7X7X7X7X7X7X7X7X7X7X7X7X7X7X7X7X7X7X7X7X7X7X7X7X7X7X7X7X7X7X7X7X7X7X7X7X7X7X7X7X7X7X7X7X7X7X7X7X7X7X7X7X7X7X7X7X7X7X7X7X7X7X7X7X7X7X7X7X7X7X7X7X7X7X7X7X7X7X7X7X",
"7X7X7X7X7X7X7X7X7X7X7X7X7X7X7X7X7X7X7X7X7X7X7X7X7X7X7X7X7X7X7X7X7X7X7X7X7X7X7X7X7X7X7X7X7X7X7X7X7X7X7X7X7X7X7X7X7X7X7X7X7X7X7X7X7X7X7X7X7X7X7X7X7X7X7X7X7X7X7X7X",
"7X7X7X7X7X7X7X7X7X7X7X7X7X7X7X7X7X7X7X7X7X7X7X7X7X7X7X7X7X7X7X7X7X7X7X7X7X7X7X7X7X7X7X7X7X7X7X7X7X7X7X7X7X7X7X7X7X7X7X7X7X7X7X7X7X7X7X7X7X7X7X7X7X7X7X7X7X7X7X7X"
};
