/* XPM */
static char *result[] = {
/* columns rows colors chars-per-pixel */
"60 60 219 2 ",
"   c #3F3952",
".  c #3B3F58",
"X  c #423C53",
"o  c #3F4156",
"O  c #3C4359",
"+  c #3E4C5E",
"@  c #37465F",
"#  c #3F515E",
"$  c #344C64",
"%  c #3A4E62",
"&  c #2E566E",
"*  c #3D5363",
"=  c #3E5965",
"-  c #345569",
";  c #355D6D",
":  c #3C5D69",
">  c #355066",
",  c #2C5D74",
"<  c #3C646D",
"1  c #3E6C6E",
"2  c #3E6067",
"3  c #3F716D",
"4  c #2B677A",
"5  c #336373",
"6  c #3B6C72",
"7  c #316C79",
"8  c #386A72",
"9  c #3C7275",
"0  c #30727D",
"q  c #3B7579",
"w  c #3B7A7C",
"e  c #3A7A79",
"r  c #424355",
"t  c #46435A",
"y  c #414C59",
"u  c #49475C",
"i  c #43545D",
"p  c #4B555D",
"a  c #4D595F",
"s  c #435A5F",
"d  c #534152",
"f  c #4D4C63",
"g  c #415D61",
"h  c #495A63",
"j  c #505D61",
"k  c #52546A",
"l  c #5D596E",
"z  c #56576C",
"x  c #5A5D71",
"c  c #426363",
"v  c #426B66",
"b  c #416E6A",
"n  c #48666A",
"m  c #566A66",
"M  c #43746A",
"N  c #437A6D",
"B  c #497C6D",
"V  c #5A7A6D",
"C  c #486773",
"Z  c #596777",
"A  c #467978",
"S  c #547977",
"D  c #666275",
"F  c #676879",
"G  c #607F6F",
"H  c #B56F57",
"J  c #D97F59",
"K  c #3D847D",
"L  c #3E897B",
"P  c #3E967F",
"I  c #4B806F",
"U  c #438573",
"Y  c #448B74",
"T  c #428C79",
"R  c #498875",
"E  c #558371",
"W  c #5B8573",
"Q  c #5C8A77",
"!  c #43947B",
"~  c #459C7B",
"^  c #459376",
"/  c #529079",
"(  c #648B74",
")  c #628574",
"_  c #679076",
"`  c #69987A",
"'  c #46A27D",
"]  c #4DA47E",
"[  c #46A87F",
"{  c #54A57E",
"}  c #64A67F",
"|  c #EA875A",
" . c #F0905E",
".. c #F19662",
"X. c #F2A56B",
"o. c #F4AE71",
"O. c #F5B977",
"+. c #F6C27D",
"@. c #2C7381",
"#. c #2D7C86",
"$. c #287988",
"%. c #2D7381",
"&. c #5A7A84",
"*. c #697988",
"=. c #737887",
"-. c #6E7A8B",
";. c #817F8E",
":. c #2A858C",
">. c #2A888F",
",. c #328384",
"<. c #3B8482",
"1. c #3B8B84",
"2. c #398E8A",
"3. c #338C87",
"4. c #3C9385",
"5. c #39948C",
"6. c #31998F",
"7. c #3C9C89",
"8. c #389989",
"9. c #2A8B91",
"0. c #2E9392",
"q. c #399B91",
"w. c #319A94",
"e. c #2E908E",
"r. c #3BA48C",
"t. c #3BAA8D",
"y. c #36A38E",
"u. c #3FB28E",
"i. c #39A394",
"p. c #3BAB93",
"a. c #39AD9A",
"s. c #36A697",
"d. c #3EB494",
"f. c #3BB09A",
"g. c #438283",
"h. c #429B83",
"j. c #529488",
"k. c #6A8386",
"l. c #75858E",
"z. c #778A95",
"x. c #7D9192",
"c. c #43A482",
"v. c #45AC82",
"b. c #41AC8A",
"n. c #47A688",
"m. c #57AC81",
"M. c #46B385",
"N. c #42B48C",
"B. c #44BC8D",
"V. c #49BB87",
"C. c #41BA91",
"Z. c #43B795",
"A. c #57B897",
"S. c #63AB82",
"D. c #66B486",
"F. c #7AB987",
"G. c #7CBE8A",
"H. c #74B887",
"J. c #6AB28A",
"K. c #7F97A5",
"L. c #47C18B",
"P. c #49C38A",
"I. c #50C68C",
"U. c #53C98D",
"Y. c #5ACD8E",
"T. c #5BC896",
"R. c #5FD090",
"E. c #4AC190",
"W. c #7EC38B",
"Q. c #74C08F",
"!. c #64D291",
"~. c #6BD592",
"^. c #6AD09A",
"/. c #74DA95",
"(. c #79DD96",
"). c #75D598",
"_. c #67C991",
"`. c #7EE097",
"'. c #848995",
"]. c #89959C",
"[. c #8D8D99",
"{. c #899AA6",
"}. c #9B9CA6",
"|. c #9397A1",
" X c #96A2AB",
".X c #93AAB2",
"XX c #A3A5AE",
"oX c #B3B6BC",
"OX c #A5B7BE",
"+X c #83E399",
"@X c #8CE59B",
"#X c #8EE89B",
"$X c #90E99C",
"%X c #87DB95",
"&X c #F8CA85",
"*X c #F9D28D",
"=X c #FBDA94",
"-X c #FCDE99",
";X c #FCE19C",
":X c #FDE6A1",
">X c #FEEBA5",
",X c #FFEFA9",
"<X c #A8BAC2",
"1X c #B7BAC0",
"2X c #B7C8C9",
"3X c #ABC4C4",
"4X c #C4C8CC",
"5X c #C8D6D7",
"6X c #D4DBDC",
"7X c #C7CED1",
"8X c #DADFE0",
"9X c #D9E9E6",
"0X c #E3ECEA",
"qX c #E2E8E7",
"wX c #EDF5F2",
"eX c #F0F7F4",
"rX c #E8F3EF",
"tX c #C9E1DD",
"yX c None",
/* pixels */
"yXyXyXyXyXyXyXyXyXyXyXyXyXyXX                 yXyXyXyXyXyXyXyXyXyXyXyXyXyXyXyXyXyXyXyXyXyXyXX               yXyXyXyXyXyX",
"yXyXyXyXyXyXyXyXyXyXyXyXyXyXX X               yXyXyXyXyXyXyXyXyXyXyXyXyXyXyXyXyXyXyXyXyXyXyXX X             yXyXyXyXyXyX",
"yXyXyXyXyXyXyXyXyXyXyXyXyXyXa j j j p p h % + yXyXyXyXyXyXyXyXyXyXyXyXyXyXyXyXyXyXyXyXyXyXp j j p j j a i i y yXyXyXyXyX",
"yXyXyXyXyXyXyXyXyXyXyXyXyXa V ( _ _ _ W A 9 < % yXyXyXyXyXyXyXyXyXyXyXyXyXyXyXyXyXyXyXyXd m G ) ( _ ) E I M c r yXyXyXyX",
"yXyXyX,X,XyXyXyXyXyXyXyXX j _ F.%XF.%XJ.j.>.q = X yXyXyXyXyXyXyXyXyXyXyXyXyXyXyXyXyXyX  t V } %XW.W.H.D.[ ^ v r   yXyXyX",
"yXyXyX,X,X,XyXyXyXyXyX  X j ` %X@X%X$X).A.q.w =     yXyXyXyXyXyXyXyXyXyXyXyXyXyXyXyXyX  r ) F.%X@X@X`.^.I.' M o   yXyXyX",
"yXyXyX,X,X,XyXyXyXyXyX  X a _ ~.).).).A.j.<.8 +     yXyXyXyXyXyXyXyXyXyXyXyXyXyXyXyX    r m _ F.Q.).^.T.C.~ 1 r X yXyXyX",
"yXyXyX,X,X,X,X,XyXyXyX    a / _._.T.T.n.g.8 f @                 X                       X p m ) j.A.T.Z.Z.7.1 o   yXyXyX",
"yXyXyX,X,X,X,X,XyXyXyX    i Y V.Z.Z.Z.1.1 o o o                             o           X X r h A h.f.f.a.5.6 O X yXyXyX",
"yXyXyX,X>X>X>X:X:XyXyX    i M ' n.7.5.<.< # i # i y i i i a a a a a i i i p a c i # i i # # + = 9 1.5.q.h.#.g X   yXyXyX",
"yXyXyX,X,X:X-X-X=XyXyX    y c N N e q 9 9 6 3 3 N N N B V ) ( ( ( W I I I ( _ ( I M N N N M 9 6 9 q q q q 1 *     yXyXyX",
"yXyXyX,X>X;X*X&X&XyXyX      y i g g * 8 w 2.4.7.' ~ ' ] } H.F.%XW.Q.} [ { } W.} { ' ' ' ' 4.4.1.q : > h * + O     yXyXyX",
"yXyXyX>X>X=X&X+.+.yXyX  X       X X   < 1.a.d.L.P.P.P.I.!.`.#X#X#X`.!.U.Y./.#X(.!.P.P.P.L.C.d.q.q % . X X         yXyXyX",
"yXyX:X;X-X*X&X+.+.yXyXyX        . y : w 7.d.d.L.P.P.P.I.R./.(.(.`.~.Y.P.U.!.(.~.Y.I.P.L.L.B.d.p.<.< % O         yXyXyXyX",
",X,X;X=X*X&X&X+.+.yXyXyXyX      % < w 4.t.u.L.L.P.P.P.P.U.R.!.!.!.R.U.P.I.Y.!.Y.I.P.P.L.L.L.B.N.2.0 5 %       yXyXyXyXyX",
",X,X-X*X&X+.+.+.+.yXyXyXyXyX    * q q.p.u.L.L.L.L.P.P.P.I.I.I.U.I.U.P.P.P.I.I.P.P.P.L.P.P.L.B.B.r.3.%.; O   yXyXyXyXyXyX",
":X:X=X&X+.O.O.O.O.yXyXyXyXyXX X g <.a.Z.C.P.V.M.[ M.B.C.L.L.L.M.v.M.M.B.B.L.P.P.P.L.V.[ [ M.P.B.r.6.#.; O   yXyXyXyXyXyX",
"=X=X*X&X+.O.o.X.X.yXyXyXyXX X X g K d.N.V.L.[ ~ U ~ b.N.B.P.V.' Y T c.N.C.L.P.P.L.P.[ ~ Y ~ M.V.t.0.#.5 O   yXyXyXyXyXyX",
"&X*X&X+.+.o.X.....yXyXyXX X X X g T B.B.L.L.~ N c U 7.d.C.L.M.Y c M 2.p.Z.B.P.P.P.P.~ 3 c Y v.B.t.e.#.; O   yXyXyXyXyXyX",
"+.+.+.+.O.o...| | yXyXX X X X X g ^ V.L.P.L.Y g o 8 2.a.N.B.[ M y * w q.f.C.L.L.P.V.^ c t M ' B.y.0.#.; . X yXyXyXyXyXyX",
"+.+.O.O.o.X...| H yXyXF F F l X g T u.C.L.d.T g . = q 1.4.! U c r * w s.f.Z.Z.b.' ^ Q ) =.k./ h.4.>.,.; O   yXyXyXyXyXyX",
"yXyXo.X.X... .yXyXd l [.XX|.D X g K d.d.d.d.K g X + : 1 b b v i X * w i.f.f.f.h.U M k.]. Xx.S M e >.#.; O   yXyXyXyXyXyX",
"yXyXyX . . .yXyXyXX l |.7X1X;.d = K s.a.f.a.<.=     o O r y r o X % q s.a.a.a.2.1 p l.oX5X}.F y 8 #.#.5 O   yXyXyXyXyXyX",
"yXyXyX| | J yXyXX X l }.6X5X}.D Z &.6.6.6.7.w n p p p p p i y i p n w 5.q.q.n.g.C l |.4XqXXXD y ; #.#.5 O   yXyXyXyXyXyX",
"yXyXyXyX| H yX      l }.6X8XoX|.l.k.%.q q w R W ) ) ) W E B M E ) E B w q q q g.l.[.oX6X0XXXD o 5 #.#.5 o   yXyXyXyXyXyX",
"yXyXyXyXyXyXX       l }.8X0X6X4X.Xl.h = = = S ` F.F.F.H.} ] { } F.} V n = : * *.|.4X6XqX0XXXD O ; #.#.; O   yXyXyXyXyXyX",
"yXyXyXyXyXyXX X     l }.6XeXeXeX2X;.X X X X V F.$X$X$X@X~.U.U.~.@XW.) r X X X =.oXeXeXeXqXXXD o 5 #.#.; O   yXyXyXyXyXyX",
"yXyXyXyXyXi s s #   l |.6X0XrXeX4X|.x f t   m ` F.W.(./.!.U.I.D.F.` m r X f z [.4XeXrXrX6X XD O ; #.#.< O   yXyXyXyXyXyX",
"yXyXyXyXr c I N c r z ].2X9X0XwX5XXX-.Z f   p m ( } _.!.Y.I.[ { Q V a X f x -.{.7XwXrX9X2X.XZ O 5 #.#.; O   yXyXyXyXyXyX",
"yXyXyX  r b ~ ' N y k '.3XtX9XwX6X<X{.-.z   r u a I { I.I.P.[ ^ j u r X f *.{.OX5XeX9XtX3X{.l O ; #.#.5 O   yXyXyXyXyXyX",
"yXyXyX  o M ' M.T = z z..X3X5X9X7X<X{.-.z   . o # L ' P.P.P.[ Y = O .   k *.K.OX5X0X5X2X.Xx.m # 8 3.3.8 # y y yXyXyXyXyX",
"yXyXyX  o 3 ' V.! q A &.z..X<X7X<X{.*.&.f   + : 3 Y M.P.P.P.M.~ 9 : %   f x *.{.<X5XOX.Xx.k.S 3 L 8.8.L N v g yXyXyXyXyX",
"yXyXyX  o M ' B.v.4.g.S Z =.{.<X.X-.x f f   = q 2.7.N.P.P.P.V.t.4.q = . X f z -.{.<X X-.&.S / h.c.N.b.[ ~ U v r   yXyXyX",
"yXyXyX  r b ' P.d.a.5.6 % k -.{.z.x X X     : 2.s.Z.B.P.L.P.B.d.p.5.6 X     X x z..X-.z X b ' L.L.L.L.L.P.' M o   yXyXyX",
"yXyXyX  r v Y ~ v.p.r.K : C &.z.*.k         * q 1.h.~ ~ ~ ' ~ 4.2.w : X       k *.-.*.C : U v.L.L.L.B.L.P.v.U v s i yXyX",
"yXyXyXyXyXc v U P b.p.7.#.q Z &.x f X       % = 8 9 M M M M M 3 6 2 %       X u k &.&.C w h.M.L.C.C.C.C.P.M.' Y M c     ",
"yXyXyXyXyXy + s U v.N.t.h.g.C k y .         o O + y y i y y y y y O o       X X t f C <.q.N.B.B.C.d.d.C.L.V.M.M.^ v     ",
"yXyXyXyXyXyX  r M ' v.b.q.1.5 O       . O O O O O . O O O O O O O O O O O O O O O + 6 5.f.d.B.L.b.p.i.t.B.L.L.L.~ v     ",
"yXyXyXyXyXyXyXy v U Y K w 6 =     @ $ > - - & ; - ; ; - - ; ; - ; ; - : - ; - < < 6 K 7.d.C.L.V.c.<.<.7.u.C.d.C.P v     ",
"yXyXyXyXyXyXyXyXi g c = : * +   @ $ & 5 7 0 0 @.0 0 7 0 0 0 0 0 0 7 0 0 0 0 0 %.#.1.7.u.B.L.L.M.! 1 1 <.p.d.d.f.1.<     ",
"yXyXyXyXyXyXyXyXyXX             @ & 4 $.$.>.9.9.>.>.>.>.>.>.>.>.>.>.>.:.9.9.9.0.q.a.d.C.P.L.P.M.U i + e q.a.a.a.2.<     ",
"yXyXyXyXyXyXyXyXyX    X         @ & 0 $.:.>.9.9.0.0.6.6.6.6.6.6.6.6.6.6.0.6.6.y.p.f.C.C.P.P.P.M.L 2 : 8 ,.2.2.2.q <     ",
"yXyXyXyXyXyXyXyXyXyXyXyXyX      @ , $.:.:.9.9.w.w.y.t.t.t.t.t.t.t.t.u.t.t.t.t.u.d.C.B.L.P.P.P.M.P q 5 8 6 8 6 6 < = yXyX",
"yXyXyXyXyXyXyXyXyXyXyXyXyXyX    @ 4 :.>.:.9.0.w.s.a.u.L.u.u.B.L.u.u.u.L.u.u.u.L.B.B.L.L.P.P.P.B.r.3.%.5 = + + + + yXyXyX",
"yXyXyXyXyXyXyXyXyXyXyXyXyXyX    > 7 9.9.9.e.w.s.a.d.L.P.P.U.I.P.P.P.P.U.I.U.I.I.P.P.P.P.P.L.L.u.r.e.#.; O         yXyXyX",
"yXyXyXyXyXyXyXyXyXyXyXyXyXyX    # 7 >.e.6.y.a.u.d.B.L.P.U.R.R.U.P.U.Y.R.!.!.!.Y.I.P.L.P.L.L.B.u.6.>.0 - .       yXyXyXyX",
"yXyXyXyXyXyXyXyXyXyXyXyXyXyX    > 7 9.6.y.u.u.d.C.L.P.P.R././.R.U.U.!./.(.(.(.~.U.P.P.P.L.B.d.p.e.#.4 - . X   yXyXyXyXyX",
"yXyXyXyXyXyXyXyXyXyXyXyXyXyX  X # 4 :.6.u.L.P.L.L.P.P.U.~.+X`.~.U.Y.~.#X#X#X#X/.R.P.P.P.L.d.d.s.>.$., $     yXyXyXyXyXyX",
"yXyXyXyXyXyXyXyXyXyXyXyXyXyXyX  % 5 0 4.t.P.L.B.B.M.c.] S.H.H.} [ ] } W.W.W.W.} { [ v.M.u.p.s.w.,.4 & $ .   yXyXyXyXyXyX",
"yXyXyXyXyXyXyXyXyXyXyXyXyXyXyXyX+ - 5 e ' P.B.B.d.h.T B E Q ) E I I E ( ( ( _ ( I N T 4.y.y.w.0.%.; $ @   yXyXyXyXyXyXyX",
"yXyXyXyXyXyXyXyXyXyXyXyXyXyXyXyXyX@ O 3 ~ P.B.d.p.K < i i p a i i i p a a a a s i i 1 ,.0.0.0.:.7 > O . yXyXyXyXyXyXyXyX",
"yXyXyXyXyXyXyXyXyXyXyXyXyXyXyXyXyX  X c ! L.d.p.q.q #   X X             X     X X   - 7 :.:.:.#.5 O X yXyXyXyXyXyXyXyXyX",
"yXyXyXyXyXyXyXyXyXyXyXyXyXyXyXyXyX    c ! d.r.4.w 6 + X                 X           > 5 4 @.$.$.; O   yXyXyXyXyXyXyXyXyX",
"yXyXyXyXyXyXyXyXyXyXyXyXyXyXyXyXyX    2 L d.4.9 : = yXyXyXyXyXyXyXyXyXyXyXyXyXyXyXyX+ > - 5 4 4 - O   yXyXyXyXyXyXyXyXyX",
"yXyXyXyXyXyXyXyXyXyXyXyXyXyXyXyXyX    : <.a.K :   . yXyXyXyXyXyXyXyXyXyXyXyXyXyXyXyXyX. O $ , 4 & .   yXyXyXyXyXyXyXyXyX",
"yXyXyXyXyXyXyXyXyXyXyXyXyXyXyXyXyXyX  = w 2.9 * X   yXyXyXyXyXyXyXyXyXyXyXyXyXyXyXyXyX    $ & & $ .   yXyXyXyXyXyXyXyXyX",
"yXyXyXyXyXyXyXyXyXyXyXyXyXyXyXyXyXyXyX* < 6 : O X   yXyXyXyXyXyXyXyXyXyXyXyXyXyXyXyXyXyX  @ $ $ @     yXyXyXyXyXyXyXyXyX",
"yXyXyXyXyXyXyXyXyXyXyXyXyXyXyXyXyXyXyXyX+ + + . X   yXyXyXyXyXyXyXyXyXyXyXyXyXyXyXyXyXyXyX. O O       yXyXyXyXyXyXyXyXyX",
"yXyXyXyXyXyXyXyXyXyXyXyXyXyXyXyXyXyXyXyXX           yXyXyXyXyXyXyXyXyXyXyXyXyXyXyXyXyXyXyXyX          yXyXyXyXyXyXyXyXyX",
"yXyXyXyXyXyXyXyXyXyXyXyXyXyXyXyXyXyXyXyX            yXyXyXyXyXyXyXyXyXyXyXyXyXyXyXyXyXyXyXyX          yXyXyXyXyXyXyXyXyX"
};
