/* XPM */
static char *result[] = {
/* columns rows colors chars-per-pixel */
"80 80 149 2 ",
"   c #6E5967",
".  c #6E5C6A",
"X  c #745B69",
"o  c #7C5E6C",
"O  c #6E606E",
"+  c #71616E",
"@  c #7D626D",
"#  c #676776",
"$  c #6F6573",
"%  c #6A6877",
"&  c #656B7B",
"*  c #6A6E7C",
"=  c #716370",
"-  c #7A6472",
";  c #746A77",
":  c #716C7A",
">  c #6D717F",
",  c #73707E",
"<  c #825F6E",
"1  c #83616E",
"2  c #8A646F",
"3  c #856270",
"4  c #8B6371",
"5  c #846971",
"6  c #8C6C73",
"7  c #936673",
"8  c #996675",
"9  c #956A74",
"0  c #9B6976",
"q  c #9E6978",
"w  c #8C7176",
"e  c #957277",
"r  c #997177",
"t  c #947579",
"y  c #9B767A",
"u  c #96797B",
"i  c #9E7B7D",
"p  c #A46F77",
"a  c #A46C79",
"s  c #AA6F7A",
"d  c #B76B78",
"f  c #A57077",
"g  c #AD707B",
"h  c #A17E7F",
"j  c #AA7E7F",
"k  c #B1757B",
"l  c #B27E7F",
"z  c #BA797D",
"x  c #CB757E",
"c  c #5D7889",
"v  c #667584",
"b  c #607B8B",
"n  c #737481",
"m  c #717987",
"M  c #717B89",
"N  c #7A7E88",
"B  c #C57E81",
"V  c #CC7980",
"C  c #D67E83",
"Z  c #71808E",
"A  c #7C838D",
"S  c #6B8392",
"D  c #748491",
"F  c #788692",
"G  c #7F8A94",
"H  c #748B98",
"J  c #7E909A",
"K  c #7E97A1",
"L  c #9F8180",
"P  c #A18382",
"I  c #AF8181",
"U  c #A18987",
"Y  c #A18D8B",
"T  c #B38483",
"R  c #BE8483",
"E  c #B58A86",
"W  c #BD8986",
"Q  c #B78C88",
"!  c #B88E88",
"~  c #BC968D",
"^  c #BD988F",
"/  c #BB9B92",
"(  c #BBA39A",
")  c #809AA3",
"_  c #BBA9A0",
"`  c #CD8183",
"'  c #C28D88",
"]  c #CA8B88",
"[  c #D38384",
"{  c #DC8687",
"}  c #D48988",
"|  c #DE8A89",
" . c #C5948C",
".. c #CF988F",
"X. c #D4948E",
"o. c #C79D92",
"O. c #CF9990",
"+. c #D69C92",
"@. c #DD9D93",
"#. c #E38B8A",
"$. c #E6948F",
"%. c #E79690",
"&. c #E49891",
"*. c #E89A92",
"=. c #CAA295",
"-. c #C5A39A",
";. c #D3A195",
":. c #DDA396",
">. c #D7A499",
",. c #D4A899",
"<. c #D8AD9B",
"1. c #DDB29F",
"2. c #E6A397",
"3. c #EBA296",
"4. c #EDA699",
"5. c #E0AB9B",
"6. c #ECAB9B",
"7. c #F0AE9E",
"8. c #E3B19F",
"9. c #EBB19F",
"0. c #F1B09F",
"q. c #CEBBAD",
"w. c #EDB5A2",
"e. c #E6B9A3",
"r. c #ECBBA5",
"t. c #EEBCAA",
"y. c #F1B2A0",
"u. c #F5BCA5",
"i. c #F7BFA8",
"p. c #F3C3AA",
"a. c #F9C5AB",
"s. c #F2C8AE",
"d. c #FBCAAE",
"f. c #E8CBB7",
"g. c #EFCDB8",
"h. c #F2CCB2",
"j. c #FBCDB1",
"k. c #F2D1B7",
"l. c #FBD1B5",
"z. c #F3D3BB",
"x. c #FAD6BA",
"c. c #FBD9BD",
"v. c #F1DCC3",
"b. c #FADFC3",
"n. c #F1E0C7",
"m. c #FAE3C7",
"M. c #F1E2C9",
"N. c #FAE7CB",
"B. c None",
/* pixels */
"B.B.B.B.B.B.B.B.B.B.B.B.B.B.B.B.      .           X     .           .                                   +     .                 B.B.B.B.B.B.B.B.B.B.B.B.B.B.B.B.",
"B.B.B.B.B.B.B.B.B.B.B.B.B..   i ^ ! j 1 1 j ! ~ ~ ~ ~ / ( ( ~ ( ( ( ( ^ ! I 5 @ j ! ~ ~ ^ ~ / ( ( ^ ( ( _ ( ( ( ~ ! j 5 5 j E ~ u   . B.B.B.B.B.B.B.B.B.B.B.B.B.",
"B.B.B.B.B.B.B.B.B.B.B.B.6 w t ^ a.u.:.t t 5.u.d.d.d.d.l.m.c.d.c.N.m.c.j.u.6.y 6 +.0.d.d.d.d.l.b.c.j.c.m.m.m.m.c.d.u.:.t e :.u.a.^ t 6 6 B.B.B.B.B.B.B.B.B.B.B.B.",
"B.B.B.B.B.B.B.B.B.    @ ' 6.u.s.d.d.e.u t e.a.d.d.d.d.d.d.j.d.d.l.d.j.d.a.p.L w 1.d.d.d.d.d.d.d.d.d.j.j.j.j.j.d.d.d.8.u u e.d.d.s.i.6.' @     B.B.B.B.B.B.B.B.B.",
"B.B.B.B.B.B.B.. e W -.q.f.k.d.d.d.d.e.u u r.d.d.d.d.d.d.d.d.d.d.d.d.d.d.d.p.L w 1.d.d.d.d.d.d.d.d.d.d.d.d.d.d.d.d.d.e.t u p.a.d.d.j.l.f.q.-.' r   B.B.B.B.B.B.B.",
"B.B.B.B.B.B.1 r ~ i.h.m.m.c.j.d.d.a.8.t y 5.a.d.d.d.d.d.d.d.d.d.d.d.d.d.a.r.h w <.a.a.d.d.d.d.d.d.d.d.d.d.d.d.d.d.a.8.e t 8.p.d.d.j.c.b.b.l.r.~ t 1 B.B.B.B.B.B.",
"B.B.B.B.B.X 6 +.p.N.c.d.d.d.d.a.a.0.@.9 e +.y.d.a.a.d.a.a.a.d.a.a.d.a.a.u.2.y 2 X.0.a.a.a.d.a.a.a.a.d.a.a.a.d.a.a.0.@.e e @.0.d.d.d.d.d.d.c.N.s.+.e X B.B.B.B.B.",
"B.B.B.B.@ T >.g.v.x.j.d.d.a.y.4.*.$.} 6 7 } $.%.*.*.*.*.*.*.*.*.*.*.*.*.$.| 9 2 ` $.*.*.*.*.*.%.*.*.*.*.*.*.*.*.*.*.} 2 6 } $.*.4.y.p.d.j.j.l.c.g.>.T @ B.B.B.B.",
"B.B.B.  @  .p.x.l.j.d.d.i.0.*.$.#.{ x 2 1 p k s k g k g g g k g k g k g g f 5 @ p f k k f k g k g k k f k g k g k k f @ 2 x #.#.$.2.0.a.a.d.d.x.x.p. .@ . B.B.B.",
"B.B.B.@ 6 ,.d.d.d.d.d.i.7.*.#.#.[ x d < X X X X                                                                 X X o   < d x x { #.*.7.a.a.d.d.d.d.,.6 @ B.B.B.",
"B.B.  j :.u.d.d.d.d.u.4.%.#.#.z < < o   o 0 0 2 o                                                             o 2 8 0 @ X X 1 1 z #.#.*.4.0.j.d.d.d.r.@.j   B.B.",
"B.B.  E u.a.d.d.d.d.7.$.#.[ g 4       o 2 s s a 1                                                             < 0 s s 4 o X     2 g [ #.$.7.d.d.d.d.a.u.!   B.B.",
"B.5 6 o.d.d.d.d.a.a.3.#.` g @       X < 7 0 0 a 1                                                             < 0 0 a 2 1 X       o k ` #.3.a.d.d.d.d.d.o.w 5 B.",
"  y :.y.d.d.d.d.u.6.*.[ 9 X                                                                                     X X                 X 9 [ *.4.p.d.d.d.d.0.:.y   ",
"  h w.a.d.d.d.d.0.*.#.[ 7     o 3 7 7 8 7 2 o                                                                                         2 [ #.%.y.d.d.d.d.a.9.h   ",
"  P p.d.d.d.d.d.0.#.` k 1   o 2 0 a g s s q 1                                                                         < 1 1 1 1 o o X 2 k ` #.0.d.d.d.d.d.p.L   ",
"  h p.a.d.d.d.d.0.#.p     X 2 a s k k s d s 7                                                                       X 0 g s s g 0 4 o     a #.7.d.d.d.d.d.p.h   ",
"  y 6.u.d.d.a.y.2.#.p     o 0 s s s g g a 0 3                                                                       X 2 a s g g s p o     a #.2.0.a.d.d.u.6.y   ",
"  6 I ! ^ ^ ~ E l k 2     X 2 7 7 7 7 7 4 1 o                                                                         < 2 2 7 7 2 2 X     2 k I E ~ ~ ~ ! l 5   ",
"  X @ 5 5 5 5 @ 1 1 X         X X X X X o X X X                                                                   X X X o X X X X         X 1 1 1 5 5 5 5 1 +   ",
". e X.5.e.e.8.:.X.[ 0         o 4 0 a a a a 8 4 o                                                                 o 7 q a s 8 2 @     X   0 [ X.:.8.9.e.<.X.e   ",
"  i 9.p.d.d.a.u.3.#.f X n m * % o 8 g g s k s a <                                                                 4 a s s g 8 < : & m , X a #.6.p.a.d.d.a.9.i   ",
"  P h.l.d.d.d.d.7.#.a X ) J S & . 7 g g g g s s 3                                                                 7 s k g g 2   & S J G + f #.y.d.d.d.d.l.s.P . ",
". Y n.c.d.d.d.d.7.#.a   ) ) H n . 4 g g g g d s 2                                                                 7 g g g g 7   m H K G + f #.y.d.d.d.d.c.n.Y X ",
"  Y M.c.d.d.d.d.0.#.f + ; , ; - 3 q s s s d g g 3                                                                 7 s s d g 0 3 - : : : X p #.0.d.d.d.d.c.M.Y   ",
"  U z.x.d.d.d.d.0.#.f   X o 1 7 q a k s k s s a 3 .                                                               2 a s g g a 0 7 < o o . p #.0.d.d.d.d.x.c.U   ",
". P s.d.d.d.d.d.0.#.f   1 8 a s s s s s s s a 4 o                                                                 < 7 a s g s s s a 8 3   a #.0.d.d.d.d.d.p.L   ",
". Y z.x.d.d.d.d.0.#.f   X o o < < o o < o < X X                                                                     o o o o o o o o o X   a #.0.d.d.d.d.x.v.Y   ",
"  L z.x.d.d.d.d.0.#.f                                                                                         X o 3 4 4 4 4 4 4 4 4 @ X . f #.0.d.d.d.d.l.k.U   ",
". P p.d.d.d.d.d.0.#.f     X X o o X X o X X X                                                                 o 7 a g g g g g g g a q 4 X f #.0.d.d.d.d.d.p.L   ",
". L p.d.d.d.d.d.0.#.f   1 7 a a a a a a 0 7 <                                                               . 3 s s d g s g g g g g f 9 X f #.0.d.d.d.d.d.p.P   ",
"  L p.d.d.d.d.d.0.#.f X 7 a s s s g g g s a 4                                                                 4 g g s s k g g s d s k 9 X f #.0.d.d.d.j.d.p.P   ",
"  h r.a.d.d.a.a.6.#.a X 7 s d s g g k s g a 4                                                                 < a s g g g g g g s g s 7 X a #.6.a.a.d.d.a.r.L   ",
"  y 2.u.d.a.a.7.*.#.a   4 0 s s g d s g a 8 1                                                                 o 7 a s s g g g g g s 0 4 X a #.*.0.a.d.d.u.2.y   ",
"  @ e i L L i y r 9 1 . X o < 3 3 3 1 < 1 o X                                                                 X o o 3 3 3 3 4 3 < < o X . 1 9 r y h h L i e @   ",
"X @ y i L L h y r 9 3 . X o 3 3 < 3 3 o X X                                                                               X < < 1 3 o o . < 9 0 t h L L i r @   ",
"  y 2.u.d.d.a.7.*.#.s   4 0 s g s s s 0 4 X .                                                                           o 4 a s g a 0 3   f #.*.0.a.d.d.u.2.y   ",
"  h r.a.d.d.d.a.7.#.a X 7 s s s g g s s 8 X                                                                             < q s s s g s 7 o a #.7.a.a.d.d.a.r.h   ",
"  U k.l.d.d.d.d.0.#.f X 9 s g d g g g g 0 X                                                                             o a s d g g d 9 X f #.0.a.d.d.d.l.k.U . ",
"  Y M.c.d.d.d.d.0.#.f X 9 g g s g s g s 8 X     . O O . .                                                 . O O . .   . < a s s g g g 9 X p #.y.d.d.d.d.c.M.Y X ",
"  Y M.c.d.d.d.d.y.#.f X 3 0 s s s k s q 4 X     : D Z n . .                                             X $ M D D %     X 7 a s s s q 4   a #.y.d.d.d.d.c.M.Y   ",
"  U k.l.d.d.d.d.0.#.f X X < 3 4 4 4 4 < o       v S S m . .                                               % M S S %     X o < 4 4 3 < X X a #.y.d.d.d.d.x.k.P   ",
"  P h.j.d.d.d.d.0.#.f   X                       & c S m .                                                 $ D S c # .       X o o o o X   f #.0.d.d.d.d.j.s.P . ",
"  Y M.c.d.d.d.d.0.#.a                           & c S m O                                                 $ M S c #         o 4 a s 7 3   a #.0.d.d.d.d.c.M.Y   ",
". P k.l.d.d.d.d.7.#.a   . X < 4 9 8 7 o         & b S M .                                                 $ M S c %         3 a s s s 7 X f #.0.d.d.d.d.l.k.L   ",
". h p.d.d.d.d.d.w.#.a     o 7 a d s a -         & c H M .                                                 $ D b c %         4 s g g s 8 X f #.0.d.d.d.d.d.p.L X ",
"  h p.d.d.d.d.d.0.#.p     o a g g g a o         & c S m . .                                             . $ D M c #         4 s g g g 8 X f #.9.d.d.d.d.d.p.h   ",
". L p.d.d.d.d.d.y.#.p     o 7 0 g g s o         & c S M . .                                             . % M b c #         < 8 a s 0 2 X f $.0.d.d.d.d.d.p.h   ",
"  i 9.a.s.j.a.u.6.#.f     X 1 2 7 7 4 o . .     & b S m . .                                               $ M S c v         X < 4 4 3 o X p #.3.u.a.d.d.a.9.h   ",
"  e X.5.p.8.8.:.X.` 0   X X X X X X X X X       & c S m . .                                               $ M S c #                       9 [ X.:.8.e.e.5...e   ",
"  + 1 5 5 5 5 5 1 @ X   < 7 p p a s a 7 < X     & b S m . .                                               $ D b c #                       X 1 1 @ 5 5 5 5 @ X   ",
"  5 I ! ~ ~ ! E l k 2 X 7 a s g s g s a 7 X     & b S m .                                                 n M S c #     X o 4 4 4 o X     2 k l E ~ ^ ^ ! I 6   ",
"  y 6.u.d.d.a.0.3.#.f X 8 g g g g g g s q X     & b S M = X                                               $ M S c #     o 4 a d a 7 X     p #.3.y.a.d.d.u.6.u   ",
"  j p.d.d.d.d.d.7.#.f X 8 g s g g g g g 8 o     & b S m .                                                 $ D S c #     < a s s s a o X   p #.7.d.d.d.d.a.p.L . ",
"  L v.x.d.d.d.d.0.#.a X 2 a s g s d s a 4 X     & b S m . .                                               $ M S c #     o 7 a g a 7 o     p #.y.d.d.d.d.x.z.L . ",
"  Y M.b.d.d.d.d.0.#.a   o 2 9 8 7 8 7 4 <       & c S M . .                                               $ D b c #   . X < 7 7 4 1 X     a #.0.d.d.d.d.c.M.Y O ",
"  Y M.c.d.d.d.d.0.#.f     X X                   v b M m O                                                 : M M c #       X X X X X .     a #.y.d.d.d.d.c.n.Y   ",
"  P h.d.d.d.d.d.0.#.f X < 4 0 0 q q q 7 3       v b S m O                                                 % M b c # X < 4 8 q 8 0 8 4 <   f #.y.d.d.d.d.j.d.U   ",
"  U k.x.d.d.d.d.0.#.f   o 4 4 8 q s g q 7 X     O & n %                                                   O n v v . X 7 a s s a 9 6 2 @   p #.y.d.d.d.d.l.k.U   ",
"  Y v.c.d.d.d.d.0.#.f   O + + - 4 a g s 0 X                                                                         X 8 s s q 4 @ O O + X f #.0.d.d.d.j.c.v.U   ",
"  P s.d.d.d.d.d.0.#.a + A J D , X 7 s g 8 X                                                                         X q s g 8 X > D J A + f #.0.d.d.d.d.d.s.P   ",
"  P p.d.d.d.d.d.0.#.f + G K S >   7 g g 8 X                                                                         o q g g 7   * S J J O f #.0.d.d.d.d.d.p.L   ",
"  P p.d.d.d.d.d.0.#.f + N D v % X 8 s a 8 X                                                                         X 7 s g 8 X # * D A + f #.0.d.d.d.d.d.p.L   ",
"  P p.d.d.d.d.d.0.#.a   . . . @ 7 a s q 4                                                                           X 3 q s q 4 @ +       f #.0.d.d.d.d.d.p.P   ",
"  y 9.p.d.d.a.0.3.#.f         X o < < o X X                                                                           o o < o o X . X     a #.3.0.d.d.d.p.6.y   ",
"  6 W  .=.=... .R z 2   o 1 < 2 1 < 1 1 < o X                                                                     X o < < < 3 3 < < o X   7 z R ' o.=.=. .W 6   ",
"    X X X + + X o X   X 1 q s s g g s k a 8 <                                                                     3 8 s d g g g s s 0 4   . X X X @ + + + +     ",
"  e  .;.<.1.,...] B 9 X 7 s s s g g d s s s 4                                                                     4 s s g g g g g g a 7 X 7 ` ] ..,.<.1.;.] e   ",
"  h 9.a.d.d.a.u.3.#.f X 7 a s g g g g g s a 4                                                                     7 s s g g g g g g g 8 X f #.4.u.a.d.d.a.9.i   ",
"  L s.d.d.d.d.d.0.#.f   < 7 a a a a a a 0 4 <                                                                     4 s s g g g d g g s 9 X f #.0.d.d.d.d.d.s.P   ",
"  Y n.x.d.d.d.d.0.#.s     X X X X X o X X X                                                                       3 0 a s g s s g s 8 4 X a #.0.d.d.d.d.c.z.Y   ",
"  Y M.c.d.d.d.d.0.#.p           .       X .                                                                     . o o 3 4 4 4 2 4 3 1 o   f #.y.d.d.d.d.b.M.Y   ",
"  Y z.c.d.d.d.d.0.#.f   X X < < o o o o X                                                                                                 p #.7.d.d.d.d.x.z.Y   ",
"  L s.d.d.d.d.d.0.#.f X 2 7 a s s s s 7 < X                                                                               .               p #.7.d.d.d.d.d.p.L . ",
"  y 9.p.j.d.d.0.2.#.f X 7 s s s g g d a 7 o                                                                           o 4 7 9 8 8 4 o     p #.3.u.a.d.d.p.6.h   ",
"  r *.4.0.0.0.3.$.{ p X 7 a s d g g s a 7 X                                                                         X 4 a s g g g 8 o     a #.%.3.0.0.0.4.&.r   ",
"  9 { { { { | { x x 8   < 8 p s s s s 7 3 X                                                                         X 0 s s s s 8 4 X     8 x x #.{ { { { [ 0   ",
"  X 2 2 2 2 2 2 2 2 o X X o o < o < o o X                                                                           X o o o o o o X       o < 2 2 2 2 2 2 2 X   ",
"                                    . .                                                                                 X       .                               ",
"                                                                                                                                                                "
};
