/* XPM */
static char *result[] = {
/* columns rows colors chars-per-pixel */
"80 80 178 2 ",
"   c #635262",
".  c #6B5765",
"X  c #6D5967",
"o  c #6D5C6A",
"O  c #725967",
"+  c #735B69",
"@  c #7A5D6B",
"#  c #6B606F",
"$  c #73606D",
"%  c #7B616D",
"&  c #646575",
"*  c #6E6472",
"=  c #6F6876",
"-  c #636D7C",
";  c #6D6E7C",
":  c #736673",
">  c #736875",
",  c #726D7A",
"<  c #786775",
"1  c #6E717F",
"2  c #75707C",
"3  c #815F6C",
"4  c #83636E",
"5  c #8A636F",
"6  c #836671",
"7  c #8C6471",
"8  c #846971",
"9  c #8A6C74",
"0  c #836B78",
"q  c #936673",
"w  c #936B74",
"e  c #9B6A75",
"r  c #9E6C78",
"t  c #986371",
"y  c #8F7176",
"u  c #937177",
"i  c #997176",
"p  c #937279",
"a  c #9A757A",
"s  c #9C7A7D",
"d  c #95787B",
"f  c #A26C75",
"g  c #A36C78",
"h  c #AA6F7A",
"j  c #B66B78",
"k  c #A4737B",
"l  c #AD717B",
"z  c #A37A7E",
"x  c #AC7B7E",
"c  c #B1727C",
"v  c #B57A7E",
"b  c #BA787D",
"n  c #CA747E",
"m  c #9E807F",
"M  c #5F7283",
"N  c #637383",
"B  c #6C7584",
"V  c #6D7887",
"C  c #647D8D",
"Z  c #6C7B89",
"A  c #727987",
"S  c #717E8B",
"D  c #777784",
"F  c #A47F81",
"G  c #AE7E82",
"H  c #B57C82",
"J  c #CE7C81",
"K  c #C27D80",
"L  c #D67F83",
"P  c #73818E",
"I  c #678292",
"U  c #6C8897",
"Y  c #6F8A98",
"T  c #738492",
"R  c #7A8691",
"E  c #748996",
"W  c #7D8993",
"Q  c #758D9A",
"!  c #7D8E99",
"~  c #74919E",
"^  c #7D939D",
"/  c #7994A0",
"(  c #7D98A3",
")  c #9E8383",
"_  c #9E8887",
"`  c #9E8B8A",
"'  c #818F98",
"]  c #81919A",
"[  c #A78183",
"{  c #AD8485",
"}  c #AF8885",
"|  c #B38485",
" . c #BB8485",
".. c #B68C87",
"X. c #BA8986",
"o. c #BD8688",
"O. c #B58B89",
"+. c #BC8E8C",
"@. c #B6928B",
"#. c #BB938D",
"$. c #BB988F",
"%. c #BA9C94",
"&. c #B9A39A",
"*. c #B9A097",
"=. c #8299A3",
"-. c #84A1AA",
";. c #B9A9A0",
":. c #CD8284",
">. c #C28E8C",
",. c #CB8A87",
"<. c #D48385",
"1. c #DA8687",
"2. c #D38887",
"3. c #D58988",
"4. c #DF8B8B",
"5. c #C1928F",
"6. c #CF968E",
"7. c #D6928C",
"8. c #C49590",
"9. c #C59C91",
"0. c #D59D92",
"q. c #DA9C92",
"w. c #E28C8B",
"e. c #E98E8C",
"r. c #E58487",
"t. c #E7938E",
"y. c #EA938F",
"u. c #E59690",
"i. c #EC9691",
"p. c #EA9A93",
"a. c #E19F94",
"s. c #C7A094",
"d. c #C6A298",
"f. c #DEA295",
"g. c #D5A798",
"h. c #D5AC9B",
"j. c #DAAC9B",
"k. c #D7A397",
"l. c #DDB39F",
"z. c #EEA297",
"x. c #EEA498",
"c. c #E5AB9B",
"v. c #ECAC9C",
"b. c #F1A397",
"n. c #F3AC9D",
"m. c #F3A699",
"M. c #E2B19F",
"N. c #EBB09E",
"B. c #F3B09F",
"V. c #CEBCAD",
"C. c #E5B7A2",
"Z. c #ECB5A1",
"A. c #E6BBA4",
"S. c #EEBDA6",
"D. c #EFBDAA",
"F. c #F5B3A1",
"G. c #F5BBA5",
"H. c #FABDA6",
"J. c #EEC0A7",
"K. c #EEC3AB",
"L. c #F6C3A9",
"P. c #FBC4AB",
"I. c #F7C8AD",
"U. c #FBCAAE",
"Y. c #EECCB4",
"T. c #EACFBA",
"R. c #FECEB1",
"E. c #F1CFB9",
"W. c #F4C4B0",
"Q. c #EDD4BC",
"!. c #FED2B5",
"~. c #FED6BA",
"^. c #FEDABD",
"/. c #EDDBC3",
"(. c #FEDEC1",
"). c #FDE2C5",
"_. c #FEE7CA",
"`. c None",
/* pixels */
"`.`.`.`.`.`.`.`.`.`.`.`.`.`.`.`.X O X X X X X X O X X X X X X X X X X X X O O X + O X O X X X X X X X X # X X X X X X X X X X X `.`.`.`.`.`.`.`.`.`.`.`.`.`.`.`.",
"`.`.`.`.`.`.`.`.`.`.`.`.`.    d @.X.x % 4 m X.#.$.$.@.%.&.*.$.&.;.&.&.$.@.m 4 % v m @.$.$.$.$.&.&.$.&.&.;.&.&.&.$.@.x % % x @.@.d     `.`.`.`.`.`.`.`.`.`.`.`.`.",
"`.`.`.`.`.`.`.`.`.`.`.`.8 9 y %.I.P.f.y u f.P.U.!.U.U.~.).^.!.(._._.(.!.P.c.i 8 q.L.U.R.U.U.!.).^.!.(._._._._.(.U.P.c.u u j.P.P.%.y 9 8 `.`.`.`.`.`.`.`.`.`.`.`.",
"`.`.`.`.`.`.`.`.`.+ O 8 >.v.S.L.U.U.A.p u A.U.U.U.U.U.U.U.U.U.U.!.!.U.I.U.J.s y l.U.U.U.U.U.U.R.R.U.U.R.R.R.U.U.U.U.M.u u N.U.I.L.S.v.+.6 o + `.`.`.`.`.`.`.`.`.",
"`.`.`.`.`.`.`.  w X.d.V.T.~.!.U.U.U.S.y p A.R.U.U.U.I.U.P.U.U.U.U.U.U.U.U.L.m 9 l.!.P.U.U.U.U.U.U.I.U.U.U.I.U.U.U.R.A.u p A.!.U.U.R.~.T.V.d.X.y . `.`.`.`.`.`.`.",
"`.`.`.`.`.`.% w @.D.^.).).^.!.U.U.U.M.u p M.P.R.U.U.!.U.U.R.R.U.U.U.U.U.U.N.d 9 j.U.U.U.!.U.U.U.R.U.U.U.U.U.U.R.U.U.M.y y M.P.U.U.R.(.).).^.S.@.w @ `.`.`.`.`.`.",
"`.`.`.`.`.O w 0.W.).^.U.U.U.I.I.L.F.q.9 9 q.F.L.P.P.P.P.P.P.P.I.P.P.P.P.B.c.u 8 6.B.P.P.P.L.P.P.I.P.I.P.P.P.I.P.L.B.q.y 9 q.B.P.I.U.I.R.R.^.).K.0.w + `.`.`.`.`.",
"`.`.`.`.% | g.E.(.~.U.U.U.I.B.z.p.i.3.7 7 3.p.p.p.p.p.p.p.p.p.p.p.p.p.p.i.4.w 4 :.i.i.p.p.p.p.p.i.p.p.p.p.p.p.p.p.p.3.7 7 2.p.p.x.F.I.I.R.I.!.^.Q.k.| % `.`.`.`.",
"`.`.`.  % 9.P.^.E.U.U.U.H.B.z.t.w.r.J 7 @ g j h h h l l h h h l l h h l c h 3 @ e c l l l l h l h h l l l l h l l c f % 5 n r.e.t.p.B.L.P.U.U.^.^.I.5.%   `.`.`.",
"`.`.`.+ 9 g.U.U.U.U.I.L.n.p.w.1.J n j 3 X + + + % @ + @ + @ + @ % + $ O o O X X o o X X X O O + @ @ + @ + + + @ + + O X 5 j n <.1.e.p.N.L.U.U.U.U.R.g.9 @ `.`.`.",
"`.`.@ x q.J.U.U.U.U.G.v.i.w.w.b 5 @ @ O + 3 t r f f f g f f g g f f f 5 @ X o o - - X X O 4 q f f f f g f f g g f t 5 @ O @ @ 5 b w.e.u.x.B.R.U.U.U.G.f.z + `.`.",
"`.`.@ m L.P.U.U.U.U.N.y.w.<.h 5 o . O @ q f G j c c c c c c c c c j c f 7 . . * - - X . + q g l c c c c c c c c b h e 5 % X   X 5 l <.e.u.B.U.U.U.U.U.G...X `.`.",
"`.% w 9.I.R.U.U.P.L.z.4.<.l % . . . + 3 q e e e e f e e e e e e r r f e 5 . . o M - X . O 7 e f e f e f r e r r r g e q 3 O o X . % l :.w.z.L.I.U.I.U.U.9.9 % `.",
". i 0.G.U.U.U.U.L.v.i.<.e O X X . o O + O + @ @ + + + @ @ + @ + + + + + X o . * M - # X O + $ O + + O O + + O + O O O O O X X X X X O e <.i.v.L.U.U.U.U.L.q.i . ",
"X s Z.U.U.U.U.U.B.i.e.1.7 . . + 3 q e e q q e q q e q q e q q q t q 7 5 @ O . o M - # X X X . . . X . . . . . . . . . . . X X X X X . 5 <.e.i.B.U.U.U.U.U.N.m . ",
". m J.!.U.U.U.U.B.w.:.c 4 X @ 5 e h l c v H H H H H H H H H H H  .v l e 3 O X # I - $ . X % 4 5 9 9 9 9 9 9 9 9 y 9 9 9 9 4 5 4 @ @ X 5 v J w.B.U.U.U.U.R.J.m . ",
"X s S.U.U.U.U.U.B.w.f + X + 7 g h h l H X.5.5.5.8.5.5.8.5.5.8.8.5. .H h 7 O . # S A o . + q l H X.5.5.5.8.+.8.8.+.8.+.8.+. .H h r 7 @ X O g w.B.I.U.U.U.U.B.m X ",
"X a c.P.U.U.P.G.z.4.f X X % e l l j c X.8.8.8.8.8.8.8.9.8.8.8.8.8.5. .H q O . * S A o . + q H o.8.8.8.8.8.8.8.9.8.8.8.8.8.8. .l h f @ . o f w.z.G.P.U.U.P.v.s X ",
"X 8 x ..@.$.@.| x l 5 X X @ 5 q 7 q q a s s s s s a s s s s a s s s i 7 @ X . * Z B o X O 3 w F a s s s s a s s F F p s p F i q q 5 + X X 5 l v | @.$.@...m 4 X ",
"X + 4 8 8 8 8 4 4 4 + o X X X X o + + % % % % % % % % % % % % % % @ % % @ @ O # N N o O @ @ % % % % % % % % % % + % % % % @ O o X X O X X + % 4 8 8 8 8 4 4 $ X ",
"X u 6.c.M.M.M.f.7.:.e O X X o . X 7 k H X.O.O.O.O.O.O.O.O.O.O.O.O.+.O.O.H r 3 # Z B + 7 g | O.+.O.O.O.O.O.O.O.O.O.O.O.+.{ g 7 O . X X X O r :.3.f.M.M.A.M.7.w X ",
". s N.U.!.!.U.P.n.w.f O & - 1 ; & < w O.8.8.8.9.8.8.8.8.9.8.8.8.8.8.8.8.5.| 7 # Z N o y o.8.8.8.9.8.8.8.8.8.8.8.8.8.8.8.O.q < - 1 1 - & o f w.n.L.U.!.U.U.N.s . ",
"X m Y.!.U.U.U.R.F.4.f # N I Q Y C & % { 8.8.8.8.8.5.8.8.8.8.8.8.8.8.8.8.8.5.9 # N N + a 8.8.8.8.8.8.8.8.8.8.8.8.8.8.8.8.{ $ & C Y Q I N # f w.F.U.U.U.I.!.Y._ . ",
". ` Q.(.U.U.U.U.F.w.f + B E =./ T ; % { 8.8.8.8.8.5.8.8.8.8.8.8.5.8.8.8.8.+.9 * Z V $ a +.8.8.8.8.8.8.8.8.5.5.8.8.8.8.8.{ % = T ^ ( Q V O f 4.F.U.U.U.U.(.Q.` X ",
". ` /.).I.U.U.U.B.4.k $ * > , , = 6 r O.8.8.8.8.8.8.8.8.8.8.8.8.8.8.8.8.9.+.9 * S A + a 8.8.8.8.8.8.8.8.8.8.8.5.8.8.8.8.X.r 6 = , , = * o f w.F.U.U.U.U.)./.` . ",
". _ Q.^.U.U.U.U.B.4.f X @ 6 9 9 9 k H 5.8.8.8.8.8.8.8.8.8.8.8.8.8.8.8.8.5. .7 : T S $ u +.5.8.8.8.8.8.8.8.8.8.8.8.8.8.8.5. .F y 9 9 6 @ O f 4.F.U.U.U.U.^.Q._ . ",
"X m J.!.U.U.U.U.B.4.f $ q l O.+.+.+.5.+.+.+.+.+.+.+.+.+.+.+.+.+.+.+.#.+.H g @ > ] W + 7 h | +.+.+.+.+.+.+.+.+.+.+.#.#.+.+.+.o.O.O.o.x q + f 4.F.U.U.U.U.R.J.m X ",
". ` Q.^.U.U.U.U.B.4.f O + 4 6 8 8 6 8 6 6 6 6 6 0 8 6 8 6 6 0 6 6 8 6 6 4 3 X > ' ' + + @ 6 6 6 6 6 6 < 6 6 6 6 6 % 6 6 6 6 6 6 6 6 @ @ + g 4.F.U.U.U.U.(.Q._ . ",
". _ E.^.U.U.U.U.B.w.f O . . .   . . . . . . . . . . . . . . . . . . . . . . X > =.' O + 6 q y p p p p p p p y p p p p y p p y p p 9 7 @ + f t.B.U.U.U.U.~.Q.m X ",
". m J.U.U.U.U.U.B.w.f X X O @ @ @ + + + @ + + + + @ @ + @ + + @ + @ + + + O X > ' R + 7 H +.8.5.8.8.8.+.8.8.5.8.5.5.5.8.8.8.8.+.6.5.| e @ i 4.B.U.U.U.U.R.J.m X ",
". m J.U.U.U.U.U.B.w.k $ 4 q r f g g g g g g g g g g g g g g g g g g g g e 7 @ * T A $ w +.5.8.8.8.8.8.8.8.8.5.8.8.8.8.8.8.8.8.8.8.8.5.x % f 4.G.U.U.U.U.R.J.m . ",
". m J.!.U.U.U.U.B.u.f O 5 l l l l l l H h j h H c h c c h c l l h H j h h f @ : E S $ F 8.8.8.5.8.8.8.8.5.8.8.8.8.5.5.8.8.8.8.8.5.8.9.m % e 4.N.U.U.U.U.R.J.m . ",
". s N.!.U.U.U.I.n.w.g @ q j h h h h H h j h h H h h H h h j h H h h l l h g 3 > ! R + i +.8.8.8.8.8.8.8.8.8.8.8.8.8.8.8.8.8.8.8.8.8.>.z @ r w.B.P.U.U.U.R.S.m . ",
". i c.B.P.I.L.v.p.1.r + 3 e g G h h h h h h h h h h h h h h g h h h h h g q @ * P A # 7 H o.8.8.+.8.8.#.+.8.8.+.+.8.8.8.+.8.8.+.5.+.H e @ r 3.p.N.L.I.P.B.f.d . ",
"X % u d s s a u w q 3 X + @ @ 3 3 3 3 3 @ 3 % 3 3 3 3 3 3 3 5 @ 3 3 3 3 @ @ O # P Z + + @ 7 8 8 9 9 0 9 0 9 0 9 9 0 9 0 9 9 0 9 9 6 4 @ O @ q w i d s s d w % X ",
"X % u d s d s u w 7 @ o @ 5 9 9 9 7 9 9 9 9 9 9 9 7 9 9 9 9 9 0 9 9 9 9 6 3 + # Z B o + 3 6 9 9 0 9 8 9 9 9 9 9 9 9 9 9 8 9 8 9 9 9 6 @ O % q w u d m d d w % X ",
". i f.G.L.I.L.v.p.1.r @ t H >.5.8.+.8.+.+.8.+.8.8.+.8.+.+.#.8.5.8.+.8.5.H F 3 o M - o 7 l o.8.#.5.5.+.8.+.8.+.+.8.#.8.+.8.+.8.#.5.>.H q + r 1.p.N.L.I.I.B.f.i . ",
". m N.U.!.U.U.I.B.w.e % F 5.8.8.8.8.8.8.8.8.8.8.8.8.8.8.8.8.8.8.8.8.8.8.6.o.7 # M - o i >.8.8.8.8.8.8.8.8.8.8.8.8.8.8.8.8.8.8.8.8.8.>.z % r w.F.P.U.R.U.R.S.m X ",
". _ E.^.U.U.U.U.B.w.r % F 8.8.8.8.8.8.8.8.5.8.8.8.8.8.8.5.8.8.8.8.8.+.o.G F % o & * . 7 F G o.8.8.8.8.8.8.8.8.8.8.8.8.8.8.8.8.8.8.8.9.{ % e w.F.U.U.U.U.!.Y._ . ",
". ` /.(.U.U.U.U.F.w.e % F 5.8.8.8.8.8.8.8.8.8.8.8.8.8.8.8.8.8.8.8.8. .g 5 $ * * o o * : > q x o.8.8.8.8.8.8.8.8.5.8.8.8.8.8.8.8.5.5.5.z % f 4.F.U.U.U.U.)./.` . ",
". ` /.).R.U.U.U.B.w.g + e H 5.8.8.8.8.8.8.8.8.8.8.8.8.8.8.8.+.8.+.o.a % D ' =.F M < ' ] ] 2 7 v +.8.8.8.8.+.8.8.8.8.8.5.8.8.5.8.8.5.H r + r 4.F.U.U.I.U.)./.` . ",
"X m Y.!.U.U.U.U.B.w.g o 3 7 p p p p p i p p p p p p p p p p y F F 7 3 + D =.-.] * B ! -.=., O 5 w y p p p p p p p p p y p y p p p p 7 @ O f 4.F.U.U.U.U.~.Y.) . ",
"X m K.!.U.U.U.U.F.w.g O o X . . . . . . . . . . . . . . . . . . X . X X B S =.] < * S ( =., O @ @ 6 6 6 < 6 6 6 < 6 6 6 % 7 6 < 6 % @ + O f w.F.U.U.U.U.!.K.) . ",
". ` /.(.U.U.U.U.B.1.g O . X o O + o O o + X O o O X O O + X + X O X O o B Q =.] * B S ( =., @ r H O.+.+.+.+.+.+.+.+.+.+.+.+.+.+.+.X.v q + f 4.F.U.U.U.U.).Q.` . ",
"X m Y.!.I.U.U.U.F.w.F O . + 3 7 q t e t q t e q e q e q e e e e q 5 @ + B S =.] < = S -.=.B 3 G 5.8.8.8.8.8.8.8.8.8.8.8.8.8.8.8.9.8.>.z % e t.B.R.U.U.U.~.I.) . ",
". m J.!.U.U.U.U.F.w.t O . @ t t j h H h H h h H c c h H h h h c h g 7 + B E =.] * = Y ( ] D <  .8.8.8.8.8.8.8.8.8.8.8.8.8.8.8.8.8.8.8.{ % e 4.B.U.U.U.U.U.J.m . ",
". m J.U.U.U.U.U.F.e.F O . @ e H F h H h h h h h h l h h h c h l G h t + B S =.] < = S ( ] < 3 H 8.8.8.8.8.8.8.8.8.8.8.8.8.8.8.8.5.5.6.m % e 4.G.U.U.U.U.U.J.m . ",
". m J.!.U.U.U.U.F.L t o . @ t e H j h h j G h j l c c l c l l c g g 5 O B S -.] = = S ( =.D @ F >.8.8.8.8.8.8.8.8.8.8.8.8.8.8.8.8.5. .e @ f 4.B.R.U.U.I.!.J.m . ",
"X m N.U.R.R.R.P.n.w.f O . O @ 4 7 7 7 7 q 7 7 7 7 7 q 7 7 q 7 7 7 3 @ o B Q ( ] > = S ( =.2 @ 3 q s F a F F F F F p F F F F F p F p q 5 O g w.n.H.U.R.U.U.N.m . ",
"X 9 6.c.A.M.M.f.7.:.i O O % % % % % % % % % % % % % % % % % % % @ @ + O , Q =.] : > T ( =.2 . . O X X . X X   . . . X X   . . . X X o X O q :.7.f.M.A.A.c.6.u X ",
"O $ 4 8 8 8 9 9 4 4 O O q l m >.+.O.O.O.O.+.O.+.O.O.O.O.+.O.O.O.O.k 7 + ; E =.] > * T ( =.0 . X o . X X . X . . . o . X . o . o X X X X o + @ 4 8 8 8 8 8 % O X ",
". 5 m ..@.$.@.m x h 4 % z >.5.6.8.8.8.8.8.8.8.8.8.8.9.8.8.8.9.8.5.>.k + ; E =.] > = T =.=.2 X @ 5 q 7 q 7 q q t 7 q q 7 q q 7 7 7 @ + o X 7 l x | @.@.@...x 8 . ",
". a c.P.R.R.P.B.b.w.e % [ 8.8.8.8.8.8.8.8.8.8.8.8.8.8.8.8.8.8.8.5.6.F % ; E =.] > * T ( =.2 @ t g h h j H g h h j h h h h l H h g q @ . O f w.z.G.P.U.U.P.v.s . ",
". m J.R.U.U.U.U.B.w.f @ m 8.5.8.8.8.8.8.8.8.8.8.8.8.8.8.8.8.8.8.8.5.F $ ; E ( ' : = T ( =.2 @ f h h h h h h H h h h H g h l h h l g @ . X f 4.B.I.U.U.U.U.S.) . ",
". ` Q.^.U.P.U.R.F.w.f @ a o.6.8.8.8.8.8.8.8.8.8.8.8.8.8.8.8.8.8.5. .g $ ; E ( ' : = T ( =.2 @ t h G j H H h H g G h j H h j j G g q % X X f t.B.U.U.U.U.^.Q.[ . ",
". [ /.).U.U.U.U.F.4.g @ 3 q F [ F [ [ F F F F F F F { F F F F F F e 5 + B Q =.' > = T ( ] 2 X 3 5 q q q t t t t q t q e q q q q 7 @ X . O f 4.F.U.U.U.U.)./.` X ",
". ` /.^.U.I.U.I.F.4.f O O + @ % $ @ % % $ @ % $ @ : % % % % $ % @ + O o ; E ( ] > * T / =.2 X + @ $ % $ $ @ % $ @ @ $ % $ $ @ + $ $ @ O o f 4.F.U.U.U.U.)./._ . ",
". ) K.!.U.U.R.U.F.4.f + 7 k { { { { { { { { { | { { { { { { { { G F q O & I ( ] : & C ~ =.2 @ i G { { { { { { { { { { { { | { O.} | | s $ f w.F.U.U.U.U.!.K.m . ",
". _ Y.~.U.U.R.U.F.4.f + 5 q a z F G >.5.8.8.9.8.8.8.8.8.8.8.8.8.8.>.v 7 > & A A ; & & B D 0 w | >.8.8.8.6.8.8.8.8.8.6.8.5.+.| F s z m y + f 4.F.U.U.U.U.!.Y._ . ",
". _ /.^.U.U.U.I.F.4.f o o # $ : $ 7 h +.8.8.8.8.8.8.8.8.8.8.8.8.8.8.+.H q % O # N - o O 4 f H 5.8.8.8.8.8.8.8.8.8.8.8.8.o.l 7 # * $ $ # O f 4.F.U.U.U.R.).Q._ . ",
". ) K.!.U.U.I.U.F.4.f o B E ] ! S , 6 { 8.8.8.8.8.8.8.8.8.8.8.8.8.8.5.5. .x 4 # M M o 9 G o.+.8.8.8.8.8.8.8.8.8.8.8.8.8.{ 6 = S ! ^ E 1 $ f t.G.I.U.U.U.R.K.m X ",
". m G.U.U.U.R.U.F.w.f + N U / ~ C & $ G 8.8.8.8.8.8.8.5.8.8.+.8.8.6.5.8.8.o.8 # Z B o r +.8.8.8.8.8.8.5.8.8.8.8.8.8.8.8.{ + - I ~ ~ U - # f 4.B.U.U.U.U.R.J.m X ",
"X m K.U.U.U.U.U.F.w.f o - N Z B N * 7 | 8.8.8.8.8.8.8.8.8.8.8.8.8.8.5.8.5.+.7 # S V $ a 8.8.8.8.8.8.8.8.8.8.8.8.8.8.8.8.{ 7 : N V Z N & X f 4.B.U.U.U.U.R.J.m . ",
". m S.!.U.U.U.U.F.4.f o . o o o + 7 F O.8.+.8.+.5.5.8.#.8.+.8.#.8.#.5.#. .f 5 : S V $ i 5.8.8.+.8.+.8.+.+.5.8.#.8.+.8.8.O.h 7 X X $ # X X f 4.B.U.U.I.U.R.J.m . ",
". a B.U.U.!.U.B.m.w.f O . X . . o @ 5 7 9 9 9 9 9 9 9 9 9 9 9 9 6 7 9 9 6 3 O * S A $ @ 8 9 9 9 9 9 9 0 9 9 0 7 9 0 7 7 8 7 @ X . . . . X g w.m.H.U.U.!.P.v.a . ",
"O 8 m 9.s.s.s.>. .b q O + % @ 7 3 3 3 % 3 3 3 4 @ 3 3 % @ 4 3 3 3 3 @ @ O X . * V B o @ @ 7 9 0 9 6 9 9 9 9 9 0 9 9 0 9 0 8 9 y 9 9 5 @ O 7 b  .#.s.s.s.5.X.9 . ",
"X + % % % % 4 % % % + + 7 e g l k l h h h h h h h h h l h h h h g h F q 3 X X # N M o 7 H  .5.5.8.+.8.#.+.8.8.+.5.5.5.5.8.+.8.+.8.O.H e + O @ @ % % % 8 4 % + . ",
"X 9 ,.k.l.l.h.6.,.K q + q h h h h j l l c h c h c h c j c h l l H j h g 7 O . * Z B o r +.8.8.8.8.8.8.8.8.8.8.8.8.8.8.8.8.8.8.8.8.8.5.F % q K ,.6.g.l.j.k.>.w . ",
". s N.U.R.R.U.L.m.w.g + q g h c c l h c c l h c c l c l c l c h j l l g 7 X . # Z B o a 8.8.8.8.8.8.8.8.8.8.8.8.8.8.5.5.5.8.8.5.8.8.8.{ % f w.m.L.U.U.U.U.N.s . ",
". m K.!.U.U.U.U.F.4.g O 3 q f g g g g g g g g g g g g g g g g g g g e 7 @ X X # M N o r +.8.8.8.8.8.8.8.8.8.8.8.8.8.8.8.8.8.8.8.8.8.8.F % f w.F.U.U.U.U.!.K.) . ",
". [ Q.).U.U.U.U.F.4.g + X + + @ @ + @ + @ + @ + + @ + + @ + @ @ @ + + + + O . : Z B o q H +.8.8.8.8.8.8.8.8.8.8.8.8.8.8.8.8.5.8.8.>.H e + f 4.F.U.U.U.U.^./.` . ",
"X ` /.(.U.U.U.U.F.4.f X . . . . . . . . . . . . . . . . . . . . . . . . . . . # Z B o @ 7 y p p i y p p p p p p p p p p p p 0 F p u 9 % O f 4.F.U.U.U.U.)./.[ . ",
"X ` Q.(.U.U.U.U.B.w.k X @ 4 6 6 6 6 6 0 6 8 6 6 6 6 6 6 0 6 6 8 6 6 6 0 6 @ O # M M X X X X . . . . X . . . . . . . . X . X . . X X . . O f w.F.U.R.I.I.^.Q.` . ",
". m J.!.U.U.U.U.B.4.f $ q c O.#.+.+.+.5.+.+.+.5.+.+.+.8.+.+.#.+.+.8.+.+.H g 3 # M M o X X X X o o X o O X O O O O o O X X O + X O o X X X g 4.F.U.U.U.U.R.J.) . ",
". a c.P.U.R.U.B.b.4.f % z >.5.8.8.8.8.9.8.8.8.8.8.8.8.8.8.8.8.8.8.8.8.8.8. .9 # M - o . + 7 t t e q e q q t q w t t e q t t q q e q @ . X g w.z.G.I.R.U.I.c.s . ",
"X i u.n.L.B.B.z.t.L f @ z 5.8.8.8.8.8.8.8.8.8.8.8.8.8.8.8.8.8.8.8.8.8.8.8.| 7 # M N o X + t h G j h H j G j H j H h H H h H j H h r @ . O g L e.z.F.F.F.n.u.i . ",
"X 9 <.4.1.1.3.1.L n t + w v X.#.5.+.5.+.+.+.+.+.+.+.+.+.5.+.+.+.+.+.+.+.H g 3 # M M . . O 5 q g g h h h h g h h g g g h g h h h e 5 @ o . q n L 1.1.1.1.4.:.q X ",
". @ 4 5 5 5 5 5 5 3 + O + % 4 8 6 6 0 6 6 6 0 6 8 6 6 6 6 6 6 8 6 6 0 6 6 @ + X X o O O X + @ @ % % @ @ % @ @ @ 3 @ 3 @ @ 3 @ @ @ + O X . @ 3 5 5 5 5 5 5 5 + X ",
"X X . X . . . . . . . X O . . . . X X . . . X . X . X . . X o X X . X . X . X X O O . X X X X X X X X X X X X X . . X O X . X X X X X X . X . o . . . . . . X X ",
"X X X X X X X X . O O X X X O X X X X X X X X X X o X X X X X X X X X X X X X X . X X X X X X X X X X X O X X X . . X X X X O X X X X X O X X X X X o X X X X X "
};
