/* XPM */
static char *result[] = {
/* columns rows colors chars-per-pixel */
"80 80 37 1 ",
"  c #7678A2",
". c #62608A",
"X c #66658F",
"o c #6C6C96",
"O c #65638E",
"+ c #5D5984",
"@ c #5E5C86",
"# c #595580",
"$ c #5D5A84",
"% c #615F8A",
"& c #7577A1",
"* c #70719B",
"= c #5F5C87",
"- c #6A6A94",
"; c #6D6D97",
": c #5C5C86",
"> c #62628C",
", c #72739D",
"< c #6E6E98",
"1 c #55537E",
"2 c #5D5B86",
"3 c #72739E",
"4 c #64628C",
"5 c #65648E",
"6 c #676590",
"7 c #74759F",
"8 c #6F6F99",
"9 c #6F709A",
"0 c #5E5B86",
"q c #615F89",
"w c #59557F",
"e c #5A5781",
"r c #5C5883",
"t c #70709B",
"y c #5D5A85",
"u c #666590",
"i c #71729C",
/* pixels */
"                                                                        .X      ",
"                                                                        .X      ",
"                                                                        .X      ",
"                                                                        .X      ",
"                                                                    oOOO+@OOOOOO",
"                                                                    O####$%%%%%%",
"                                                                    O####X&&&&&&",
"                                                                    *ooo=X      ",
"                                                                        .X      ",
"                                                                        .X      ",
"                                                                        .X      ",
"                                                                        -;      ",
"                                                                                ",
"                                                                                ",
"                                                                                ",
"                                                                                ",
"                                                                                ",
"                                                                                ",
"                                                                                ",
"                                                                                ",
"                                                                                ",
"                                                                                ",
"                                                                                ",
"                                                                                ",
"                                                                                ",
"                                                                                ",
"                                                                                ",
"                                                                                ",
"                                                                                ",
"                                                                                ",
"                                                                                ",
"                                                                                ",
"                                                                                ",
"                                                                                ",
"                                                                                ",
"                                                                                ",
"                                                                                ",
"                                                                                ",
"                                                                                ",
"                                                                        :>      ",
"                                                   ,<                   12      ",
"                                                   -@&                  .X      ",
"                                                   -@&                  .X      ",
"                                                   -@&                  .X      ",
"                                                   -@&                  .X      ",
"                                                   -@&                  .X      ",
"                                                   -@&                  .X      ",
"                                                   -@&                  .X      ",
"                                                   -@&                  .X      ",
"                                                   -@&                  .X      ",
"          ,3                                       ;4&                  .X      ",
"          56                                       &7                   .X      ",
"          89                                                            .X      ",
"                                                                        .X      ",
"                                                                        .X      ",
"                                                                        .X      ",
"                                                                        .X      ",
"                                                                        .X      ",
"                                                                        .X      ",
"                                                                    9---0q------",
"                                                                    O###werrrrrr",
"                                                                    O####4tttttt",
"                                                                    ;666yu      ",
"                                                                        .X      ",
"                                                                        .X      ",
"                                                                        .X      ",
"                                                                        .X      ",
"                                                                        .X      ",
"                                                                        .X      ",
"                                                                        .X      ",
"                                                                        .X      ",
"                                                                        9i      ",
"          t*                                                                    ",
"          4O                                                                    ",
"          4O                                                                    ",
"          4O                                                                    ",
"          4O                                                                    ",
"          4O                                                                    ",
"          4O                                                                    ",
"          4O                                                                    "
};
