/* XPM */
static char *result[] = {
/* columns rows colors chars-per-pixel */
"80 80 32 1 ",
"  c #263D17",
". c #2B3C16",
"X c #263E1A",
"o c #2D3E1A",
"O c #303F1B",
"+ c #1F4519",
"@ c #254616",
"# c #2C4317",
"$ c #254917",
"% c #2C4A17",
"& c #26441A",
"* c #2D431C",
"= c #254A1B",
"- c #2B4B1C",
"; c #304117",
": c #32431D",
"> c #324A1E",
", c #2C511D",
"< c #2E4521",
"1 c #264821",
"2 c #2D4A21",
"3 c #344521",
"4 c #384724",
"5 c #344923",
"6 c #394925",
"7 c #354828",
"8 c #394928",
"9 c #2E5223",
"0 c #2F5228",
"q c #355125",
"w c #38562D",
"e c #385D32",
/* pixels */
"33O3777743OOOOOO4;;;4>>;;;;;:::;;;:&#o*333O3333OOOO<XXXXO<5::255<&X*<<33:oooo377",
"*O<OO3O7734O3OoO;;4>;4>;;;;;;::::>*****333O33333:OO&&@*&X<-:*:22<X*<**33:O#oooO7",
"ooo<O7OOOO74O.oo;;;4;6;;;;;;;;::>:;*<#***O::33OOo33<**--&-:5<***X<<<*XX:O:Oooo<3",
"7333O7747377Oooo4;>>6>>;;;;;4::;:353<***O>5833333o3<->,,5-2***<&XX<<***O33:#oOo3",
"733O777773373OOO;44>44>>6>4;4>>;:555** oo38843:3:3333<-,-22<-2**X<<XX<OO33OOO<O<",
"733<O3773333O3O7;4>6>;446;;>4;;4**32*o X:58643::3O337<**--525252<XoooO<OOOOO373:",
"3OOO773OO433OOOO44444;:;;>>444;;-5<:<&&*&35533:*:3:3<<***&22<<<*XOooO<O33OO3337o",
"O373OO374OOOO.OO44>>4>::>;>;;;4;<--22&==<<533:::3::***&*&**&*<:3OOoOO7333O<333O:",
"737o3O884OoOOOoO:664:>::>4::;O::*2-211=+1195<:*#::3><:****<*<*3<OOO3333773:3:::3",
"77oO334843oOO3OO:66>66:43463::*-*2&==&++=11-3*:::>5553:*<**<33:333<O<33333O:OO34",
"74O337334OoO333O:666664::4643::*-*&&&&&=11&<53:*3448853:3**333333oOOO377733oo338",
"33O383333OOOOO33::>>6>4::::3333:3*<<&&1==+&-*33:::33>35:***:::383:3:3737773Oo333",
"3O3333<333*oo::3*:>:::>:O:O:44::*<<*22211+=1<55<:*5*:::::ooO:O3333343377743O:333",
"33O333oOoOoooO<O>:>:;OOO::3:O>4::**<22211+&&&25<553*:3:::O3O3ooOO37487O3::3333:3",
"7773OOO333oo*2<2<*#:>:OO4:4O::>:*-2-22-==+=&<22<<<3*:::::337:ooO:347:O:O:3:34335",
"877O::3333o**2522<*:3;>4:4:OOO::**:>>--&==&&&=1&***:*3:3O3473oo3O:333O:::::33544",
"773o<73O3****2-9-->-**>5>::;:OOo*<*::-**&&*&&&&&**oo::::46667*:3O<33OO:3O::33454",
"74<*O<<<o**<<=9,,,>--*>>>>>;;O.Ooo*o:::O*&*-***:*oooO::4>66q5>33O:::OOO:3:>34355",
"73<&XXX<*&--2<-,,,%--**%;>4;;;O.<Xooo::3**#*-:::3:O;:::444657*:3:33:3Ooo;*:3>>3>",
"O<<<<XX<*&22-&-->%-*-3:;;4;;;O.#<O:oo*:3***-:;;OO:O:::4::457***:O:o:OOOO::::>::%",
"X<<<<X<X&222-*&*@%&=25::;:4;;#;;*>5o.o:33*:#;;Oo::>:::4:*3535**::OOoOOO::#:#%##:",
"*<X<X<<12-==&*:**$=,22-*;;;;>:>>-5:*.o373*oO:OOo:443:444:*<<32:3O:3OO:OO:#**>;#:",
"<*XXXXX12--==*<3--$=--*#;;::44>>,>*oOO:43:o;:>OO:4444>3::*3333*::OO:O::O:#:##;>>",
"<<<XXXX<>-----*3*-$$$--:::::>6>>>*#oO:::3:O::333334444:O:3*333*:O::O:OO:::::>>33",
"3<***X*&*->-&*&3**@@##33:o.:664>%@O:::::34:4:::3O:333Oo:33:Oo:O:o;::O:::::::4643",
"<**o***<**-*&X<:**@.;:33*..O::;;##O:::OO:::::OO:3:33333::3OOo3:3::*::::44444:444",
"******5:*:#*<<33**.o:33:O...O:;oO;::OOOO::OO:::43473333O3:33Oo333::::44:4664::34",
"**X****:3*X3773* oX.o:33OOOOO:3OO:::;.OOoO;3444>34433oO:33433::o:3;O:4:::44::::O",
"<******:***3883*.ooXoo*3;:::::3OO::::O::;::>553333433:#O:33333oo:::O:::O:::OOO3:",
"3<o**XX*<::5873o. oOooo:334:::3O:O:::4443>>>>-<***33>::*oo3*333<:OO::4:OO:O:O334",
"5*********<333:oooOO3oo*>5>:OO:3OOO::664>>>---***o*:353*:****773::;O4:OO::::4466",
"75**<******333oO:*33:o3<:3:OOOOOO::::66>>>,,--<***O*<3<<33**3277:::4:4::4::46887",
"3*******<<O::33:33::::#**:::oOO34O::444>>>,,%><**o:<<<<<<<<<<<<<;::O:44::::47847",
"***533**O<<:::::::<:3:***:O::ooO:OO:444;%%>%-><**:333<<<<<<XX*<X::3::::::::43733",
"<55575<&13<X<o3<O:3:****:*o3:O#OOOOO>5>>%@#>:::::3337<<<11X1XXXo:4:4::4::::3<XO*",
":535325*X*<<<3<<<O*3--$***o:O*:*OOO:>>>,-%#*;;*:33377<1<1XX11 oo444:::::::3:<<O:",
"355>55&&&o*<<323<**&==,-&*:**:::o::5>-,,-*-*::O:33333O*&&&&&*XX:4::::::;*3<<**:5",
":54>:<**<<<**522<<*2,,$=&----23:;:555--,=2*3:33333333<*&&<2-*X:::::::3:**3<*3555",
"053***@**<2<>5222---,==-=--55q53::>*--,-1*<37:443333:**&<&5***:::::335:33>*:*5::",
"w5&&*X *2<2:55--1--=======--255::****---&X<33:::::O3:**&&<*#**::OO:>>:55::-->>-*",
"e0&+   &*<<<33:*==$==$=,$$=&&53:::*****2-&&oOOOOX**3>***&*<33q*X.*:%:>55:**%%,-=",
"09==&&Xo*3*33:;#-$$-=,$$+==&*::::::-*#:*&**o:OOOooo#:**&&*<35q*  *->-5>5:*$%%,=9",
"$=-==-*X#*<:::O#%%@-9,=$$=-*:::::::5:*:;**<<:;;;#o**o3:5<<<325* **---5*3:--%,,-2",
"=--==&***&5<::O;-**%-,==@=-%>:>>:::>3O::Xo<o::;4>:5**<583<<121<X<=---5>*>:*%$$-&",
"**&*&**3*<335::>-53<&2&=<-->::>3:::::O:4::O:O3;>>55-2<33O<111=&212---55*3:::;%;*",
"33:o*<<3333255q-2272&&<&&--*:3O::;:O:::3333OO>64>:53*<:*<X&====&=2----*:53>>:::;",
"33O73*33345:-5>,-2221&&2-&#*;;OO:::;O::4333O3::;>**&**<*X*=$$===&&-5<&*53>:4:::>",
":3344:335333<>,---&2=&-<<*oo*oOO333::>3>33333::>:***=-2-2-$$+$==@*<*<*-:3::44444",
"3:4444333:::35--=&&=<&***XO3:OO34:4:>533:<333:>:##@@==,9,==$$@$$ @o**&*553:34466",
"3434443O::::359-@@&**:::X3:73:3::3>:343*<**33*:>%-%-=,=9,===%@$+@@&Xo&&*-3>44444",
"444444:::34755--&*O33:OOo3773O:*O::::4333o*<*&&&=--===--=+=@@$$$@&&&&&*5::;33O43",
"333477::::33>&***<OO::OO<:3O3O::O:3O3>3:3*#:3*&&=-$$==$-=91=@$$$=&&@****:::34::4",
"3:O333:O::33*&**<<OO::OoO33o3<::::3333333o:::****@@$===&<31++@====@=**-:3:3333:3",
"::33343::35553<37OO3:OOooOOo3355335443O:::::3:***&*&===-3<<&+=@=$==--53553:3:34:",
"3333333:3385735*33O33O<XOOo3O&<:*>88433O3377333##&&-=,=*<<X&=1=-==---225545>3337",
"3O3O33333353333*O33OO3OOXO33<*&---554333474333::***&==--:o*&22-=9-==-55554433:::",
"3333o3:<O33:o:o:O3O::3Oo#:5:--$-*-3434346:464::;#***&&XXoO&<22*@$----:33:3444373",
"333oO3oOoO:oOoO:3*3<O3<3<:>>*=&&&*333:>4>4;:4:;O*-****o<X<<<5-*@-#-:::3333747733",
"33333ooO:ooO:oO333333<3232-*@@&**55>::4:6:::::::<3*-*&<<<O<25**=>>>5*o3444374334",
"3833o3::ooo33:3:333573<725--%---:33::4:::::::::::225*3O<o<<<-*-->>>;;33344434787",
"3433O<:OoooXO3<33375q7299--,%--::::::6:::;:43Oo***-**3<Oo**&*-5->>>;o:3333334484",
"O3333OooOoooO<<<358552299,-,--@*::O:4:::::4::Oo#**&**<*o*****5-:::;;ooO3:337O473",
"33OO3ooO3:o<o3335555222--=-,-*##OOO;::4;;;;:Ooo*:*:*o33oo*<***::3::Oooo:O3334::6",
"33OOOo:384333o<3355572-=--%->:;;;;OO:;::*oooOo:#::::<O3::&-****:3#oX#ooX:333::::",
"33Oooo378543::O333333*&*@*--:::;;;:#::oo*#ooO4:OO::3333:*:*::*:***@o**X*<<333>::",
"333oO347883:oOO3:333*&X&**5:;>:>>::;#o#o***:>4>O#O::3333:::*<<2*&@&******<*3336:",
"33:OO3443433O333:33<*XXX**3;;;;;::#::o#::3:3:433:::::3433O:**---*-*&&**<**O>>:::",
"7333344733oo*333oo3*o&oo*:3:>;>;;#:::oo**3:>:4::333:O:333:Oo*&&&-==@&*&&*##::::>",
"433748433::O:3333:3ooo***::*;#*###*::o#*3:*33:334:::34:4:3O***&&=,-* X**&*o:3O33",
"7378838843:::3443343*3333***:**o o*3<*<3333OOo3444::364:3:33<<<&=$$-1&<&***::O44",
"3378838433::::34888:OO<**o*****o.********:3O3o74::O:464::35:*<<&=$%,><****OO3344",
"::333354333:::O7343>3oo******#*X **o*#o**33:o:O3OOO:46::*:*3<<-*--%,>2<<:O4O3444",
":7377333O374O:3::O>43::****>*****@.   o*o333:3:oo.OO4::OOO::3*--&2*>>33<**::3O43",
"333373333744484:O:345:>:5:**3*****oo..oXoO<*::O..OO:::::::*3>*-:-222557***::O344",
"33O3O3O343O3O77433484>::*******#333o*o:Oo<<*<ooooO3:OO:3553*#>>--2553557&**<4474",
"73333O3337OO4747333>3;##********<<33*3O:o<<*XXoXooo..OO3:35*:*->9572532&*oX<3488",
"33O73O3O83O337733:o::;##****#o****:OO3O33*&*XXoOooX..OO3:5<*:*%-5q52323<&XX<<388",
"77733737333O3377:ooo;::**3*:*****ooooO333<<&<OOOoo:OOOO3:55-*%#-5>3::&&<&1<O<347",
"47O3O77343333777<OoO:::>>3**#**3**ooOO333<&*XXoXo::3::O:35****##->3***<&&&<Xo334",
"3OOO7O3343333OOOOO3O#>>5553***<*<<33O<O73*X&<oXXooO37OO:553*####*::3<&&2<<&<<377"
};
