/* XPM */
static char *result[] = {
/* columns rows colors chars-per-pixel */
"80 80 123 2 ",
"   c #1E190E",
".  c #241D15",
"X  c #2C1F16",
"o  c #251F1A",
"O  c #1F230A",
"+  c #23280D",
"@  c #242214",
"#  c #292515",
"$  c #272A14",
"%  c #2B2B14",
"&  c #24231B",
"*  c #2B241D",
"=  c #2D2B1C",
"-  c #322D1D",
";  c #2E3416",
":  c #2E321C",
">  c #2F3B18",
",  c #343517",
"<  c #353B15",
"1  c #33331C",
"2  c #39341E",
"3  c #343B1C",
"4  c #3A3C1D",
"5  c #2D2621",
"6  c #2D2A22",
"7  c #332D24",
"8  c #392F26",
"9  c #352E29",
"0  c #392E2C",
"q  c #2F3023",
"w  c #343324",
"e  c #393425",
"r  c #363923",
"t  c #3C3B24",
"y  c #36322A",
"u  c #3B342C",
"i  c #373929",
"p  c #3C3B2B",
"a  c #3D2F36",
"s  c #3D3631",
"d  c #3E3B32",
"f  c #3D3E39",
"g  c #46361B",
"h  c #423B1B",
"j  c #413D25",
"k  c #41362D",
"l  c #423C2D",
"z  c #483F2D",
"x  c #413732",
"c  c #433C34",
"v  c #4A3E34",
"b  c #403038",
"n  c #453E39",
"m  c #493F3A",
"M  c #374114",
"N  c #35411F",
"B  c #3C431D",
"V  c #3D4224",
"C  c #3E412A",
"Z  c #3F4231",
"A  c #414A1D",
"S  c #434425",
"D  c #494626",
"F  c #444925",
"G  c #4B4A27",
"H  c #43432C",
"J  c #49442E",
"K  c #45492C",
"L  c #4A4A2C",
"P  c #524328",
"I  c #445026",
"U  c #49502A",
"Y  c #51552F",
"T  c #454234",
"R  c #4A4435",
"E  c #464A33",
"W  c #4B4A35",
"Q  c #47413A",
"!  c #4C453C",
"~  c #474A3A",
"^  c #4D493C",
"/  c #514336",
"(  c #524B35",
")  c #51463D",
"_  c #58473E",
"`  c #524A3D",
"'  c #594B3D",
"]  c #4E5137",
"[  c #4E513E",
"{  c #505234",
"}  c #53513C",
"|  c #565C3E",
" . c #4B3F40",
".. c #464240",
"X. c #4D4641",
"o. c #4E4942",
"O. c #514642",
"+. c #5B4741",
"@. c #524B43",
"#. c #594C44",
"$. c #53464C",
"%. c #554D49",
"&. c #594E4A",
"*. c #555144",
"=. c #5A5245",
"-. c #5F5A46",
";. c #575049",
":. c #5B534B",
">. c #5F594D",
",. c #564352",
"<. c #594F50",
"1. c #5D5551",
"2. c #5F5852",
"3. c #604C41",
"4. c #65554B",
"5. c #625A4C",
"6. c #605653",
"7. c #635B53",
"8. c #685E54",
"9. c #655E58",
"0. c #6A5F58",
"q. c #636253",
"w. c #76685F",
/* pixels */
"R R Q R s ! @.o.%.@.@.o.o.o.@.@.o.^ i ~ @.X.O.O.O.O.%.$.X.X.@.O.$.o./ T y f X.R ! X.m s X.! R R T ^ k y ^ X.X.X...~ ~ ^ Z p i i Z ..Z Z T T c c R R ! R ) ^ R R ",
"^ R R O.c X.@.o.%.@.o.o.@.o.@.@.o.~ p ~ @.X.X.O.O.O.O.! X.o.o.o.o.o.R ^ y f X.Q X.X.Q c X...o.! l W l w E H E E E ~ E T i p p = ..X...Q T m m R c Q R R ^ ^ ` R ",
"` R ! O.c ..@.X.@.@.o.$.@.o.$.o.X.^ d ~ @.X.O.X.m m m ) %.@.^ X.X.o.) T y Z o.m ! o.! s X.X.$.R e , 2 1 , j 4 4 r C q = ` =.=.l d %.o.W Q Q ! Q R ! ^ ^ ^ ^ O.O.",
"*.` Q ^ c X.%.o.o.%.o.o.o.o.o.o.! ^ p T ;.^ c x X.@.+.$.@.@.! X.O.o.` T i u s ^ X.%.s s O.!  .y - ( } ( { ( ' } } *.E w ' ` ` R p %.o.@.^ ^ ) R ! ! m @.>.>.;.@.",
"` ^ ! O.s Q o.@.%.o.n m ..o.O.o.! ~ d w Q s x &.&.O.@.$.^ X.! o.%.@.O.v i q 6 s s c 0 0 u y e e j 5.@.%.' @.#.*.*.*.R = ~ ' ` ` 7 s m ) @.` O.R c R %.7.%.%.o.X.",
"R ^ ^ @.s x ! %.o.m Q m m o.o.X.X.o.d @ u O.&.X.O.O.X.O.@.O.%.%.@.%.@.m r p @. .X.%.%.@.o.O.R l H ` ! ! ! ^ ! ! Q R ! * ` ) / ) * o.:.) @.@.*.O.c O.1.@.@.o.o.X.",
"X.X.O.%.u c @.%.Q m ..!  . .X.$.X.@.u 5 6.&.O.O.O.o.@.%.%.%.;.%.%.O.O.m 7 T X.....X. .X.o.n v C r W R O.X.X.! X.^ _ ! 5 ` ( ( / 5 %.@.` ` ^ *.=.;.%.^ o.@.o.@.o.",
"^ O.O.@.u m %.! m Q ....X.X.X.X.$.o.6 m &.! O.! X.o.%.%.:.%.%.@.@.X.O.m w T Q ..m X... .X.n R E 3 ^ R ! ! m ..X.^ ! R 7 ^ R ' / & s o.^ ` ^ @.O.@.` O.@.o.@.o.o.",
"*.o.o.*.y s X.Q ! Q ! X...@.O.O.O.~ 7 y %.X.X.X.X.o.%.%.*.O.o.o.@.o.O.n = i Z ..X.X.! X.! ! O.T r ~ m m n c ! ! ! ! T q C l ( ` 5 & d T ^ ^ R @.^ @.%.@.@.o.@.@.",
"*.^ T T w p @.X.o.X.! X.! ^ @.%.Q n s s $.O.O.X.o.o.@.@.o.o.o.O.@.@.O.x : r Z X.^ ! Q T ! ^ ^ p i R m X.c n ..X.! ^ T 3 : E 3.` & 6 & @ i r - t z T s m X.o.o.o.",
"q q q r q p ;.%.@.%.X.^ @.u T u u o.s 9 O.O.O.X.X.X.O.o.o.o.o.o.o.o.O.c r r = y 7 y e u u k u y i ^ m ! n X.X.X.X.X.W > 3 , #.4.&.%.%.R R ` ( R R R ! Q n n u u ",
"^ [ *.*.i p o.! @.@.! @.` e p v ^ ^ 0 u O.^ ! ! ..o.X.X.o.o.O.O.o.R R p C S t 7 p R ^ ` ` ` u * s ` ! Q ! ! ! X.X.O.~ , V - =.w.0.&.7.7.5.*.=.=.*.=.>.:.;.;.=.=.",
"O.O.^ *.T # ^ *.:.#.#.=.k v R ! R ^ u 5 c c s d m c u s s s u t w Z T i V W / v ~ T R ` ' } l 5 Q ;.^ W ! ! ! X.X.o.T 3 ; = =.:.) ) ! _ @.*.@.%.@.^ ^ W ^ ` ` @.",
"^ R ~ ^ T $ i ;.5.@.=.O.u R ^ ^ R ^ e c >.=.=.:.1.>.1.1.&.6.x w q X.X.T r E ! ! R ~ ^ R R ^ u * n O.T R ! ! X.m Q s 1 K 3 = &.#.) ^ O.! ` O.` @.' @.` ^ ) R R ^ ",
") ^ ~ ` ~ w 6 R >.4.O.c T ^ ^ X.' W p R @.J J @.o.o.%.%.%.%.c - r f f u = w 7 8 w w w w 7 - = * 0 c R R ! ! X.X...! r 3 + y 1.#.+.X.O.) ^ ) O.` ^ ^ R R ^ R R R ",
"^ ^ ^ ^ E # w ^ O.u k R O.@.O.O.%.R e l } D D O.X.X.X.o.@.%.c t = i u r r W R ` T T ~ ^ R ) R 8 d X.R R ! ^ ..X...c t 3 O Q >.@.) ^ ` ` O.^ ^ ) ! ` R ^ R ^ R R ",
") ! ^ @.T + 7 R k m ) ) O.^ ` @.*.` 2 e } G L O.! ! @.%.$.1.k T w p p J V ] ( / ~ T ^ R R ^ :.0 n :.c R ^ ! X...O.) t V , @.O.@.) ) ) ) R ` ^ O.! ) R ^ ! R ) R ",
"^ ^ R R E . 7 X.! / R / ^ X.@.%.` R j g P P R O.X.O.;.;.@.;.t j r V V K K R ~ T R R R R R R %.s a ;.Q ^ ! ) ! ^ ` O.W = i =.` #.' ) ) ` ) ^ ! ^ ^ ! ) ^ ^ ^ ^ ! ",
"! R ` ` ~   7 X.! ! ) R ! ) O.*.` Q t g 4 J o.o.;.%.@.@.X.=.t S W V V | ~ ^ ` R T R ^ R ` ` *.d s %.R ` Q R R X.@.#.*.- y =.O.` ` ) ` ` ^ ) ^ ) ^ ^ ! ^ ) ! ^ R ",
"! ) O.^ c & y X.! ^ / R ! ^ O.*.^ ~ r 4 S E o.@.@.....%.X.%.u 4 ] K 4 K T o.@.R O.O.%.R Q ` @.s 0 @.^ ! v Q ^ ) @.#.@.E y #.' ` ` ^ ) ` ^ ! X.^ ) O.! ! ! ! ! ! ",
"X.^ ^ ^ @.7 y o.R ^ v R T ~ ^ ~ ^ ~ C V V T @.1.@.O.o.%.` @.e - S 4 V W O.O.O.) @.%.@.^ m Q ^ m 9 $.! ! v R ^ ^ @.O.*.X.y #.` ^ ^ ` W W ) X.^ ^ ! ^ ^ ^ ) X.! ! ",
"o.O.o.@.@.u 6 X.m v v v W W E E ~ ! w V V ~ %.;.o.X.@.o.` ` 7 @ S 3 4 W R %.%.` @.*.^ Q ! ! %.! 0 o.R ! R Q Q ^ @.@.o.o.7 O.%.^ ` ^ ^ ^ ^ ! ^ ^ ) ! Q ! ^ ^ ^ ^ ",
"o.o.o.O.@.y w w w e 7 1 1 1 r i p v 7 r V ^ ;.%.~ X.o.X.) ' p e , < J ' O.@.&.@.;.O.x Q X.m O.! 9 $.Q Q O.! ^ ^ @.O.@.$.7 8 R ( ( ^ ^ ~ ^ O.o.X.X.X.^ X.O.O.^ ! ",
"%.%.@.` W S F S t r w w i : r : r e 5 i C W ^ c R O.) ` _ O.J t M I T ~ _ O.$.%.X.x m ^ ! ^ X.Q 6 O.X.! ^ ^ +.O.' } #.%.5 4 G F { } W ! X.@.@.$.%.$.O.@.@.@.@.o.",
"m Q R l t D D V t = ^ q.*.C =.^ R ' 7 5 K E u T @.@.@.#.#.#.z j K F 4 S E ` @.@.v T o.! X.R } W q o.X.X.^ ^ ` @.` ( ' %.= 4 L H R H T R ^ X.@.@.X.o.X...X.o.! m ",
"! Q R R R R H T R # T =.R ` *.` *.' 7 & r r p s u y e e 8 l k j , % < S K ~ o.*.*.%.@.:.%.] K K q ..o.X.O.` @.O.` ' ` ^ w K 1 t = - 7 @   * y u a 0 u u s s d c ",
"` O.` O.O.^ R Q ` 7 T =.+.O.O.O.#.' 9 o $ C X.^ R R v &.3.:.=.' ' ( S 2 l H Z E ^ R a c H D 4 D V Z X.R R R ! Q R W W J r 3 l W ` E R - u 5.` o.X.o.X.@.X.X.@.%.",
"o.o.X.X.X.X.O.! O.e u &.#.#.` +.#.;.9 5 ] S o.^ o.%.#.#.*.' *.=.} =.z X - i r 3 2 7 s 7 2 j e 7 i f v Q c c c ! p w t t t 3 , t p t D 1 e 5.R O.o.o.@.X.X.@.X.X.",
"o.o.o.X.X.$.X.! @.u u &.#.#._ +.#.=.u - } C ^ o.O.;.%.) O.@.@.^ ' ' k v =.R ' ( ' :.;.;.` l ;.O.%.%.@.*.:.%.;.7.O.e l j S V , H S V S < 1 W v @.O.:.6.;.@.%.@.o.",
"o.X.X.^ ! ! ! X.O.s Q ;.O.#.%._ ) #.k ; C C O.@.@.@.%.%.*.@.^ ' ^ ` k ) #.` ` ' O.+.^ ^ Q c :.&.%.@.X.^ @.o.Q ;.%.R k t t S K E K K U < 4 ` Q X.;.=.O.O.X.O.X.X.",
"o.X.^ ....! ! ..O.u o.;.` #.#.! ! #.l t t T o.@.@.%.o...T Q @.R ` W v O.X.) ^ X./ ! Q ^ R x %.@.o.X.X.X.@.n ! :.^ c u w t S K V V F Y < 4 ^ ^ o.O.) o.^ X.X.X.X.",
"X.X.! m n X.m m o.s @.;.@.@.R T O.#.l 2 E ~ O.^ o.o.X.@.O.` ^ ^ W ( m m  . .X.O.m v c R p s %.X.o.X.X.X.X.X.o.%.! u e - r V V V B 3 N < 2 c X.O.! ) ^ X.! ..! X.",
"X.X.Q n n X.m Q X.s ! o.R T Q T ^ #.R T T R ! ^ o.@.O.o.X.) ^ ) R *.x ! O.R O.) ` ! ! ^ u c &.O.X.o.X.X.X.O.X.%.! d Q e t r 3 S V 2 r q C Q m X.O.m X.X...X.! X.",
"X.o.Q m Q X.Q m o.s c ~ s ~ @.Q Q ` R J i ^ ^ X.X.@.;.o.X.! ^ ^ ' 5.J u ' v R v v T v c u Q %.O.X.X.X.X.X.o.! @.X.s R u k = $ r i i q 5 Z ~ .. . .O.X.! ^ X.X.! ",
"X.X.! m m ! Q ! X.u n X.! X.! Q R W j r r *.X.O.o.o.o.X.X.X.^ ) =.4.k p x c c c x x l k u ! #.) ^ X.X.X.X.o.o.%.X.u i e y 6 Q u u T 6 = T ! ! O.X. .! X.X.X...! ",
"O.X...m m m Q ..! s n X.X.~ T E R V r t u =.^ o.o.X.O.X.X.X.) ! ) 4.r W O.^ X.! ^ R ` @.R c @.` X...X.X.X.o.X.o.O.w # ; = 5 c u i 6 y i s Q ! ! ! X.! X.X.X.! Q ",
"X... . . .m Q Q X.y n X.! R E D G V t l p %.^ O.o.X.X.X.X.X.^ ) R *.i p ~ ^ ! ! Q ! ! @.T p X.^ ..X...o.o.o.X.o.@.^ - t R c >.=.o.R ~ f i Q ! ! ! ! ! X.X.X.! Q ",
"X.X.....~ o.X.m X.y d X.! R L L B , t H k O.O.X.@.X.X.@.X.O.O.^ T p w Z R O.X.! ! ! ! O.Q p o.~ Q X.o.X.o.o.X.X.! O.y t J ~ O.>.^ ! o.T 5 d ! ~ T c o.X.X.o.X.X.",
"s i i y y y 9 0 s 7 n o.R R W H t S S R u ^ X.@.o.o.o.@.%.%.*.@.T Z i p Q ! X.! R ^ ! ` v s ^ *...o.o.o.o.o.$.@.@.o.y e l E ^ ! c ^ ~ f 5 5 i w ; S c s s u 9 7 ",
": q : q = 6 5 * * o s p u e i r l t 1 r = m ^ ..X.Q ! X.^ X.! ~ Q i w d R c ! O.! ! ! ` T y w i 5 6 y 6 9 9 y s y s - w j T ^ O.X.! ~ f y Z T d l H Q m c Q c m ",
"C C i w Z X.Q Q n n n c d k k v c c i l l - x d s i y u 7 * x ! n f 7 c ^ Q ! X.X.o.X.O.m y t j R ` ! m  . .u m Q o.= - T ` ;.1.@.X.R e p ;.@.;.;.@.*.@.` ` } ` ",
"^ ~ ^ 6 @.*.o.o.@.o.o.O.@.o.` $.*.` ' @.` e E T l *.:.%.R 7 c ;.@.@.d Z ^ ! X.X.X.X.X.o.^ 7 t k / O.O.+.#.&.u ^ o.*.u w *.=.%.@.;.%.R p e &.%.@.@.@.@.o.W ` ` W ",
"*.o.*.u ~ o.X.X.! X.O.X.^ ^ ^ ! ^ R R ^ k 7 v H H R / ( #.k c X.m X.d C ^ ! X.o.o.X.! o.X.6 p *.' ` ) _ _ +.u ) @.~ i 7 %.@.%.:.%.;.*.! 7 :.%.@.@.%.@.@.@.` ^ ` ",
":.o.~ y ! X.~ X.%.@.@.X.^ R ^ ^ R ^ ` ` t w T H j z z / ' p R @.X.X.p d ! X.O.X.X.o.X.o.~ y o.o.^ ` ` ) +.#.u R ~ E 1 r %.%.%.%.%.%.;.X.0 %.%.@.;.o.@.@.@.@.@.` ",
"&.O.Q k u Q &.%.o.O.o.^ O.! ! ^ ^ W ` @.l e ^ R c R / / R u O.o.X.$.s p X.^ o.o.X.O.! X.m 9 %.X.` #.z R #.4.j / ^ W 2 w *.&.@.%.<.@.<.$.6 %.1.1.o.:.<.;.%.*.;.=.",
"! ! R p R >.%.^ @.%.^ ^ ^ ^ ) ^ ^ ^ ^ ^ l u ^ R R _ O.O.@.n c ! o...i d o.o.o.o.X.R ^ ` n 7 X.X.X.c 8 ! R ` 7 8 - % @ e =.&.%.%.%.%.<.X.o c ..0 c X.X.X.o.` ' ` ",
"k H R k *.@.O.@.O.` X.) ^ ! ! O.^ ^ T E t @ = 8 u R c u s s u k ..s 6 5 y i y s y - 0 y 7 * 7 9 5 6 7 0 y 7 = 7 7 u p 7 ;.:.@.%.&.%.%.X.. 7 6 5 6 1 5 y e z t j ",
"z J R p R *.` ` X.) ^ ! ^ ) ^ ^ ^ ^ T i y y R ^ Q u c u u c H j x s u 7 & f o.@.^ Q R O.O.! ! Q ! o.O.) ` @.O.=.=.:.:.x *.:.@.%.%.%.<.m c Q c p i i w :.` J J D ",
"l T R u Q =.O.^ ` ^ ^ ! ^ ) ^ ^ ^ ^ T T p l @.' @.R 9.7.7.>.-.5.-.#.:.1.0 ! @.X.@.O.^ O.O.X.X.X.X.O.X.^ o...X.X.~ Q ^ 8 ! @.%.:.=.;.&.x R ) c s i r k ( z j j S ",
"R R ) u c %.@.^ O.^ ^ ^ ! ! ) ! ^ ) R ) l k *.` ` R @.@.@.^ R J R O.@.&.0 m %.! v Q ^ ~ R ! X.! ^ ..X.X.$...X.X.X.^ O.u 7 8 e u 7 y y - k v u p C V t W R R R W ",
"R ^ ` u Q %.O.` ^ O.O.^ ! m X.^ ! ) ^ R u u 5.@.O.X.*.%.%.;.^ W @.;.&.&.0 m &.) c T ~ ! ^ ! ! X.X.X.X.X.o.o.o.X.X.^ ! ^ 7 7 7 - 8 7 w u l l T v t t e ` ^ ! ! ^ ",
") R O.7 s 1.&.^ ^ } W R ! ! ! O.O.) ! ^ u k :.` ^ R =.` @.%.;.;.%.;.#.#.8 m O.! Q X.o...X...X.X.X.X.X.X.o.o.X.o.o.X.X.X.u c :.:.>.7.6.4.;.:.4.=.} t k ^ O.! R ) ",
") R O.y @ ! %.W E K ] [ ` ^ o.^ O.@.` ^ 7 u O.^ R Q *.@.;.*.%.@.%.%.@.*.e u O.Q X.X.X.o.X.! X.X.X.X.! X.~ ..X.o.o.X.X.! 0 Q O.^ ` ) ) R ) ' _ _ ^ w x ^ o.X.! R ",
") R ` 6 5 6 - : N N V K K t C w p T T v 7 u T ~ R Q o.*.;.%.%.%.%.*.@.@.7 v %.R #./ / +.` R ! X.X.O.X.X.X...X.X.o.X.X.X.8 ! O.+.) ` O.#.} / ( _ ` y l R O...^ R ",
") T ^ w w C p 3 > N : 3 3 , 1 1 2 w r w = w p c y c o.@.@.;.%.%.%.%.@.*.7 R O.) 3._ ' _ ) ) ..^ o.o.X.X.X.X.X.X.X.o.X.o.u Q O.^ =.*.' ' ( / / ' @.w l T X.X.! ^ ",
"` l W C r C R E V E T T K E ` ` ^ *.*.l 1 - = w w T *.*.*.o.o.%.%.%.=.` e Q ` ` _ v ) ) ) O.! ..X.X.o.^ X.o.X.X.X.o.X.o.u Q ` ' ' ' W ' ( ' ( ' ' r D l o.X...X.",
"T p T 1 r j ) } ] [ @.T ^ ' R #.:.R W ` C p r s i y c T s ! ^ %.*.%.%.=.y x O.@.+.O.O.O.! ^ m m X.O.X.X.X.X.X.X.X.X.X.o.9 c %.( z J R ' ' ' _ ' W S L j ! X.X.X.",
"d w 1 % t t j ( W o.@.^ R W } -.R R W } V W 4 l t e v v v #.O.%.;.#.%.;.r p #.#.%.X.) ^ / ! ^ ^ X...o.X.! X.X.X.X...X.X.7 x O.^ ` W ) O.' #._ #.( V 3 k m ! m c ",
"i r R ` ' ' T ( ^ o.@.^ R ( *.R ( R R ( H 2 : i - v ^ m R l R @.@.@.%.*.u x 4.#.%.+.) ) ! R O.^ ! ! ..X.X.X.X.! X.X.X.X.7 ~ @.` ^ ( ^ *.O.' +.' { K 1 j )  .m p ",
"i p E ^ *.:.c R ^ o.o.O.^ ` ` R ` ^ R R t % r C = 7 c m J F D *.} R ^ ^ 7 n >.&.@.X.+.) / ) ` ^ ! ! X.Q X.! ^ ..X.X.X.o.7 R O.^ ^ W W o.@.` #.O.W 4 2 l m v v c ",
"S l T ^ X.:.x ! o.^ @.%.@.^ R @.^ ^ R W p V r 1 T i w u i L E } W l C y n ,. .@.$.#.! ! ' ) ^ R Q X.X.X.o.m s m X...X.o.u R @.^ ] ^ ^ ~ ^ ^ ) ` } S , t ) ) m m ",
"i E R Q $.1.! ! O.o.@.@.*.) c k u k J R S t 3 3 V , , - w q r t 4 3 ; = a ,. .c m x - v ` ) R R R R ^ O.! c ..! m ! ..X.8 c o.X.~ [ ] o.~ ^ ^ ` } F 3 l v ) v x ",
"J T Q ! R @.Q ! @.@.O.@.^ *.^ s s c R ~ ^ H E t ; S ^ r s ..o.X.W } ^ ! 5 a X.n n n m c R ^ ! ! ^ ! ^ @.! X.O.^ ..X.X.X.7 Q *.~ o.] ] ~ ^ ~ ` ` W 4 , J k u u v ",
"H k T T K K j o.@.o.o.o.` ` @.O.! O.X.! ^ *.T r 7 *.%.) %.*.X.o.o.o.@.s 9 f m  .m ! ! u 7 9 7 7 9 9 7 7 5 9 9 9 9 0 7 7 & 5 Q [ E E C t V K p H S B h j R v R T ",
"S t S V V V t ^ o.$.! ! ! o.! ! ) O.^ ^ ^ o.Z q q n ..O.X.X.X. .! X.X.s n %.m X.Q ! o.X.Q ! Q ..! m s 9 X.Q ! ! ! Q Q Q ! c 7 i r : < A 4 V V V B B Y t t C C C ",
"V C V 3 3 N T =.@.$.! R ! ^ ^ ^ X.X.X.! ~ ^ C f & s o.X.X.X.O.X.X.! ! c 9 s m ! X.X.%.@.%.@.o.o.o.%.n 9 ;.X.X.X.X.) ) ^ ^ O.- = : 4 B F B V N > , M M 3 i i V r ",
"^ R S V C C R @.@.@.^ R ! ^ ^ X.! X.! ! ^ ^ p i = ~ o.O.X.X.X.! ! X.o.O.u ! O...@.@.@.o.o.$.o.o.@.@.7 9 O.! ! ..^ ! R R ! R k t ` =.W W [ ` W E { D r ^ *.;.@.*.",
"^ R S 4 C H O.@.@.@.R R ^ O.) ^ ) ..! ! ~ ^ C i q ^ o.^ ^ ..! X.X...X.c 9 X.! m o.Q X.o.o.o.@.;.:.%.s y @.X.! X.X.R ^ / R R p l q.=.;.*.@.@.@.%.! v @.$.%.o.o.o.",
"! ! ^ H r T @.@.o.o.o.o.^ @.O.^ ! R ^ ! X.~ T V , R @.) ! X.! ! ! ! o.! 0 m c c n c ^ O.o.O.@.%.@.%.c 0 o.^ X.O.! ! ! R R ^ u C *.m Q O.O.X.! m u O.^ !  .X.X.m ",
"! R ! R C p @.@.@.o.O.@.@.` @.` R / R X.! ~ C i 1 ^ } ` ! X.X.....! m ..9 x d c ^ @.@.^ @.^ @.@.@.&.Q u ^ O.` ^ R ! ! ! ^ ) r C o.Q ` ` ^ R R u Q ) ! X.X.! X.! ",
"! ^ ^ W T i o.o.o.@.O.X.^ ` O.^ ^ ) R R ~ T H C = R ` R ! X.! X.m ..X...7 d n c @.O.` ` ^ ` @.@.@.@.^ u ` O.^ ! ! ! ! ! ! ! r J *.~ ! Q R v c Q O.R X.! X.X.! ^ ",
"O.O.^ ~ T u @.o.X.@.X.! ^ ^ @.^ ^ R ) ^ T E J T = ~ O.X.m ! ! m ! ! ! o.s n d ! o.^ O.@.@.@.o.o.X.@.! u %.^ ^ Q Q ! ! ^ R O.p C *.Q ! R v Q *.O.^ Q X.X.X.! X.X.",
") ^ ^ ^ T w o.@.@.%.X.^ R c k R O.R R ^ E t B i # Q O.^ ! ! ! ! ! Q o...u n m X.^ ` @.` O.O.X.X...@...u R o.R ! m Q ! R Q ) T p *.X.o.R R %.Q R ^ ! X.X.X.! X.^ ",
"O.X.^ R H t Q o.@.@.X.! Q Q k x R R ` ^ E 4 K u = ! O.....! Q  .Q ! ..! 7 n X.X.o.o.` @.@.X.! X.! @.^ 5 Q X.^ ! Q ! ) R ! ^ R r *.^ X.p ^ m R O.! ! O.X.X.X...O.",
"$.o.o.l z e u p %.O.o.! ..@.:.s Q ` T T z j R u 5 X.o.X...~ X.Q Q X...n 9 m ! ! ^ O.` @.@.` ^ ! ^ O.) 5 ! X...! .. .o.X.) ! W V W ! c v Q ^ ^ ! ! O.^ ^ ! ) ^ ^ ",
"o.o.O.^ l - 7 y R R c c n n d s u y e u r y 7 5 7 ! @.X.X.X...X.X.! X.n 0 m X.! ` @.O.` O.` ^ ^ ! ^ ! 7 ! O.X.^ X.X.X.X.R m E r T ~ v R X.X.! O.&.X.! ^ ^ ) X.^ ",
"o.o.^ O.R e y @.:.:.;.1.;.%.%.1.%.~ # * y 9 * * 7 o.@.o.! X.X.X.o.Q @.y u o.@.X.` *.*.*.@.@.@.^ ) ^ ! 7 ^ O.o.X.! X.X.X.m Q T r ~ ! R R ^ ! %.%.X.! ^ ! O.^ ^ ^ ",
"o.X.` @.v * s $.@.@.o.o.o.o.o.@.O.` w u s s d 9 o o.@.@.X.o.X.X.X.o.o.o 9 c u y y 7 w 6 7 7 7 - 7 7 7 u O.X.X.! ! ..X.X.! ! ! i Q Q c R ^ X.%.X.X.X.^ ^ O.O.O.O.",
"R ` ^ Q u s ;.%.o.@.o.$.o.o.@.o.o.( , = i 7 5 5 o 7 9 9 9 6 6 y 9 y 9 5 o * 6 y 6 i = & i y e 0 u u - 9 @.X.O.X.X. .X.o.! ! ` y s n c J ! ! O.X.X.X.Q ) ` ` ^ ^ ",
"^ R ^ O.u n %.%.$.o.o.o.o.@.$.o.^ ( 1 t @.X...O.X.m ! o.d i o.X.X.X.! ! 9 s ^ o.o.o.Z p *.^ ) ^ ! ) x 7 @...o.X.X.X.o.o.Q R ^ 7 d ~ s T m ! X.X.! ! Q ^ O.^ ^ R "
};
