/* XPM */
static char *result[] = {
/* columns rows colors chars-per-pixel */
"80 80 86 1 ",
"  c #6E5967",
". c #6F5A68",
"X c #735C69",
"o c #7A5D6B",
"O c #75606C",
"+ c #7E646F",
"@ c #7F6670",
"# c #825F6F",
"$ c #83616E",
"% c #846570",
"& c #8C6471",
"* c #836A73",
"= c #8A6B74",
"- c #916672",
"; c #986676",
": c #946B75",
"> c #9A6976",
", c #9C6B78",
"< c #8D747A",
"1 c #8F787E",
"2 c #917077",
"3 c #937379",
"4 c #9B737A",
"5 c #96797E",
"6 c #9E7A7E",
"7 c #A16C77",
"8 c #A46D79",
"9 c #AA6F7A",
"0 c #A4757D",
"q c #AD707B",
"w c #A3787E",
"e c #AF787F",
"r c #B1767E",
"t c #B2787F",
"y c #8F7A80",
"u c #907C82",
"i c #9A7E81",
"p c #A57E81",
"a c #AC7D81",
"s c #B37A81",
"d c #9A8183",
"f c #9C8689",
"g c #9E8A8D",
"h c #A28284",
"j c #A98283",
"k c #A68B8A",
"l c #AE8D8C",
"z c #B68285",
"x c #B98386",
"c c #BB8688",
"v c #B38988",
"b c #BD8B8B",
"n c #B2918E",
"m c #BE908D",
"M c #A99392",
"N c #AC9998",
"B c #B49692",
"V c #B99591",
"C c #B59B97",
"Z c #BD9C96",
"A c #B69F9B",
"S c #B7A09D",
"D c #BFA199",
"F c #BAA7A3",
"G c #C08F8D",
"H c #C1928F",
"J c #C39490",
"K c #C69A95",
"L c #C89E97",
"P c #C89F98",
"I c #C1A59E",
"U c #CAA39B",
"Y c #CDA89E",
"T c #C1A7A0",
"R c #C4ADA6",
"E c #CEACA2",
"W c #D0AFA4",
"Q c #C7B4AD",
"! c #CFB6AB",
"~ c #D1B2A7",
"^ c #D2B3AA",
"/ c #D6BDB2",
"( c #D6C0B5",
") c #D8C0B5",
"_ c #D5C3B9",
"` c #DAC7BB",
/* pixels */
";qqqqqqqqqqqqqqqqqqqqq- X>qqqqqqqqqqqqqqqqqqqqqqqqqqq>o $7q99qqqqqqqqqqqqqqqqqq;",
"9qqqqqqqqqqqqqqqqqqqqq7 oqqqqqqqqqqqqqqqqqqqqqqqqqqqqq$ oo9;>9;qqqqqqqqqqqqqqqqq",
"8qqqqqqqqqqqqqqqqqqqqq7 o9qqqqq9qqqqq9qqqqqqqqqqqqqqq9$ >9qqqqqqqqqqqqqqq9qqqqq8",
"#-------------------&&$ X#------------------&------&-&  #----------------------#",
"#-------# o#--------------------------# $---------------------------&o.o&------#",
"8qqqq9qq- &qqqq9qqqqqqqqqqqqqq99qqqqqq9 9qqqqqqqqqqqqqqqqqqqqqqqqqqq9&.&99qqqqq9",
"9qqqrsGG> -qqrxGGGGGmbmGGGGGGGGGbbbGGct sGGbGGGGGGbGbbGbGGGGGGGcGct99- :xGtrqqqq",
"r9qqrHJJ0 #7qGJHJHHJJHJJGJGJGJGGcGxxG$o HHHJJJJJHJJJJJJJGGJGqtGtG9r;.. 6JJJtqqqq",
"qqqqsJJJ6  X>txHczJJJJJJJJUUHUWUUWKJJJz.OOGtJJJJJJJJJJJHJYJWWWJWYJbq7$  Ojs>9;;q",
"8qqqrHJm4 &qqxHUEJYJJJJJJHHHJJHHJJJJJJm.GJHHJHJJJJJJJJJHJJHHJJJJJHcqq& 6HHHtqq99",
"$>>>>wj0$.+->4pjjjjjjjjjjjjjjjjjjjajjj> >jjjjjjjjjjjjjjjjjjjjjjjjp4>&o $wjw>>;7#",
"$&&&&=5i5323dgkd3ii333$ X=33555dfgkh3ii23333333333333-X &233d3dkf566d54325&&&&#&",
"rqqqrbKUKJJJUEEUJULJJJa $cJJKKKUYEWUJUUJHJJJJJJJJJJJJG$.aHJHUJUWEULKUPHHHJHrqqqq",
"qqqqsJHJJJJJJJJJJJJJJJm +bJJJHJJJmJJJJJJJJJJJJJJJJJJJH*.vJJJHJJHJJHHHJJKHHHt9rqq",
"qqqqsHJJJJJJJJJJJJJJJJs .2j$6xtcvbJJJJJJJJJJJJJJJJJJJJ% vJJJJJJJJJHJHJJJHHHs>9;q",
"qqqqsJJJJJJJJKsbtqJO O. +vmKYUUUJJJJJJJJJJJJJJJJJJJJJJ* nJJJJJJJJHKJJJJJJHKt9q9q",
"qqqqrHHJHHKHHHHHEK~EHHb %HHHJJHJJJJJJJJJJJJJJJJHJJJJHH= zHJJJHJJHJJJJJHHJJHt9qqq",
"77778evvvvvvvvvvvvvvvv> Owvvvvvvvvvvvvvzvvvvvvvvvvvvvw+ :zvvvvvvvvvvvvvzvve07777",
"o###$%==o X#$$===<<=<===uu5<<=========$ $===<=<<1u<<<======*======$#$X.o*=%$$$$o",
"79qqrGHb,X$8qxHHHUUHYJJK~~WUUHHHJJJJJVx.zJJJUKUYW~YYYKHJJJJJJJJJHHtq9$ 4GHbe9qq7",
"r9qqtHHHi -99cJJJJJJHJJJJJJJGszbJcmH633 HJJJJJJJHJJJJJJJJJJJJJJJHHGqq&.wHHJsqqqq",
"9>9:0v==@ #8qcJJJJJJHJJJJJJJGbcmJKYJBj0 HJJJJJJJJJJJJJJJJJJJJJJJKHcrq$.6JJJtqqqq",
"q9qqtHvv- Xo,scGcHHJJJJJJJJJHJJJHKKJKJH.JJJJJJJJJJJJJJJJJJJJJtttGsjXX. 6JJJtqqqq",
"q9qqtHHH6 -99cGEKE~JJJJJJJJJJJJJJJJJJJHXJJJJJJJHJJJJJJJJJJJH~JEYKYcqq& 6JJJtqqqq",
"-9999xbz& o7aacmHmmmmmmmmmmmmmmmHmmmmmq qmmmmmmmmmmmmmmmmmmmmmmmmbe8,$ -vmx999q-",
"oooooo%@@@@%**@o+**++%O .++++*****@+*++++@+++++@+++%++  O++++****$+*+++*+$oooooo",
"qq9qscJJJJJP^EJJHYYHHHe $xHHJLYYYYKJYJJJJJJHHHJHHJHHHx+ qHJJJY(!UJKUHJJJHHGqqqqq",
"qqqqsJJHJJJJJJJJJJJHHHn %JJHJJJJHJJJJJJJJJJHbHcxxcHHj6+ vJJJJJJJJJHJHHJJHHGrqqqq",
"q7q78sGcJJJJJJJJJJJJJJb %JJJJJJJJJJJJJJJJJJHbKbmJmbHj4+ vJJJJJJJJJJJJJJJKJJtqqqq",
"q898sGGGJJJJJJJJJJJJJJn +JJJJJJJJJJJJJJJJJJJKKKUUJJJHH% nJJJJJJJJJJJJJJJHHJsqqqq",
"qqqqsJJJJJJJJJJJJJJJJHm %JJJJJJJJJJJHJJJJJHHHHJJJJJJHH* vHJJJJJJJJJJJJJJJJJtqqqq",
"qqqq9cJJJJJJJJJJJJJJJH7 OsJJJJJJJJJJJJJJJJJHKHJJJJJJHz$ 8HJJJJJJJJJJJJJJJHcrqqqq",
"XXXXXXXXX  XXOXOOOOOOOOOOOOXO.OOOOOOXOX XOXOXXOOOOOO OXOOXOXOOXOXXXX.  XXOXX  X ",
";qqqqGHG> #7qtGJUY/)))YJKYYUJJJHHmHHHHt tJHKYKWEYYUHJJHHHHJJHHJJHHsr9#X-cHcqqqq;",
"qqqqtHJJ0 -9qGJJJJJJJJJJHJJJJJJGbmmHHjj.JJJJHJJJJJHHJJJJJJJJbHcbHcs9;$ 6JJJtqqqq",
"qqqqtJJJ6 -qqxJJJJJJJJJJJJJJJJKmcKcHH6= JJJJHJJJJJJJJJJJJJJJzLzGKxt7$o wJJJtqqqq",
"qqqqtHHJ6 &qqcHJJJJJJJJJJJJJJHLKUUJJJJH.JJJJJJJJJJJJJJJJJJJJHUJUUHGq9$.*3vx797qq",
"qqqqtHJJ6 -qqcHJJJJJJJJJJJJJJJHJHJJJJJH.JJJJJJJJJJJJJJJJJJHJHJJHHHcqq- 2jmbeq8qr",
";qqqqGHc: $8qzHHJHHJHHJJHHJJHJJJHHHHJHtXtHHHJJHJJHJHJHJJJJHHHHJJHHtq8$ -bHbqqqq;",
" X  XXOX. ..X.XOO.OOXO.OOO.OO.OOOOOXOXX ..OOXOXOOXOXOXOOOOOXOOXOXXXXX. XXXXXX...",
"qqqqrGGGJUE)```~EJWJJJ8 +tJJUUUE/``~KWWJJJJJJJJJJJJJJs$ 7GJJWJ~``(UUEUKHHJxrqqqq",
"qqqqrGJJJJJJJHJJJJJJJJb +JJJJHJJHHJJJJHJJJJJJJJJJJJJJH* vHJJJJJJJJJJHHJJJJJsqqqq",
"qqqqtJJJJJJJJJJHJHJJJJv %JJJJJJJJJJJJJJJJJJJJJJJJJJJJJ* cJJJJJJJJJJJKHJJJJJr789q",
"qqqqtJJJJJJJJJJbHbcH66- %JJJJJJJJJJJJJJJJJJJHmcbGGj664O vJJJJJJJJJJJHHJJJJGr77qq",
"qqqqtHJJJJJJJJJcUcmU663 $HJJJJJJJJJJJHJJJJJJJmzmJJVh66+ vJJJJJJJJJJJHKHKJJJsqqqq",
"qqqqtGJJJHJJJJJmKHUUJJe +zJJJJJJJJJHJJJJJJJJJJJKKJLKJx$ wJJJJJJJJJJJHHHHJJGrqqqq",
"oXooo+$$++++++++++++++O .+++++++*+++%++++++++++++++++O  O$+++++++@@+$+++++oooooo",
"-9999zmx- +>qemmU(__YmYmmmmmmmmmmmmmmmq qmmmYZYE!__!YJmmmJmmmmmmbbt9>$ -zGx9999-",
"qqqqtHJK6 -qqcHHJJJJJJJJJJJJHHHHJHHHmmmXJJJJJJJJJJJJJJJJJJJHHHHJHHb99& 6HJJtq9rq",
"qqqqtHJH6 &qqcJHJJJJJHJJJJJJcttbJcHJ<$O JJJJJJJJJJJJJJJJJJKtszKHtxj+oX wJJJtqqqq",
"qqq7ebmw= &qrcJJJJJJJJJJJJJJJUUJJUYKUJcXJJJJJHJJJJJJJJHJJJYJYYYJEUcq7# 6JJJtqqqq",
"qqq77cv3* -qqGJJJJJJJJJJJJJJHHHJJHJJJJH JJJJJJJJJJJJJJJJJJHJJJJHJHcqq- wJHJtqqqq",
">qqqqGJm> $7qzHHHHJJJJJHJJJJJJJJJJJJJJxXxHHJHHHJJJJJJJHJJJJJJJJJHHzq9$ 4mHbeqq9>",
"o###$$=%oXX+#$=&=============*========$.$=========*===============$$#. +*=%+$$#o",
"77779evvzVIIRQQInDvvvv>.OqvvvVDRQInvDvvvvvvvvvvvvvvvv0+ :zvvDQ!RDvnDmvvvvveq7777",
"qqqqtHJJJJJJKKJJJJJJJHv %HJJJJJKKKHHJJHJJJJJHKHHJJJJJJ% vJJJJKJKJHJHKHJJHKHtqqqq",
"qqq9tHHHJJJJJJJJJJJJJJm %HJJJJHHHJKHHJJJJJJmsbretqcJ3...vJJJJJJJJJJJHJJJJJJtqqqq",
"qq9;,zbxJJJJJJHJJJJJJJv.%JJJJHKKJJHHJJJJJJJJJYKWYUHJHb$.vJJJJJJJJJJJJJJJJJJrqqqq",
"qqqqtHJJJJJJJJJJJJJJJJm.%JJJJJJHJHKKJJJJJJJJJJJJJJJJJJ*.vJJJJJJJJJJHJJJJJJHrqqqq",
"qqqqrHJHJJJJJJJJJJJJJHa.+bJJJJJJJJHHJJJJJJJJJJJJJJJJHb$ aHJJJJJJJJJHJJJJJJGrqqqq",
"$$&&=-3333333333333333$ X=333333333343333333333333333:X.$33333333333253443:&&#-&",
"&>>>>wjw$ o->4pjSSFBjjjnjBvjjjjjjjjjjj>.>jjjnjCFDSljjjjjjjjjjjjjjj7,-o $0jw>;>;$",
"9qqqtHHH0 &qqcHHULUKJJJKJKKJJJHHJJHJHHH mHJJKJKUKUKHJJJJHJJJJJJJJHc99&.4HKmtqqr9",
"qqq->tjO. -qqbJJJHHJJJJJJJJJJJHxqGtHJ+X JJJJJJJJHJJJJJJJHJJJJJJJJHcq9-..XXj49-q9",
"qqqqrJJG, XXXpsrHtHJKJJJJJJJJJJJUWLJJJsXsmmmJJHJJJHJJJJJJJJJJJJJJJbqq- 2HHHtrqqq",
"qqqqrJJHi &q9bHYYEJEYJJJJJJJJJJJJJJJJJJ %@@=bsxbxKKJJJJJJJJJJJJJJJcqq- wHHHsqqq9",
"7qqqrGJH4 &8qxHHHKJJJJHHJHJJJJJJGJJJJJbXbJJJJKYUPKPJJJJJHJHHJJJJJHcq9& 4HHHtqqq9",
"#----4w4# o&->66666w66666666666666pii0- -6666666iw6666666666w66665:-&o $364----#",
"-----4hkMNMkhhp6666666&.X:66hhhkMNNkpkki6666666666ww6:o =66kwkNNNMhhkh66ww4-----",
"qqqqtHHKPUPLKKJJJHJJJHz $mJJJKKUPEUPJLLJJJJJJJJJHHKHJb% zHHKJPYYYUKKKJJJJJmtqqqq",
"qqqqsJHJJJJJJJJJJJJJJJn.$bJJJJHHJJJJJJJJJJJJJJJJHJHHHK* vJJHJJJJHJJJJJJJJJHrqqqq",
"qqqqtJJJJJJJJJJJJJJJHJt. X=bqxzcJJGJJJJJJJJJJJJJJJKHHH* vJJHKHJHJJJJJJJJJJHrq;-q",
"qqqqsJJJHJJJJJsbzqJOOXX +cJUEUUEPJJJJJJJJJJJJJJJJJJJHH=.vHHKHJJJJJJJJJJJJJJtqqqq",
"qqqqsmJJJJJJJJKHYKYYHHc %GJJJJJJJJJJJJJJJJJJJJJJJJJJHG*.zHHHHHJJJJJJJHJJJJHtr9qq",
">->>>wjjjjjjjjjjjjjjjp- O4pjjjjjajpaajjjjjjjjjjjjjjjj4o -wjjpjjjjjjjjjjpjjw>>>>;",
"+&&&&33:o X$&=345fkid334333i555333y233% %333i5fggfd533335325522532=&$X #233&&&$#",
"79qqrGJG4 &89xGJUEEUUJJJJJJUKLKJHJJGJHc xKJJUJUEEYUKHJKHHHHJJJHHHHzq9$ 4HHcrqqq7",
"r9q>78=&+ -q9rsssssstttxtzttssztsaps:== ssssssssssssssssssstss0t0w0##o.>strrqqqq",
"qqq88977& -9qqqqqqqqqqqqqqqqqqqqq999777 qqq9qqqqqqqqeqqqrqqqrq9q99977$.-rqqqqqqq",
"-qqqqqq8$ #7qqqqqqqqqqqqqqqqqqqqqqqqq9;X-q9rqqqqqqqqqqqqqqqqrqqqqqqq7#.#8qqqqqq-"
};
