/* XPM */
static char *result[] = {
/* columns rows colors chars-per-pixel */
"80 80 160 2 ",
"   c #6E5967",
".  c #6E5A68",
"X  c #705A67",
"o  c #735B69",
"O  c #7B5D6B",
"+  c #77606B",
"@  c #7B616D",
"#  c #6A6473",
"$  c #666877",
"%  c #6E6876",
"&  c #646C7B",
"*  c #696D7C",
"=  c #726674",
"-  c #7E6775",
";  c #736A76",
":  c #7B6976",
">  c #736C79",
",  c #7B6B78",
"<  c #65707F",
"1  c #6C717F",
"2  c #76717D",
"3  c #815F6E",
"4  c #83626E",
"5  c #89626F",
"6  c #92626F",
"7  c #846370",
"8  c #8D6571",
"9  c #846872",
"0  c #8B6C74",
"q  c #926574",
"w  c #996776",
"e  c #956C75",
"r  c #9C6A76",
"t  c #9E6B78",
"y  c #8E7176",
"u  c #927177",
"i  c #997377",
"p  c #937379",
"a  c #9B7479",
"s  c #9C7B7D",
"d  c #A16C77",
"f  c #A46C79",
"g  c #AA6F7A",
"h  c #A4727A",
"j  c #AD707B",
"k  c #A37A7D",
"l  c #AE787E",
"z  c #B2767E",
"x  c #BB797E",
"c  c #C16E7A",
"v  c #C7747E",
"b  c #5F7485",
"n  c #637585",
"m  c #6D7382",
"M  c #657A8A",
"N  c #697E8D",
"B  c #707381",
"V  c #787783",
"C  c #727987",
"Z  c #7A7B86",
"A  c #727C88",
"S  c #7A7D88",
"D  c #A37E80",
"F  c #AC7C80",
"G  c #B47B82",
"H  c #B87D80",
"J  c #C57E81",
"K  c #C87E81",
"L  c #D07E82",
"P  c #D97C83",
"I  c #67808F",
"U  c #6F818F",
"Y  c #70818F",
"T  c #7B828D",
"R  c #6C8392",
"E  c #728492",
"W  c #7D8791",
"Q  c #748A97",
"!  c #798B97",
"~  c #758E9A",
"^  c #7C939F",
"/  c #7F97A1",
"(  c #82949D",
")  c #A68082",
"_  c #AB8384",
"`  c #A88884",
"'  c #B48485",
"]  c #BA8586",
"[  c #B48A86",
"{  c #BD8986",
"}  c #BB8788",
"|  c #B38988",
" . c #BD8C8B",
".. c #B6938B",
"X. c #BE918D",
"o. c #B69B93",
"O. c #BF9A90",
"+. c #B6A39B",
"@. c #8397A0",
"#. c #859EA6",
"$. c #C78584",
"%. c #CE8183",
"&. c #CC8887",
"*. c #C08F8D",
"=. c #D68486",
"-. c #D08988",
";. c #DB8C8A",
":. c #C1928E",
">. c #CB928B",
",. c #D5978F",
"<. c #DF918C",
"1. c #C39490",
"2. c #C49D92",
"3. c #CC9A91",
"4. c #D29B91",
"5. c #E08687",
"6. c #E18788",
"7. c #E28A8A",
"8. c #E6948F",
"9. c #E79690",
"0. c #E99C93",
"q. c #D5A396",
"w. c #DDA295",
"e. c #DBA698",
"r. c #D6AB9C",
"t. c #DAAC9C",
"y. c #DDB19E",
"u. c #E3A296",
"i. c #EBA197",
"p. c #E0A598",
"a. c #EDA599",
"s. c #E0A899",
"d. c #EEAB9C",
"f. c #F0AE9D",
"g. c #EBB29F",
"h. c #F1B19F",
"j. c #C9B1A5",
"k. c #E4B5A1",
"l. c #E7B8A3",
"z. c #E9BAA4",
"x. c #F3B5A1",
"c. c #F5BBA5",
"v. c #F5BFA9",
"b. c #F5C2A9",
"n. c #F9C5AB",
"m. c #FBCAAE",
"M. c #EAC5B2",
"N. c #EFC9B5",
"B. c #F7CBB4",
"V. c #FBCDB1",
"C. c #F5CEB8",
"Z. c #FBD2B6",
"A. c #F7D7BE",
"S. c #FBD5B9",
"D. c #FBD9BD",
"F. c #FADDC1",
"G. c #FAE0C4",
"H. c #FAE5C9",
"J. c #FAEBCF",
"K. c None",
/* pixels */
"K.K.K.K.K.K.K.K.K.K.K.K.K.K.K.  X     X                       . . . . .   o     .                 . .   o     . .                 K.K.K.K.K.K.K.K.K.K.K.K.K.K.K.",
"K.K.K.K.K.K.K.K.K.K.K.K.X   s ..[ k 4 @ k [ ..........o.+.....+.+.+.o...[ k 9 @ s [ ..........+.+.....+.+.+.+.+.o...' s @ 4 k [ ..s     K.K.K.K.K.K.K.K.K.K.K.K.",
"K.K.K.K.K.K.K.K.K.K.K.9 9 0 2.m.z.p.a 0 4.x.n.m.m.m.Z.D.G.Z.Z.G.H.H.S.m.c.e.i 0 4.h.n.m.m.m.m.D.G.Z.Z.G.H.H.H.H.Z.n.x.4.0 s p.h.m.O.0 9 9 K.K.K.K.K.K.K.K.K.K.K.",
"K.K.K.K.K.K.K.      0 >.t.k.b.m.m.k.s y t.n.m.m.m.m.m.m.Z.m.m.Z.Z.Z.m.m.n.g.s y y.n.m.m.m.m.m.V.V.m.V.V.Z.V.V.Z.m.m.m.y.y s g.m.m.b.l.p.>.0 X     K.K.K.K.K.K.K.",
"K.K.K.K.K.K.O k | o.j.M.V.m.m.m.m.z.D y y.m.m.m.m.m.m.m.m.m.m.m.m.m.m.m.m.b.s y y.m.m.m.m.m.m.m.m.m.m.m.m.m.m.m.m.m.m.y.y s b.m.m.m.m.B.M.j.o.[ k O K.K.K.K.K.K.",
"K.K.K.K.K.9 u 1.v.A.H.H.D.V.m.m.m.l.s 0 t.n.m.m.m.m.m.m.m.m.m.m.m.m.m.m.n.g.s y y.n.n.m.m.m.m.m.m.m.m.m.m.m.m.m.m.m.n.t.y s g.b.m.m.V.D.H.H.D.b.1.u 9 K.K.K.K.K.",
"K.K.K.K.  F p.B.G.S.V.V.V.m.m.m.c.w.a 9 ,.x.n.m.m.m.m.m.m.m.m.m.m.m.m.m.h.w.y 0 4.h.n.m.m.m.m.m.m.m.m.m.m.m.m.m.m.n.h.4.0 i q.c.m.m.m.V.V.V.S.G.B.w.F . K.K.K.K.",
"K.K.K.i ' r.C.S.S.B.m.m.n.x.f.a.0.;.e 8 &.0.a.0.a.a.a.a.a.a.a.a.a.a.a.a.i.;.y 9 &.0.a.a.a.a.a.d.a.a.a.a.a.a.a.a.a.a.0.&.5 y ;.u.a.f.c.b.m.m.V.S.A.C.r.' i K.K.K.",
"K.K.  k g.B.G.S.m.m.m.n.x.a.9.6.P P w 3 x K J J J L J P J L J L K K K K J x 9 3 z v $.v $.v $.v J J J K $.v $.v K K v l 4 6 %.7.7.8.i.h.n.m.m.m.Z.H.m.g.) . K.K.",
"K.K.  ` n.m.m.m.m.m.b.x.0.7.7.6.P c 6 o o o O O o o   o o o o o + + + o O .   X O o + + o O o O o O O O + O + O + + O O X 5 v P 7.7.8.0.h.b.m.m.m.m.m.b.` . K.K.",
"  e ' q.m.m.m.m.m.c.d.0.8.7.J t 6 6 3   3 5 6 q 6 D 6 6 6 3 3 3 O X X   # $ .                   o O 3 3 5 6 q q 6 6 9 @ X O 6 r i v 7.8.0.f.c.n.m.m.m.m.q.' y X ",
". a p.c.m.m.m.m.n.d.9.7.=.J r         3 6 f g g w F w F F F 3 D 4 X     & b $ .                 o 8 q q r h j g j g d 6 3 X X X   i v =.7.0.d.b.m.m.m.m.c.e.i X ",
"  s z.m.m.m.m.m.b.0.7.7.x O o     o 3 6 w G f c G c w G F 6 6 6 4 o     & b . .                 o 3 q q r g g j g g j f 6 4 o     o + x 6.6.0.b.m.m.m.m.m.z.s X ",
"{ 3.b.m.m.m.m.c.f.8.=.h 5 X         3 3 6 3 3 3 3 3 3 3 3 3 3 O O     . & b #                   X O O O 3 4 5 5 5 5 5 3 3 O X       o 5 h =.8.h.c.m.m.m.m.b.4.{ ",
"g.c.m.m.m.m.n.h.9.8.H 4     o O 3 3 3 3 3 3 3 3 3 3 3 3 O O o O o     X & b #                       o                                   4 v 8.9.h.n.m.m.m.m.h.h.",
"n.m.m.m.m.m.n.i.6.6.v 4     O q w g g g g f g g g w c f w D q q 3 X   X & b #                                                         . @ J 7.7.i.n.m.m.m.m.m.m.",
"m.m.m.m.m.m.n.i.=.j 8 + + 4 6 f g z z H ] } } } } } } G g w q q 3 o     m N =                   o O 5 q w w t ) ) D ) ) ) D t t 6 8 4 O o 5 j =.i.b.m.m.m.m.m.m.",
"b.n.m.m.m.n.h.i.%.8     4 6 d j j j ' $.:.1.1.1.1.1.:.G f w q q 3 o     B N %                   o q w F j j G 1.1.1.1.1.O.X.} H j d e 4 X X 5 %.0.b.n.m.m.m.n.c.",
"a.h.n.V.m.h.d.9.%.8     4 g j j j z { :.1.1.1.1.1.1.1.G g w q q 3 o     B N %                   O w j j F g G 1.1.1.1.1.1.1.1.} j j g 4 X   5 =.9.a.h.m.m.m.h.a.",
"i a D s D s i e 6 +     o 4 4 4 4 4 9 0 0 0 0 0 0 y 9 9 3 O O O o o   o m M #                 o o O 3 5 3 3 0 0 0 0 0 0 0 0 0 9 4 4 4 +     O 8 e i s D s s s i ",
"i s s s s s i e 8 + X           O 3 9 y 0 y 0 0 0 0 0 y 0 0 8 3 3 O o   m b #                 o O 3 7 0 0 0 0 0 0 0 0 0 0 9 7 O . . .     . @ 8 i i s ` s s s i ",
"a.h.m.m.V.c.a.8.%.8     . . . . q z  .1.1.1.1.1.1.1.1.1.1.1.} z f q 3   m A =               o 3 w f G  .1.1.1.1.1.1.1.1.1. .z q . . . . . . 6 %.9.i.h.m.m.m.h.d.",
"b.n.m.m.m.n.c.0.%.8 = T T A m < = 8 _ 1.1.1.1.1.1.1.1.1.1.1. .G f F 5   m b #               o q f j G  .1.1.1.1.1.1.1.1.1.' 8 = & < Y W T = 6 %.0.h.m.m.m.m.b.b.",
"S.V.m.m.m.m.n.a.=.8 > ^ / Q I N $ @ ) 1.1.1.1.1.1.1.1.1.1.1. .j g F q   m M #               o q j j G $.1.1.1.1.1.1.1.1.1.) @ $ I E E ( ( ; 8 %.i.n.m.m.m.m.Z.S.",
"J.G.V.m.m.m.n.i.%.8 ; ( ^ Q Q E > - D 1.1.1.1.1.1.1.1.1.1.1. .G g g 6   B A B               o q g g G :.1.1.1.1.1.1.1.1.1.) - * Q Y Q ^ ( > 8 %.i.b.m.m.m.V.G.J.",
"J.G.V.m.m.m.n.i.%.8 + ; ; = # = 0 t ] 1.1.1.1.1.1.1.1.1.1.1. .z f G 6   B N =               o q j F G  .1.1.1.1.1.1.1.1.1.] a 8 = = % ; = + 8 %.i.m.m.m.m.V.G.J.",
"G.D.V.m.m.m.n.i.%.8 X 4 0 u y y k ]  .1.1.1.1.1.1.1.1.1.1.1. .z f f 6   C S B                 6 f g G  .1.1.1.1.1.1.1.1.1.*.H D y y y 0 4 o 8 %.i.n.m.m.m.V.D.G.",
"m.m.m.m.m.m.n.i.%.6 + d l { *.X. .X.X.X.X. .*.*.X. .1.X.X. .} j w w 3   D ( B               o 3 6 f F } X.X.X. .X.X.X.X.X.X. .:.X.X.{ l r @ 8 %.i.n.m.m.m.m.m.V.",
"G.D.V.m.m.m.n.i.%.8 X + 4 9 9 9 9 9 9 9 9 9 7 9 9 9 9 9 9 9 7 3 O O o o N @.B .             o o O 3 3 3 - 7 9 9 9 7 9 9 9 9 9 9 9 9 9 4 + + 8 %.i.n.m.m.m.V.D.G.",
"G.D.m.m.m.m.n.i.%.8 X X X X X X . .             . .             . . . . A #.B .               O 3 3 0 e p p p p p p u u u u u u u u u 0 4 + 8 %.i.n.m.m.m.m.S.G.",
"m.m.m.m.m.m.m.i.%.8 X X X o o o o o o o o o o o o o o o o o o o . . o . S @.B o             o 3 w f G  .1.1.1.1.1.1.1.1.1.1.1.1.1.1.X.H d 4 8 %.i.n.m.m.m.m.m.m.",
"m.m.m.m.m.m.n.i.%.8 + 5 6 r d r d r d r d r d r t r d r d r w 8 3 q O . C S =               o 6 f F G  .1.1.1.1.1.1.1.1.1.1.1.1.1.1.1.X.H 9 8 %.i.n.m.m.m.m.m.m.",
"m.m.m.m.m.m.n.i.%.6 O q f g g j j j j j j j j g j g g G g g F q D 3 3   B N V B               6 G f G L 1.1.1.1.1.1.1.1.1.1.1.1.1.1.1.1.] 9 q %.i.n.m.m.m.m.m.m.",
"n.m.m.m.m.m.b.i.%.8 3 r g g z j j j j g j j j g j g g g G g f w 3 D 3   D N B                 D w G G J 1.1.1.1.1.1.1.1.1.1.1.1.1.1.1.*.| 9 8 K i.b.m.m.m.m.n.n.",
"f.h.m.m.m.h.d.9.%.8 O q f g g j j j g g j j F g j j F g f g f w 6 D     C A B                 3 6 F G G G 1.1.J 1.o.1.G *.o.1.1.1.1.:.' h @ 8 =.9.d.c.m.m.m.h.f.",
"[ { ....O...' l f @ o 3 3 q q 8 q q q q q 6 q q 6 6 6 q 6 6 q 3 3 3     B C o                 3 3 3 D D D D D F D D D D D D D D s s s e 8 O O d l ' { ..O...{ [ ",
"4 4 9 @ : - @ 4 O o o o O @ @ @ O @ @ @ @ @ @ @ O - O O O o o O o       B N B                     o   o 3 o V B O - = - B = O O @ @ @ O o o o + @ 4 - 9 - 9 4 @ ",
",.q.y.g.g.e.,.-.x 5 O e k | | | ' | | | | | | | G | | | G F f w F 6 3   m b B               o 3 3 F G w G G G G | | G | G G | G | [ | k r + 8 x -.,.e.g.y.y.w.q.",
"h.b.m.m.m.b.h.0.=.8 4 l } :.1.1.1.1.1.1.1.1.1.1.1.1.1.1. .G g F w w 3   b b                   6 w g G f G J J 1.1.1.1.1.1.1.1.1.1.1.:.{ l 4 8 %.0.h.b.m.m.m.b.h.",
"Z.Z.m.m.m.m.n.i.%.8 9 [ 1.1.1.1.1.1.1.1.1.1.1.1.1.1.1.1.$.G g g w F 3   m b .                 6 F w w c G J +.1.1.1.1.1.1.1.1.1.1.1.1.1.[ 9 8 K i.n.V.m.m.m.V.V.",
"H.F.m.m.m.m.m.a.%.8 9 [ 1.1.1.1.1.1.1.1.1.1.1.1.1.1.1.1. .G f w 6 3                           B O 6 w f G 1.1.1.1.1.1.1.1.1.1.1.1.1.1.1.| 9 8 =.i.n.m.m.m.V.F.H.",
"J.F.Z.m.m.m.b.a.%.8 9 l  .:.1.:.1.1.1.1.1.1.1.1.1.1.1.1. .G f 5 3 B m D B .               B V V V - 6 D G 1.1.1.1.1.1.1.1.1.1.1.1.1.:. .F 4 8 %.i.m.m.m.m.m.H.J.",
"H.D.m.m.m.m.m.0.%.8 O w k | | | | | | ' | | | | | | | G ' D q o V #.N #.V o               B #.#.( B O w F | G | | | | | | | | | [ | ' l w + 5 %.i.n.m.m.m.V.F.H.",
"Z.Z.m.m.m.m.b.a.%.6 X o O @ @ @ @ @ @ @ @ @ @ @ @ @ @ O @ O o   B N #.#.B               m M ~ / ( : . o O O O O O = O @ O @ @ @ @ + + + o o 8 =.i.n.m.m.m.m.V.V.",
"D.S.m.m.m.m.m.i.%.5 X                   . .                     B A ^ #.N m               B ~ ^ ( : o O 3 6 w D D D D D D D D D s s s q 5 + 8 %.i.n.m.m.m.m.S.F.",
"H.G.m.m.m.m.n.i.%.8 X     o O 3 3 O O O O O O O O 3 O O O O o o B N ^ #.B                 B ~ #.( B O 6 w G G *.X.X.X.1.X.1.X. .1.1.:.] h 4 8 %.i.n.m.m.m.V.F.H.",
"V.m.m.m.m.m.n.0.L q     O 6 w f f f f g f f f f g f f g f q 3 o B S D #.B . .             B N D ( > 3 w F f G 1.X.X.1.1.1.1.X.X.1.1.1.:.[ 9 8 %.i.n.m.m.m.m.V.m.",
"m.m.m.m.m.m.n.a.K q     3 w f j j j j j j F g g g g g f F w 5 o B C ^ #.V . .             B N #.( > 3 f F F } 1.1.1.1.1.1.1.1.1.1.1.1.1.[ 9 8 %.i.n.m.m.m.m.m.m.",
"m.m.m.m.m.m.n.i.%.8 X X 4 d g j G f f g g g g g g g g j g w 7 o b ~ ^ #.B               B M ~ / ( B 3 w G G G J J 1.*.1.1.1.1.1.1.1.1.*.' 9 8 %.i.m.m.m.m.m.m.m.",
"m.m.m.m.m.m.n.i.%.8 X X + 6 d j F F G g c g G F G f j j g w 5 o m N ^ #.B                 N N / ( , O 6 6 G G J 1.1. .G 1.1.1.1.1.:.:.' f O 5 %.i.b.m.m.m.m.m.m.",
"h.c.m.m.m.b.h.9.%.8 X X o + 4 5 5 5 7 5 3 3 6 5 5 5 6 3 7 3 O o B N ^ #.B                 B ~ ^ ( ,   O O 3 3 D D D O D q B D D u u u 8 4 o q =.0.h.b.m.m.n.b.h.",
">.3.r.r.t.4.>.$.x 4 X O 4 9 9 4 9 9 9 9 3 5 7 7 7 5 7 5 7 @ O   B N D / V                 B ~ ^ ( >             m                       .   4 z $.>.4.t.r.r.4.>.",
"+ + + + + + + + o o @ r l X.*.X.1.X.X.X.X.X.X.X.X.X.X.X.} G w O B A D #.m                 B N #.( >             o o             o X   X     X + o + + + + + + + ",
"{ :.2.2.2...{ H g 4 4 ' *.:.1.:.1.1.1.1.1.1.1.1.1.1.1.1.X.G r O B C ^ #.D                 m N D ( > O O 3 3 6 6 6 6 6 6 6 q q q 6 5 4 o     4 j x { :.2.2.2.:.{ ",
"h.c.m.m.m.c.f.9.%.8 9 [ 1.1.1.1.1.1.1.1.1.1.1.1.1.1.1.1. .G w O M N ^ #.B                 m ~ / ( , o 5 D D 6 w G G g g f c F F j d w +     8 %.9.h.c.m.m.n.h.h.",
"m.m.m.m.m.m.n.i.%.6 9 [ 1.1.1.1.1.1.1.1.1.1.1.1.1.1.1.1. .G w O m ~ ^ #.B               m M ~ ^ ( , o q 3 q D F G f g g F g f F j j g 4     8 %.i.n.m.m.m.m.m.m.",
"G.D.V.m.m.m.n.i.%.8 4 l [ :.:.:.1.1.1.1.1.1.1.1.L +.J G G G F o m N ^ #.D . . .           m ~ ^ D B o 6 3 D 6 F f c F F w G G f j h e 3     8 %.i.m.m.m.m.V.D.F.",
"J.G.V.m.m.m.n.i.%.8 + 6 h ) _ ` D D F F F D _ D D F D F F F 3 3 B N ^ #.M .               m ~ ^ N B o 3 3 3 6 D 6 6 6 D 6 w w 6 r 8 3 O     8 %.i.m.m.m.m.V.G.J.",
"J.G.V.m.m.m.n.i.%.8 + X X             B # # o . m B             B C N #.B                 B N ^ @.B         # .                           X 5 %.i.n.m.m.m.V.F.J.",
"S.Z.m.m.m.m.n.i.%.8 + 8 i ) ) ) F D F G F D D F F F D F D D 3   B m ^ #.B                 m M D D B O 3 F F F D F F F F F F F G ) ) ) ) s @ 6 %.i.n.m.m.m.m.S.S.",
"S.Z.m.m.m.m.n.i.=.5 O q i D F ) G G K 1.1.1.1.1.G 1.1.1.L G D o . b b D B . . .           . B B N B 3 F G 1.1.1.1.1.1.1.J 1. .G ) ) ) ) s @ 8 %.i.n.m.m.m.V.S.S.",
"J.G.V.m.m.m.n.i.%.5   X X X . X 3 F G 1.1.1.1.1.1.1.1.1.G G F D 3       b b m .                 B D 6 6 G 1.1.1.1.1.1.1.*.G F D . . . . X X 8 %.i.n.m.m.m.V.F.J.",
"S.Z.m.m.m.m.n.i.%.8 = T W A C C B D G 1.1.1.1.1.1.1.1.1.J G G f F 3 o   b b .                 3 6 w G w G 1.1.1.1.1.1.1.J F D # Y 2 Y W T ; 8 %.i.n.m.m.m.m.Z.S.",
"m.m.m.m.m.m.n.i.%.8 > ^ / Q R R m B F 1.1.1.1.1.1.1.1.1.J G f w F w 3   m b m                 6 w w c G G  .1.1.1.1.1.1.1.F   b I E E ( ( ; 8 %.i.n.m.m.m.m.m.m.",
"m.m.m.m.m.m.n.i.%.5 > ( ^ Q N b # @ ) 1.1.1.1.1.1.1.1.1.*.G g j w G 6   B B o                 6 G G G w G J J 1.1.1.1.1.1.F O # b M N @.( = q L i.n.m.m.m.m.m.m.",
"m.m.m.m.m.m.n.i.=.5 + ; ; % # # 9 d } 1.:.*.1.1.1.1.:.:.*.G j j F D 3   B C B                 6 6 F G G G L 1.1.1.*.1.1.1.| D 3 # # = B B o 8 L a.m.m.m.m.m.m.m.",
"c.b.m.m.m.b.c.0.=.5   X   X   X 7 q s D D D D k D D D D k r w q q 3 O . B N B                 3 3 6 6 6 D D D D D D D D D D D 3   o   o     8 L 0.h.n.m.m.n.b.h.",
"u.g.c.b.b.g.u.<.K 5   o X X X o o o X X o   o   o o   o   X X         . B N B                       o o   o   B o o # = o o     . o . o o   8 K <.u.g.b.b.b.g.u.",
"y y p p p u y 8 5 O o 3 q r r r d r d r r d d d w 6 w 6 r q 5 5 3     . b M .                 3 D D D G F F G | | F | G _ _ | G _ ' _ k q O o 3 8 u u p p p u e ",
"k D ` ` ` ) k h e O O q d j j j j g j j g g j j G c G g f w q q 3 o     m b #                 3 3 F G G J 1.1.+.1.1.o.1.1.1.1.1.1.1.*.} F - O w i k ) ` ` ` k k ",
"d.h.m.m.m.h.a.9.K 5 3 d g j j j j j j j j j j j f c g G F 6 q q 3       B C B               o D F F G *.1.1.1.1.1.1.1.1.1.1.1.1.1.1.1.1.| 9 6 K 9.a.c.m.m.n.h.f.",
"n.n.m.m.m.n.b.0.=.5 O q d g j j j j j j j j j j G f f G w D q q 3       m b #               o 6 G w G *.1.1.1.1.1.1.1.1.1.1.1.1.1.1.1.1.| 9 8 =.0.b.n.m.m.m.n.n.",
"S.S.m.m.m.m.n.i.%.8 + 4 5 q q 8 q q 5 O q 6 q 7 6 6 3 3 6 3 3 3 3       m n .               o q 6 G G J L +.1.1.1.1.1.1.1.1.1.1.1.1.1.} l 9 5 %.i.n.m.m.m.m.S.S.",
"J.F.V.m.m.m.n.i.%.6                                                     B C B                 3 6 w G G J G G +.J o.1.G G J G 1. . . .F r @ 8 =.i.b.m.m.m.V.G.J.",
"J.F.V.m.m.m.n.i.%.8         . .                                         m b .                 .     O D 3 3 3 3 3 B D m 3 3 3 3 9 4 - + O X 5 %.i.n.m.m.m.Z.G.J.",
"F.D.V.m.m.n.n.i.%.6 o 4 0 p a a 0 D D 7 D D D D q D q D 7 D D q 3 3 o   b b #                                                             o q %.i.n.m.m.m.V.S.D.",
"m.n.m.m.m.n.n.0.%.8 4 d H :.1.1.X.1.1.1.1.1.1.1.1.1.1.1. .1.} G w w 3   b b #                       o o o o   o   o 3 o O o 3 O o o o X .   8 %.i.b.n.m.m.m.m.n.",
"h.h.n.m.m.h.f.0.%.8 9 [ :.1.1.1.X.1.1.1.1.1.1.1.1.1.1.1.*.1.G G G f 6   $ b #                     O q 3 6 F F w F F f w w w w 6 d d r 3     6 =.9.f.c.m.m.n.h.f.",
"0.0.d.d.h.i.9.7.v 8 4 F { :.:.1.1.1.1.1.1.1.1.1.1.1.1.1.1.1. .G f w 3   b b # .                   3 6 6 w w G f w G c w J w G G j f t 3     5 v 6.0.i.d.f.a.i.0.",
"7.7.7.7.7.7.7.v c 5 @ d ' :.:.1.1.1.1.1.1.1.1.1.1.1.1.1.1.1.G G F q 3   # b #                     6 6 w w G f c G w w G f c c w j d q O     3 c v 7.7.7.6.6.6.6."
};
