/* XPM */
static char *result[] = {
/* columns rows colors chars-per-pixel */
"80 80 141 2 ",
"   c #6E5967",
".  c #6D5B6A",
"X  c #705A67",
"o  c #745B69",
"O  c #7C5E6C",
"+  c #6E616F",
"@  c #77606B",
"#  c #7E626D",
"$  c #676675",
"%  c #6B6372",
"&  c #666877",
"*  c #6F6876",
"=  c #646B7B",
"-  c #6B6D7B",
";  c #726674",
":  c #7A6372",
">  c #736A76",
",  c #746C79",
"<  c #6E707E",
"1  c #70717F",
"2  c #815F6E",
"3  c #83616E",
"4  c #89626F",
"5  c #92626F",
"6  c #866170",
"7  c #8D6571",
"8  c #836971",
"9  c #8C6C73",
"0  c #926673",
"q  c #996775",
"w  c #956A74",
"e  c #9C6A76",
"r  c #9E6978",
"t  c #8D7176",
"y  c #937177",
"u  c #997377",
"i  c #93767A",
"p  c #997579",
"a  c #9C7D7E",
"s  c #A16C77",
"d  c #A46C79",
"f  c #AA6F7A",
"g  c #A47178",
"h  c #AD707B",
"j  c #A37B7C",
"k  c #AF797C",
"l  c #B4757B",
"z  c #BB797E",
"x  c #C16E7A",
"c  c #C7747E",
"v  c #5F798A",
"b  c #607383",
"n  c #6D7583",
"m  c #617B8B",
"M  c #707381",
"N  c #717B89",
"B  c #AD7F80",
"V  c #B87D80",
"C  c #C57E81",
"Z  c #C87E81",
"A  c #D07E82",
"S  c #D97C83",
"D  c #71808E",
"F  c #7B828D",
"G  c #678090",
"H  c #6B8392",
"J  c #718795",
"K  c #738896",
"L  c #768F9A",
"P  c #7C949F",
"I  c #82939C",
"U  c #A58080",
"Y  c #A88683",
"T  c #A88884",
"R  c #B28483",
"E  c #BB8785",
"W  c #B48A86",
"Q  c #BC8986",
"!  c #B6938B",
"~  c #BB948C",
"^  c #B69B93",
"/  c #BF9A90",
"(  c #B6A39B",
")  c #C78584",
"_  c #CE8183",
"`  c #CC8887",
"'  c #D68486",
"]  c #D08988",
"[  c #DB8C8A",
"{  c #C0938C",
"}  c #CB928B",
"|  c #D5978F",
" . c #DF918C",
".. c #C49D92",
"X. c #CC9A91",
"o. c #D29B91",
"O. c #E08687",
"+. c #E18788",
"@. c #E28A8A",
"#. c #E6948F",
"$. c #E79690",
"%. c #E99C93",
"&. c #D5A396",
"*. c #DDA295",
"=. c #DBA698",
"-. c #D6AB9C",
";. c #DAAC9C",
":. c #DDB19E",
">. c #E3A296",
",. c #EBA197",
"<. c #E0A598",
"1. c #EDA599",
"2. c #E0A899",
"3. c #EEAB9C",
"4. c #F0AE9D",
"5. c #EBB29F",
"6. c #F1B19F",
"7. c #C9B1A5",
"8. c #E4B5A1",
"9. c #E7B8A3",
"0. c #E9BAA4",
"q. c #F3B5A1",
"w. c #F5BBA5",
"e. c #F5BFA9",
"r. c #F5C2A9",
"t. c #F9C5AB",
"y. c #FBCAAE",
"u. c #EAC5B2",
"i. c #EFC9B5",
"p. c #F7CBB4",
"a. c #FBCDB1",
"s. c #F5CEB8",
"d. c #FBD2B6",
"f. c #F7D7BE",
"g. c #FBD5B9",
"h. c #FBD9BD",
"j. c #FADDC1",
"k. c #FAE0C4",
"l. c #FAE5C9",
"z. c #FAEBCF",
"x. c None",
/* pixels */
"x.x.x.x.x.x.x.x.x.x.x.x.x.x.x.                                                                          @                         x.x.x.x.x.x.x.x.x.x.x.x.x.x.x.",
"x.x.x.x.x.x.x.x.x.x.x.x.X   a ! W j 3 # j T ! ! ! ! ! ^ ( ~ ! ( ( ( ^ ! W j 8 # j W ! ! ! ! ! ( ( ! ^ ( ( ( ( ( ^ ! R a # 8 j R ! a     x.x.x.x.x.x.x.x.x.x.x.x.",
"x.x.x.x.x.x.x.x.x.x.x.8 8 9 ..y.w.*.p 9 o.6.y.y.y.y.y.h.k.d.d.k.l.l.h.y.w.*.u 9 o.6.t.y.y.y.a.h.k.a.a.k.l.l.l.l.g.y.5.o.t i >.w.y./ 9 8 8 x.x.x.x.x.x.x.x.x.x.x.",
"x.x.x.x.x.x.x..     9 } =.8.r.y.y.9.a t ;.y.y.y.y.y.y.d.d.y.y.d.d.d.y.y.y.9.a t ;.t.y.y.y.y.y.a.a.a.a.y.d.a.a.a.y.y.y.;.t a 5.t.a.e.9.2.} w       x.x.x.x.x.x.x.",
"x.x.x.x.x.x.o j W ^ 7.u.p.a.y.y.y.0.a t :.y.y.y.y.y.y.y.y.y.y.y.y.y.y.y.y.0.a t :.y.y.y.y.y.y.y.a.y.y.y.y.y.y.y.y.y.y.:.t a r.t.y.y.a.a.u.7.^ W j o x.x.x.x.x.x.",
"x.x.x.x.x.8 w X.e.f.l.l.h.a.y.y.t.5.a t ;.t.y.y.y.y.y.y.y.y.y.y.y.y.y.y.t.5.a t ;.y.y.y.y.y.y.y.y.y.y.y.y.y.y.y.y.y.t.;.t a 5.r.y.y.a.h.l.l.j.r.X.y 8 x.x.x.x.x.",
"x.x.x.x.  B >.i.j.f.a.a.y.y.y.y.q.*.p 9 | q.t.a.y.y.y.y.y.y.y.y.y.y.y.y.6.*.i 9 | 6.y.y.y.y.y.y.y.y.y.y.y.y.y.y.y.t.6.o.9 u =.5.y.y.y.a.p.a.d.k.i.*.B   x.x.x.x.",
"x.x.x.u R ;.s.f.g.p.y.y.t.w.4.1.%.| w 4 ` %.,.,.1.1.1.1.1.1.1.1.1.1.1.1.,.[ y 4 ` %.,.1.1.1.1.,.1.1.1.1.1.1.1.1.1.1.%.` 4 w | ,.1.4.q.t.t.a.a.d.g.s.-.R u x.x.x.",
"x.x.  j 3.p.k.d.a.y.y.t.q.,.$.@.O.A 5 3 l C C C C Z C C C C C C C c ) C C z 7 3 l c ) C C C C Z ) c ) c C C C C C C c l 3 w A O.@.#.1.6.t.y.y.y.d.k.p.3.j   x.x.",
"x.x.  T t.y.d.y.y.y.t.4.%.@.@.+.S c 5 X O o o O O o O o O o O o @ O o @ o O X X o @ O @ O o o @ o O o O o O o O O @ O o   4 c S @.@.#.%.5.r.y.y.y.a.a.r.T   x.x.",
"  y R &.y.y.y.y.t.w.4.%.#.#.C r q 5 O o 4 7 6 O                                                         X   2 0 5 w w 4 o O 5 q u c @.#.%.4.w.t.y.y.y.y.&.R t   ",
"  p *.w.y.y.y.y.t.4.$.@.' c e       o 2 s d r 6                                                             7 d g h h s 3 X X X   e C ' @.%.4.r.y.y.y.y.w.2.i   ",
"  a 0.y.y.y.y.y.r.%.+.+.l # X X   X 6 q f h f 0 X                                                           2 0 s h f s q 4 X       # z @.@.%.t.y.y.y.y.y.5.a @ ",
"Q o.r.y.y.y.y.w.4.#.' g 4 X       X O O 3 6 6 O                                                             o O 2 3 4 4 2 o X       X 4 h Z #.4.w.y.y.y.y.r.o.Q ",
"5.w.y.y.y.y.t.6.%.@.E 2     o O O 2 2 3 2 O O X                                                                 X X                     3 c @.%.3.y.y.y.y.t.w.6.",
"y.y.y.y.y.y.t.,.@.@.c 3     O 0 s f f f f s 0 6                                                                                         # C @.@.,.y.y.y.y.y.y.y.",
"y.y.y.y.y.y.t.,.' h 7 X @ 3 0 s f h f h h f d 0                                                                 2 q q q 0 q q q q 7 2 O o 7 h ' 1.t.y.y.y.y.y.y.",
"w.r.y.y.y.t.w.%._ 7     O q s h h h f l h f d 7             . . +                                               7 f f l f h h h f f q O     7 _ %.w.t.y.y.y.r.w.",
"1.6.t.y.y.6.1.$._ 7     4 f h h h f h f f d q 2             + b = .                                           X 2 q d f h h h h f f f 6     7 _ #.1.w.y.y.y.6.1.",
"u a a a a a u e 7 O     o 3 3 3 6 3 3 3 6 2 O o             % v = .                                           X o O O 2 3 3 3 # 3 3 3 o     O 7 w u a a a a a u ",
"u a a a U a u w 9 O         X O 2 3 2 6 2 6 3 2 3 O O X     % v = .                                         o O O 3 3 6 3 3 3 O O o     X X @ 4 w u p a a a a u ",
"1.6.y.y.y.w.1.#._ 7       . O 0 d h h h f h l f h r 0 O     . = b                                           : 0 s h h h h h h d 0 O       X 4 _ #.1.w.y.y.y.6.1.",
"r.r.y.y.y.t.w.%._ 0 * F N b * O q f h h h h f f h f r #     . % +                                           4 s f h h h h h h q @ * - D F ; 7 ' %.w.t.y.y.y.t.w.",
"g.d.y.y.y.y.t.,._ 7 , I P N - X 0 h h h h h h h h h g @     . $ +                                           7 h h h h h h h h 7   - G P I , 7 _ 1.t.y.y.y.y.d.h.",
"z.k.a.y.y.y.t.,._ 7 , I P K 1 X 0 h h h h h h h h h f 3     . = = .                                         0 f h h h h h h h 0 X 1 K P I , 7 _ ,.t.y.y.y.a.k.z.",
"z.j.a.y.y.y.t.,._ 7 @ > > ; : 7 e h h h h h h h h h f 3     . $ . .                                         7 f h h h h h h h r 4 : > > > o 7 _ ,.t.y.y.y.d.k.z.",
"j.h.a.y.y.y.t.,._ 7 X @ 3 3 0 e f h h h h h h h f f e 3     . $ $ .                                         4 d f h h h h h h f e 0 3 2 O X 7 _ ,.t.y.y.y.a.h.j.",
"a.y.y.y.y.y.t.,._ 7 O 4 q d f f f f f f f f f f f s 4 O     $ v = .                                         O 7 r f f f f f f f f f d q 7 o 0 _ ,.t.y.y.y.y.y.y.",
"k.h.a.y.y.y.t.,._ 7 X o O # 3 O O 2 3 # O 3 2 O 2 O O       $ = = .                                         X O O 2 2 2 O 3 O 3 2 2 O O O X 9 _ ,.t.y.y.y.a.h.l.",
"j.h.a.y.y.y.t.,._ 7           X                             . v = .                                     o O 2 4 4 4 3 4 3 3 4 3 4 4 4 2 O X 7 _ ,.t.y.y.y.y.h.h.",
"y.y.y.y.y.y.t.,._ 7 X X X o o o X o o o X o o o X           . = = .                                     O 0 s h h h h h h h f h f h f e 4 O 5 _ ,.t.y.y.y.y.y.y.",
"y.y.y.y.y.y.t.,._ 7 @ 4 5 e s e r r e s e s e w 4 O         % v = .                                     3 s f h h h h h h h h h f l f f e # 7 _ ,.t.y.y.y.y.y.y.",
"y.y.y.y.p.p.e.,.S 5 2 5 r r x r V d V x V x V r B 2         b b = .                                     2 d f h h h d V d d V r f f h h d 2 5 _ 1.t.y.y.y.y.y.y.",
"t.t.y.y.t.p.e.,.A 5 2 r x V r V d d r d r r x r B 2           b = .                                     2 B V d h h r V f x r V l f h f e 2 4 _ ,.r.y.y.y.y.y.t.",
"4.w.p.y.t.e.1.$.C B o 5 r V V r x r V r r V V r 2 2         . b = . .                                   O q r f h B f B B V f x f f f d 0 O 7 _ $.4.w.y.a.y.6.5.",
"B E ~ ~ ~ Q B V B     2 2 2 5 5 5 5 5 5 5 2 5 5 2           . b = . .                                   o O 6 2 5 5 5 5 2 5 5 2 0 0 7 6 O o 2 s k R W ~ ~ ~ W R ",
"6 : 8 8 B . M :         o o 2 o 2   o o o                   . b = .                                                     o O o o o O o o o   X O # 3 # # 8 8 3 # ",
"| =.:.8.8.%.A A V 2   2 5 r r r r B r r 5 2                 b b = .                                                 2 5 q r r r s s s 0 6 o 4 z ` | &.5.8.8.=.| ",
"q.w.y.y.p.e.u.,.S 5 2 5 r V V r V r d d q 5 o           .   . b = .                                               o 5 B r x V x h h f f q O 7 ' %.6.t.y.a.y.r.0.",
"a.a.a.y.p.s.e.S S 5 2 r r x r x r x d V V q o           . . . b = .                                               o 5 r V r V r h h f f s # 7 _ 1.t.y.y.a.y.y.a.",
"z.j.a.y.y.y.t.%.A B   B r V V r x r d x V 5 o                 . .                                 .   .           o B q V V 5 V h h h f s O 7 _ ,.t.y.y.y.y.k.l.",
"z.j.a.y.y.y.t.,.C o   5 r r r V d V V r 5 5 o         M M M M .                                   . . M M M .     o 2 V q x x r h h h f q O 7 _ ,.t.y.y.y.a.k.z.",
"z.j.a.y.y.y.t.,.A B o 2 5 r r r r r r r 5 2 o         M n N N :                                     M N N m M     o 2 5 5 B 5 r s s e q 6 o 7 _ ,.t.y.y.y.d.j.l.",
"a.a.t.a.y.a.t.,.S 5       o 2 o 2   2 o o             b v N N M                                     M N N m M         o   2 o o o O o o X X 0 _ ,.t.y.y.y.y.y.d.",
"j.g.a.y.y.y.t.,.S 2                 o o             . b m m n M                                     M n m m n           2 2 5 5 5 0 7 3 2 o 7 _ ,.t.y.y.y.y.g.j.",
"l.j.a.y.y.y.t.,.V B     o o o 2 2 o 2 2 2 2         . b m N n .                                     M N N v b         o 5 q r V h h h s 0 @ 9 _ ,.t.y.y.y.d.h.l.",
"a.a.y.y.y.y.t.,.A 2     2 5 r r r r r d r r 0 2 .   : n m N N :                                     : n m v .         2 q r V r h h h f e # 5 _ ,.t.y.y.y.y.y.y.",
"y.t.y.y.y.y.t.,.S 5     2 q r r x V r V d V r 6 . . . m m m n .                                     M N N b b         2 r V r x h h h h d O 4 _ ,.t.y.y.y.y.y.y.",
"y.y.y.y.y.y.t.,._ 7     3 s f h r d V r V r r 5       b m K N M                                     : v m m n         2 B V r r h h h f e O 7 ' ,.t.y.y.y.y.y.y.",
"y.y.y.y.y.y.t.,._ 7     @ 0 s h V V r x x r r 2 o     $ m N N M                                     M N N v b o       o 2 5 r V f f f d 7 O 7 _ ,.t.y.y.y.y.y.y.",
"q.w.t.y.y.t.6.%._ 7     o O 3 4 2 2 5 2 2 2 2 o     . b m m N .                                     M M N v .         o o 2 2 5 3 7 6 6 O   0 A %.q.e.y.y.y.w.q.",
"} o.-.;.-.o.} ) l 4   @ O O 2 O 2 2 2 2 2 2 o       . $ m m N :                                     M N v b b                               3 l ) } o.-.-.-.o.} ",
"o @ O @ @ o o o o   o 7 q f f f d V r r r r q 2       b b N N :                                     : v N v b                                 X o o @ @ @ @ O o ",
"Q { ......{ Q z h 6 O q f f h f d x d x V V r 2       b v m v :                                     M N m v b .         2 5 5 5 0 7 2 o     3 h z Q { ......~ Q ",
"6.w.t.y.y.w.6.%._ 7 2 s h h h h V r V d r x r q     o $ v K N .                                     o N N m n o       2 5 r V r h s q @     0 _ %.4.w.y.y.y.w.6.",
"y.y.y.y.y.y.t.,._ 7 O s h h h h d r x r V r V q     . b m N N M                                     M n m m b .       2 r d r V h h f 4     7 _ >.t.y.y.y.y.t.y.",
"j.h.y.y.y.y.t.,._ 7 O q r h h h V r x V r r r 6       b m m v :                                 . . M N v v $         2 5 r V r h f q O . X 7 _ ,.t.y.y.y.y.h.k.",
"z.k.d.y.y.y.t.,._ 7 o 3 7 q q q q r 5 q r 5 2 2     o b m N N .                                   . : N m v =         o 2 5 q q q 7 2 o     7 _ ,.t.y.y.y.a.k.z.",
"z.k.d.y.y.y.t.,._ 7 X       .         o             . b m N N :                                     M N N v =                   .           7 _ ,.t.y.y.y.d.k.z.",
"g.d.y.y.y.y.t.,._ 7 o 3 7 w q q q q q r q 5 2 2     . v m K N .                                     M N m v =       2 2 5 q q q q q q 7 2 o 0 _ ,.t.y.y.y.y.d.g.",
"g.d.y.y.y.y.t.,._ 7 o 2 7 q r s r x d d x r r 2     o $ b b M .                                     : n M = .     o 2 r V r d d d e q 7 3 @ 7 _ ,.t.y.y.y.y.d.d.",
"z.k.a.y.y.y.t.,._ 7         O 0 r V V r V r V 5                                                             . .   o r r r V V r 0 3         7 _ ,.t.y.y.y.d.k.z.",
"g.d.y.y.y.y.t.,._ 7 > F F N , O r d r x r d V 2                                                                   o r V x d x 5 @ , N F F ; 5 _ ,.t.y.y.y.y.d.g.",
"y.y.y.y.y.y.t.,._ 0 , I P H M o 5 r V d V d V 0             . $ .                                                 2 5 r V r V 5 X < H P I , 4 ' ,.t.y.y.y.y.y.y.",
"y.y.y.y.y.y.t.,._ 7 , P L m &   0 h h h h h f 0             + b =                                                 o q f h h f 0   & m L I , 7 Z ,.t.y.y.y.y.y.y.",
"y.y.y.y.y.y.t.,._ 7 @ > * + : 7 r f h h h d s 4             % b b .                                               o 5 q f h f r 4 : % * ; o 0 _ %.t.y.y.y.y.y.y.",
"w.r.y.y.y.r.w.%._ 7         O 6 0 0 q 0 0 0 6 O             + v = .                                               o 2 2 5 q 0 5 6 O         7 ' %.w.t.y.y.y.r.w.",
">.3.r.r.r.5.%. .C 7     X X X X X o X X o o   X             . b = .                                               o o   o   o o o     o     7 C  .>.5.r.r.r.2.>.",
"w t i p i i 9 9 4 o o 6 0 e e d e e e e e s d 0 7 o         % v = .                                         O 4 q s q s q r r s s e q 7 6 o o 6 0 9 i i i i y 9 ",
"a j Y T T a j u q O O q d f f h h h f l h f f f r O         . $ $                                           2 r d h h h h h h h f h f f q O O q u j U T T T j g ",
"1.q.t.y.y.w.1.$.A 0 O s f h h h h h h h h h h f f 7       . . . .                                           7 V h h h h h h h h h h h h s O 7 _ $.1.q.y.y.y.q.4.",
"t.t.y.y.y.y.w.%.Z 7 O 0 d f f f h h h h h h h d q O       . . = &                                           6 d h h h h h h h h h h h h s # 7 _ ,.w.t.y.y.y.t.t.",
"h.d.y.y.y.y.t.,._ 5 o # 4 0 0 7 0 7 0 0 0 0 0 4 6 O         % v b                                           6 d d V d f h h h h l f f f q O 7 _ 1.t.y.y.y.a.d.h.",
"z.k.d.y.y.y.t.,._ 7                         .               . b = .                                         2 5 r d d d d d d d d d d q 3 O 7 _ ,.t.y.y.y.a.k.z.",
"z.k.a.y.y.y.t.,._ 7                                         $ b = .                                         o o o O O O O O O O O O O O o X 4 _ ,.t.y.y.y.a.k.z.",
"j.g.y.y.y.y.t.,._ 0 X O 2 7 7 7 7 7 4 7 7 4 4 5 7 2 O o     $ b = .                                                                         7 _ ,.t.y.y.y.a.g.h.",
"t.y.y.y.y.t.w.,._ 7 O 7 r f h h f h h h h h h h f d 0 O     . v =                                               o o O O o o o O o o o X     5 ' ,.r.y.y.y.y.y.t.",
"4.q.t.y.y.w.4.$._ 7 # e f f h h f f h h h h h h f f d 6     . b b .                                             O 5 q r r r d r s s r 2     4 ' $.4.w.y.y.t.q.4.",
"%.%.1.4.4.,.$.+.c 4 O q d f f h h h h h d h l f f f q 2   . $ b = .                                             6 r d f x f h h f d r 2     7 c O.$.,.1.4.4.%.$.",
"@.O.@.@.+.@.O.S c 4 o 7 d f h h h h h h V f f f f d 7 o   . . b = .                                             0 V B f f f h h l r 7 O     2 x S O.@.@.O.+.+.@."
};
