/* XPM */
static char *result[] = {
/* columns rows colors chars-per-pixel */
"80 80 142 2 ",
"   c #6E5967",
".  c #6E5A68",
"X  c #705A67",
"o  c #745B69",
"O  c #7B5E6B",
"+  c #6D616F",
"@  c #77606B",
"#  c #7E626D",
"$  c #676675",
"%  c #6A6472",
"&  c #6F6876",
"*  c #656B7A",
"=  c #6E6B7A",
"-  c #726674",
";  c #7A6372",
":  c #736A76",
">  c #726E7B",
",  c #70717F",
"<  c #815F6E",
"1  c #83616E",
"2  c #8A636F",
"3  c #92626F",
"4  c #866170",
"5  c #8D6571",
"6  c #836971",
"7  c #8C6C73",
"8  c #936674",
"9  c #996775",
"0  c #956A74",
"q  c #9C6A76",
"w  c #9E6978",
"e  c #8D7176",
"r  c #937177",
"t  c #997377",
"y  c #93767A",
"u  c #997579",
"i  c #9C7D7E",
"p  c #A16C77",
"a  c #A46C79",
"s  c #AA6F7A",
"d  c #A47178",
"f  c #AD707B",
"g  c #A37B7C",
"h  c #AF797C",
"j  c #B4757B",
"k  c #BB797E",
"l  c #C16E7A",
"z  c #C7747E",
"x  c #5F7485",
"c  c #5D7788",
"v  c #637282",
"b  c #6A7382",
"n  c #657E8E",
"m  c #6E7F8E",
"M  c #707684",
"N  c #707886",
"B  c #727B88",
"V  c #AD7F80",
"C  c #B87D80",
"Z  c #C57E81",
"A  c #C87E81",
"S  c #D07E82",
"D  c #D97C83",
"F  c #74808C",
"G  c #7B828D",
"H  c #678090",
"J  c #698190",
"K  c #728492",
"L  c #718896",
"P  c #768F9A",
"I  c #7C949F",
"U  c #82939C",
"Y  c #A58080",
"T  c #A88683",
"R  c #A88884",
"E  c #B28483",
"W  c #BB8785",
"Q  c #B48A86",
"!  c #BC8986",
"~  c #B6938B",
"^  c #BB948C",
"/  c #B69B93",
"(  c #BF9A90",
")  c #B6A39B",
"_  c #C78584",
"`  c #CE8183",
"'  c #CC8887",
"]  c #D68486",
"[  c #D08988",
"{  c #DB8C8A",
"}  c #C0938C",
"|  c #CB928B",
" . c #D5978F",
".. c #DF918C",
"X. c #C49D92",
"o. c #CC9A91",
"O. c #D29B91",
"+. c #E08687",
"@. c #E18788",
"#. c #E28A8A",
"$. c #E6948F",
"%. c #E79690",
"&. c #E99C93",
"*. c #D5A396",
"=. c #DDA295",
"-. c #DBA698",
";. c #D6AB9C",
":. c #DAAC9C",
">. c #DDB19E",
",. c #E3A296",
"<. c #EBA197",
"1. c #E0A598",
"2. c #EDA599",
"3. c #E0A899",
"4. c #EEAB9C",
"5. c #F0AE9D",
"6. c #EBB29F",
"7. c #F1B19F",
"8. c #C9B1A5",
"9. c #E4B5A1",
"0. c #E7B8A3",
"q. c #E9BAA4",
"w. c #F3B5A1",
"e. c #F5BBA5",
"r. c #F5BFA9",
"t. c #F5C2A9",
"y. c #F9C5AB",
"u. c #FBCAAE",
"i. c #EAC5B2",
"p. c #EFC9B5",
"a. c #F7CBB4",
"s. c #FBCDB1",
"d. c #F5CEB8",
"f. c #FBD2B6",
"g. c #F7D7BE",
"h. c #FBD5B9",
"j. c #FBD9BD",
"k. c #FADDC1",
"l. c #FAE0C4",
"z. c #FAE5C9",
"x. c #FAEBCF",
"c. c None",
/* pixels */
"c.c.c.c.c.c.c.c.c.c.c.c.c.c.c.  X     . . . X                       .     . .         X X X             +                         c.c.c.c.c.c.c.c.c.c.c.c.c.c.c.",
"c.c.c.c.c.c.c.c.c.c.c.c.X   i ~ Q g 1 # u Q ~ ~ ~ ~ ~ / ) ^ ^ ) ) ) / ~ Q g 6 # g Q ~ ~ ~ ~ ~ ) ) ~ ~ ) ) ) ) ) / ~ E i # 6 g E ~ i     c.c.c.c.c.c.c.c.c.c.c.c.",
"c.c.c.c.c.c.c.c.c.c.c.6 6 7 X.u.e.=.y 7 O.7.u.u.u.u.f.j.l.f.f.l.z.z.g.u.e.-.t 7 O.7.u.u.u.u.u.k.l.f.f.l.z.z.z.z.f.y.7.O.7 i 1.7.u.( 7 7 6 c.c.c.c.c.c.c.c.c.c.c.",
"c.c.c.c.c.c.c.. . . 7 | -.9.t.u.y.0.i e >.y.u.u.u.u.u.u.f.u.u.s.f.f.u.u.y.6.i e :.y.u.u.u.u.u.u.s.u.u.s.s.f.s.s.s.u.u.>.e i 6.u.u.t.0.3.| 0       c.c.c.c.c.c.c.",
"c.c.c.c.c.c.o g Q / 8.i.a.s.u.u.u.q.i e >.u.u.s.u.u.u.u.u.u.u.u.u.u.u.u.u.i.y e >.u.u.u.u.u.u.u.u.u.u.u.u.u.u.u.u.u.u.>.e i i.y.u.u.u.a.i.8./ Q g o c.c.c.c.c.c.",
"c.c.c.c.c.6 0 o.r.g.z.z.j.s.u.u.y.9.i e :.y.y.y.u.u.u.u.u.u.u.u.u.u.u.u.y.6.i e :.y.u.u.u.u.u.u.u.u.u.u.u.u.u.u.u.u.y.:.e i 6.y.u.u.u.j.z.z.g.t.o.r 6 c.c.c.c.c.",
"c.c.c.c.  V ,.p.k.g.s.s.u.u.u.u.e.=.t 7 O.w.u.s.u.u.u.u.u.u.u.u.u.u.u.u.7.=.t 7 O.7.u.u.u.u.u.u.u.u.u.u.u.u.u.u.u.y.7.O.7 t =.6.u.u.u.u.a.f.h.l.p.=.Y X c.c.c.c.",
"c.c.c.t E :.d.g.h.a.u.u.y.e.5.2.&.{ 0 5 ' &.<.<.4.2.2.2.2.2.2.2.2.2.2.2.<.{ 0 6 _ &.2.2.2.2.2.2.4.2.2.2.2.2.2.2.2.2.&.' 2 0  .&.2.5.e.t.u.u.s.h.h.d.:.E t c.c.c.",
"c.c.X g 4.a.l.h.s.u.u.y.w.<.%.#.+.S 3 1 j A Z Z _ Z Z Z Z Z Z Z A A A A z k 7 1 j z _ A A A A z z ` Z Z _ z _ z Z Z z j 1 5 S @.#.$.<.7.y.u.u.u.h.l.a.4.Y . c.c.",
"c.c.X R y.u.s.u.u.u.y.5.&.#.#.@.D z 3 X o O O o O o O o O O o O @ @ @ o @ o X X o @ O @ O o o @ @ @ o o @ O o O @ @ o o @ 2 z D #.#.$.&.7.t.u.u.u.a.u.y.R . c.c.",
"  0 E *.u.u.u.u.y.e.5.&.$.#.Z q 9 3 O o 2 5 4 O                                                 . .           X @ 1 3 2 o O 3 q t z #.$.&.4.e.y.u.u.u.y.*.E r   ",
"  y -.e.u.u.u.u.y.5.%.#.] Z q   X X o < p s 9 2                                                                 2 q s p 1 X X X   t z ] #.&.4.y.u.u.u.u.e.1.y   ",
"  i q.u.u.u.u.u.t.&.#.#.k # X     X 1 9 s s s 8 X                                                             X 3 s s s 9 < X     @ @ k #.#.&.e.u.u.u.u.u.6.i   ",
"! O.t.u.u.u.u.e.5.$.] d 2 X       X o < < 2 < O X                                                             X O 1 2 < < O X       X 2 d S %.5.t.u.u.u.u.y.*.Q ",
"6.e.u.u.u.u.y.7.&.#.C 1     o O O < < < O o X                                                                   X                       1 z $.&.7.y.u.u.u.u.7.7.",
"y.u.u.u.u.u.y.<.#.#.z 1     O 8 p s s a 9 < X                                                                                         . 1 Z @.@.<.y.u.u.u.u.u.y.",
"u.u.u.u.u.u.y.<.] h 2 o o 1 8 a s s f s s 8 o X                                                                       o 3 9 0 0 8 5 4 O o 5 f ] <.y.u.u.u.u.u.u.",
"r.y.u.u.u.y.r.&.` 5     1 9 p j f s f s a 8 o                                                                       X @ 9 d f f j a 8 <   . 2 ` &.e.y.u.u.u.y.t.",
"2.7.u.u.u.7.2.$.] 2     1 s s s f f f s 9 2 o                                                                         o 5 q s f s s s 1     5 ` %.2.e.u.u.y.7.2.",
"t u i i i i t 0 2 O     o 1 1 1 < 1 1 < O o X                                                                         . o O 1 1 1 1 1 o     o 8 0 u u i i i i u ",
"t i i i Y i t 0 2 O X   . . o O < < < 4 < < O o                                                                 . . o O < 1 1 < O X . .     @ 5 t t g i Y i u u ",
"2.7.y.u.u.e.2.$.` 5     . . O 8 a f f f s a 9 4 X                                                               . o 2 9 a s s p 8 O . . . X 2 ` $.2.7.u.s.y.7.2.",
"t.y.u.u.u.y.e.&.] 5 : G B v - O 9 s f f f s a 5                                                                 . o 8 s s s f 9 @ & * F G - 5 ] &.e.y.u.u.u.t.t.",
"h.f.u.u.u.u.y.<.A 8 > U I n * X 8 f f f f f s 8 X                                                                 o q f s j s 8 . , J I U : 5 ` <.y.u.u.u.s.f.h.",
"x.l.s.u.u.u.y.<.` 5 : U U L M X 8 f f f f f f 8 X                                                                 o q s f f f 8 X , L I U > 5 ` <.y.u.u.u.s.l.x.",
"x.k.s.u.u.u.y.<.` 5 @ : : - ; 5 q f f f f s f 8 X .                                                             . O 9 f f f s p 2 ; - : : o 5 ` <.y.u.u.u.s.l.x.",
"k.j.s.u.u.u.y.<.] 5 o @ < 1 3 q s f f f s s a 5 X                                                               . o 8 a s s f s q 3 1 < O X 8 ` <.y.u.u.u.s.j.k.",
"s.u.u.u.u.u.y.<.` 5 O 2 9 s d s s s d s s p 8 <                                                                     4 8 a s s s s s s q 5 o 5 ` <.y.u.u.u.u.u.s.",
"l.j.s.u.u.u.y.<.` 5 X o # O 1 O < O < O < O O X                                                                 X o o o O < < < < < O o o X 5 ` <.y.u.u.u.s.j.l.",
"k.j.s.u.u.u.y.<.` 5   X   X       X   X                                                                         O < < 2 < 2 2 < 2 < 2 < # o 5 ` <.y.u.u.u.u.j.k.",
"u.u.u.u.u.u.y.<.` 5   X X o o o o o o o X                                                                       < 8 s s f f f f f j s q 2 O 5 ` <.y.u.u.u.u.u.u.",
"u.u.u.u.u.u.y.<.` 5 o 1 8 q p q q p q 9 3 1 X                                                                   8 s s f f f f f f f s s q 1 7 ` <.y.u.u.u.u.u.u.",
"u.u.u.u.u.a.r.<.D 3 < 3 w w l C w w w w w < o                                                                   8 s f f f f f f s s f f a < 5 ] <.y.y.u.u.u.u.u.",
"r.u.u.s.u.a.r.<.D < < w l C w w C C l C w V o                                                                   3 s f s f f f f j s f s p O 2 ` <.t.u.u.u.u.u.y.",
"5.w.r.s.u.e.<.$.Z V < 3 3 C C w w l C w w 3 o                                                                   1 9 a s f s f f s s s p 8 o 8 ` %.4.e.u.u.y.7.7.",
"C ! ^ / ^ W C C V   o < < < 3 3 3 3 3 3 < <                                                                     O 1 5 8 8 5 8 8 8 5 8 4 O o < p h E ~ ^ ^ ^ ~ E ",
"; 4 6 ; V . o M         o < o <   o o o                                                                                   X o o o O o o X X X @ 1 # # 6 6 # # # ",
" .-.>.0.9.&.| S C < o < 3 w w w w w 3 < o                                                                                 o 2 9 p p p 8 5 o 2 k '  .;.6.6.>.-.O.",
"w.t.u.s.a.r.r.<.D 3 < 3 w C C w C w C 3 o                                                                               X O 9 a f f f a 8 O 5 ] &.7.y.u.s.u.t.7.",
"f.a.u.u.a.d.r.D Z 3 < w w l w l w w C 9 <                                                                                 4 a s f f f f p < 2 ` <.y.u.u.u.s.s.s.",
"z.k.s.u.u.u.y.<.S V   V w w C w l w C w <       o . .                                                       X X           < a s f f f f a < 2 ] 2.y.u.u.u.u.l.z.",
"x.l.s.u.u.u.y.<.Z o   3 w C w C w C w 3 o     o b N b b                                                     + M M > + .   < 9 s f s f a 9 O 2 ` <.y.u.u.u.f.l.x.",
"z.k.s.u.u.u.y.<.S V o < 3 w w w w w 3 < o .   ; n m V b                                                     > K K m & . . O 2 8 a p p 8 < o 8 ` <.y.u.u.u.s.j.z.",
"s.s.u.u.u.u.y.<.D 3 o o   o < o < o o o . . . % c n n b                                                     b L n v $ . .   o o O o o o o X 2 ] <.y.u.u.u.u.s.f.",
"j.j.s.u.u.u.y.<.Z 4           o     . . . . . % c n m b                                                     = L n x %   .     o < 2 5 < 1 o 5 ` <.y.y.u.u.s.j.j.",
"z.j.s.u.u.u.y.<.Z o       o < < o < . . . . . % c m m M                                                     b K n x %       . < 9 a s p 8 @ 5 ` <.y.u.u.u.u.j.z.",
"f.u.u.u.u.u.y.<.D V     o 3 w w V 9 o . . . . % x n m ;                                                     b L n x %         2 s s f s q # 5 ` 2.y.u.u.u.u.u.f.",
"u.u.u.u.u.u.y.<.D 3     < w w w C w < . . . . $ x n m b                                                     > L n x %         2 s f f f a O 5 ` <.y.u.u.u.u.u.u.",
"u.u.u.u.u.u.y.<.` 5     1 p s s l w <         . x n m b                                                     = L m v %         < a s s s w O 2 ] <.y.u.u.u.u.u.u.",
"u.u.u.u.u.u.y.<.` 5 X X O 8 p f w C <         v x n m b                                                   X b m n c % .     . O 8 p s p 5 O 8 A <.y.u.u.u.u.u.u.",
"7.e.u.u.u.t.7.&.` 5 X X o O < 2 < < o         % c n m b                                                 X X M L n c % .     . o O < 2 < O   8 ] &.w.e.u.u.y.e.w.",
"| O.;.:.;.O.| _ j 6 X o o < O < o < < <       . c c V b                                                 X X > K n v % .     . .       X . . < j _ | O.;.;.;.o.| ",
"@ @ @ @ @ @ O o o X o 5 q s s s w w w < . . . $ c n m M o o                                                 M m n x %     .           X     X o o @ @ @ @ @ o O ",
"W ^ X.X.X.} ! k d 1 O 9 s s f s C w w w o . . $ c n m b   o                                                 b L n x %     o < 2 0 2 < o     1 d h W } X.X.X.} ! ",
"7.w.y.u.u.r.5.%.] 2 O p f f f f w l C 3 < . . % c n m b                                                     M L n x %     < 8 V f p 8 <     5 ] &.5.e.u.u.u.e.7.",
"u.u.u.u.u.u.y.<.` 8 < p f f f f C w w V < . . % c n m M                                                     : K n x +     < w a f f s 1     2 ` <.y.u.u.u.u.y.u.",
"l.j.a.u.u.u.y.<.` 2 O 8 a s f f C w w 3 o     + c n V b                                                     x V n x % .   O 8 V s a 9 < . . 2 ] <.y.u.u.u.s.j.k.",
"x.l.u.u.u.u.y.<.] 5 o 1 5 9 9 9 3 3 3 < o     v c c x b                                                   b v m n x % .   o < 4 9 8 4 o     2 ` <.y.u.u.u.u.l.x.",
"x.l.f.u.u.u.y.<.` 5 X     X X X               % c n m b                                                     b m n x % .           X . .   . 5 ` <.y.u.u.u.f.l.x.",
"h.h.u.u.u.u.y.<.` 2 o 1 5 0 9 9 V 3 3 < o     . c n M b                                                     M m n x % . < 3 3 9 9 9 8 5 < o 8 ` <.y.u.u.u.u.f.h.",
"h.f.u.u.u.u.y.<.` 8 o < 5 8 q a w l 3 3 O       v b b b                                                     . b b v   O 3 3 C w a q 0 5 1 o 5 ` <.y.u.u.u.u.h.h.",
"x.l.u.u.u.u.y.<.` 5 X X . . < 8 3 C C 3 <       b                                                                     O V V C 9 8 1     . X 5 ` <.y.u.u.u.f.l.x.",
"h.h.u.u.u.u.y.<.` 5 ; G G B > O 3 C C w O                                                                             O 3 C C 3 @ > F G G - 5 ` <.y.u.u.u.u.f.h.",
"u.u.u.u.u.u.y.<.` 5 M U I J = X 3 w C 9 O                                                                             < w w C < . = K I U : 5 ` <.y.u.u.u.u.y.u.",
"u.u.u.u.u.u.y.<.` 2 : U P n $ . 8 s s p O                                                                             O 9 f f 3 o $ n L U b 3 S <.y.u.u.u.u.u.u.",
"u.u.u.u.u.u.y.<.` 8 @ : & % ; 5 q s q 8 O                                                                             O 3 w s p 4 ; + - : o 8 A <.y.u.u.u.u.u.u.",
"e.t.y.u.u.t.e.&.` 5   X     O 1 5 8 5 O o                                                                             o < 4 8 4 < o o . . . 8 A &.e.y.u.u.t.t.e.",
"<.4.t.t.t.6.,...A 2 X o   X X X o o o   o                                                                             o X o X O o o o .   X 5 A ..,.6.t.t.t.4.1.",
"7 e t y y y 0 7 2 o o < 8 q q p w w p 9 5 <                                                                         < 3 9 w w w q q 9 8 4 o O < 7 7 r y y y 7 0 ",
"g g R R R i g t 0 O O 8 a s s f s s s s p 5 o .                                                                   o 3 w s f f f s j s a 8 O O 9 d d Y R R R g g ",
"4.7.y.u.u.e.2.$.S 8 < p s f f f f f f s s 9 o .                                                                   o 9 f f f f f s f f f p # 8 ` %.4.e.u.u.y.7.5.",
"y.y.u.u.u.y.e.<.A 8 o 8 p s s s f f f s w 2 o .                                                                   O 9 f f f f f f f f s p 1 2 ` <.e.y.u.u.u.y.y.",
"j.h.u.u.u.u.y.<.` 5 o 1 2 8 8 5 8 3 8 2 4 O                                                                       o 3 a s s f f f s f s 9 # 5 ` <.y.u.u.u.u.h.j.",
"x.l.u.u.u.u.y.<.` 2   X         .   X   X                                                                         o < 8 w a a a s a a 9 1 O 2 ] <.y.u.u.u.s.l.x.",
"x.l.f.u.u.u.y.<.] 5         X X .       X                                                                       . . o o < O o < O o O O o X 2 ` <.y.u.u.u.f.l.x.",
"j.j.u.u.u.u.y.<.` 2 o O < 5 2 5 2 2 4 O X                                                                       . . . .       o X           5 ` <.y.u.u.u.u.h.k.",
"y.y.u.u.u.y.e.<.` 2 O 2 p s f f s s a 2 o                                                                       .       o o o o O o o X X X 2 ] <.t.y.u.u.u.y.y.",
"5.e.y.y.u.e.5.%.] 5 < q s s f f s s s w O                                                                           . o 4 3 w w p p q <     3 ] %.4.e.y.u.y.w.5.",
"%.&.4.5.5.<.%.#.z 3 O 9 a s f f s a a 8 O                                                                             O 8 w a s s s q <     2 z #.%.2.5.5.5.&.%.",
"#.#.#.#.@.@.@.D k < O 2 q s f f f V w 2 o                                                                             O w C C a s p 5 O     < l z #.#.#.@.@.@.#."
};
